<svg width="24" height="24" viewBox="0 0 24 24" fill="none" xmlns="http://www.w3.org/2000/svg">
  <g clip-path="url(#clip0_627_1093)">
    <path d="M14.2971 14.6757C15.4005 13.8082 16.206 12.6183 16.6016 11.2716C16.9972 9.9249 16.9631 8.48839 16.5041 7.16197C16.0451 5.83555 15.1841 4.6852 14.0408 3.871C12.8975 3.05681 11.5288 2.61926 10.1252 2.61926C8.72163 2.61926 7.35295 3.05681 6.20965 3.871C5.06635 4.6852 4.2053 5.83555 3.74632 7.16197C3.28733 8.48839 3.25326 9.9249 3.64883 11.2716C4.04439 12.6183 4.84993 13.8082 5.95334 14.6757C4.17887 15.3992 2.61079 16.5503 1.38865 18.0263C1.1967 18.2548 1.10339 18.5502 1.12923 18.8475C1.15508 19.1448 1.29797 19.4197 1.52647 19.6116C1.75497 19.8036 2.05036 19.8969 2.34766 19.871C2.64497 19.8452 2.91983 19.7023 3.11178 19.4738C4.39522 17.9457 6.65647 16.125 10.1252 16.125C13.594 16.125 15.8552 17.9457 17.1387 19.4738C17.3306 19.7023 17.6055 19.8452 17.9028 19.871C18.2001 19.8969 18.4955 19.8036 18.724 19.6116C18.9525 19.4197 19.0954 19.1448 19.1212 18.8475C19.147 18.5502 19.0537 18.2548 18.8618 18.0263C17.6399 16.5499 16.0718 15.3989 14.2971 14.6757ZM5.62522 9.37504C5.62522 8.48503 5.88914 7.615 6.3836 6.87498C6.87807 6.13496 7.58087 5.55818 8.40314 5.21759C9.22541 4.87699 10.1302 4.78788 11.0031 4.96151C11.876 5.13514 12.6779 5.56373 13.3072 6.19306C13.9365 6.8224 14.3651 7.62422 14.5387 8.49714C14.7124 9.37005 14.6233 10.2749 14.2827 11.0971C13.9421 11.9194 13.3653 12.6222 12.6253 13.1167C11.8853 13.6111 11.0152 13.875 10.1252 13.875C8.93212 13.8738 7.78825 13.3993 6.94461 12.5557C6.10096 11.712 5.62646 10.5681 5.62522 9.37504ZM23.6712 12.796L20.6712 15.796C20.5666 15.9009 20.4424 15.9841 20.3057 16.0409C20.169 16.0976 20.0223 16.1269 19.8743 16.1269C19.7262 16.1269 19.5796 16.0976 19.4429 16.0409C19.3061 15.9841 19.1819 15.9009 19.0774 15.796L17.5774 14.296C17.3661 14.0846 17.2473 13.798 17.2473 13.4991C17.2473 13.2002 17.3661 12.9136 17.5774 12.7022C17.7887 12.4909 18.0754 12.3722 18.3743 12.3722C18.6732 12.3722 18.9598 12.4909 19.1712 12.7022L19.8752 13.4063L22.0793 11.2013C22.1839 11.0966 22.3082 11.0136 22.4449 10.957C22.5816 10.9004 22.7282 10.8712 22.8762 10.8712C23.0241 10.8712 23.1707 10.9004 23.3074 10.957C23.4441 11.0136 23.5684 11.0966 23.673 11.2013C23.7777 11.3059 23.8607 11.4302 23.9173 11.5669C23.974 11.7036 24.0031 11.8502 24.0031 11.9982C24.0031 12.1462 23.974 12.2927 23.9173 12.4294C23.8607 12.5662 23.7777 12.6904 23.673 12.795L23.6712 12.796Z" fill="#005FFF" />
  </g>
  <defs>
    <clipPath id="clip0_627_1093">
      <rect width="24" height="24" fill="white" />
    </clipPath>
  </defs>
</svg>