<svg width="262" height="68" fill="none" xmlns="http://www.w3.org/2000/svg"><rect width="6.231" height="68" rx="3.115" fill="#005FFF"/><rect x="10.23" width="6.231" height="68" rx="3.115" fill="#005FFF"/><rect x="20.462" y="7" width="6.231" height="61" rx="3.115" fill="#005FFF"/><rect x="30.692" width="6.231" height="68" rx="3.115" fill="#005FFF"/><rect x="40.923" y="15" width="6.231" height="53" rx="3.115" fill="#005FFF"/><rect x="51.154" width="6.231" height="68" rx="3.115" fill="#005FFF"/><rect x="61.385" width="6.231" height="68" rx="3.115" fill="#005FFF"/><rect x="71.615" y="7" width="6.231" height="61" rx="3.115" fill="#005FFF"/><rect x="81.846" y="5" width="6.231" height="63" rx="3.115" fill="#005FFF"/><rect x="92.077" y="7" width="6.231" height="61" rx="3.115" fill="#005FFF"/><rect x="102.308" y="22" width="6.231" height="46" rx="3.115" fill="#005FFF"/><rect x="112.538" y="7" width="6.231" height="61" rx="3.115" fill="#005FFF"/><rect x="122.77" y="15" width="6.231" height="53" rx="3.115" fill="#005FFF"/><rect x="133" y="7" width="6.231" height="61" rx="3.115" fill="#005FFF"/><rect x="143.23" y="15" width="6.231" height="53" rx="3.115" fill="#005FFF"/><rect x="153.462" y="22" width="6.231" height="46" rx="3.115" fill="#005FFF"/><rect x="163.692" y="15" width="6.231" height="53" rx="3.115" fill="#005FFF"/><rect x="173.923" y="7" width="6.231" height="61" rx="3.115" fill="#005FFF"/><rect x="184.154" y="15" width="6.231" height="53" rx="3.115" fill="#005FFF"/><rect x="194.385" y="13" width="6.231" height="55" rx="3.115" fill="#005FFF"/><rect x="204.615" y="13" width="6.231" height="55" rx="3.115" fill="#005FFF"/><rect x="214.846" y="15" width="6.231" height="53" rx="3.115" fill="#005FFF"/><rect x="225.077" y="13" width="6.231" height="55" rx="3.115" fill="#005FFF"/><rect x="235.308" y="7" width="6.231" height="61" rx="3.115" fill="#005FFF"/><rect x="245.538" y="13" width="6.231" height="55" rx="3.115" fill="#005FFF"/><rect x="255.77" y="13" width="6.231" height="55" rx="3.115" fill="#005FFF"/></svg>