<svg width="24" height="24" fill="none" xmlns="http://www.w3.org/2000/svg"><path d="M14.25 10.5a.75.75 0 0 1-.75.75h-3a.75.75 0 1 1 0-1.5h3a.75.75 0 0 1 .75.75zm7.5-3.75v12a1.5 1.5 0 0 1-1.5 1.5H3.75a1.5 1.5 0 0 1-1.5-1.5v-12a1.5 1.5 0 0 1 1.5-1.5H7.5V4.5a2.25 2.25 0 0 1 2.25-2.25h4.5A2.25 2.25 0 0 1 16.5 4.5v.75h3.75a1.5 1.5 0 0 1 1.5 1.5zM9 5.25h6V4.5a.75.75 0 0 0-.75-.75h-4.5A.75.75 0 0 0 9 4.5v.75zm11.25 5.4v-3.9H3.75v3.9a17.25 17.25 0 0 0 8.25 2.1 17.25 17.25 0 0 0 8.25-2.1z" fill="#005FFF"/></svg>