<svg width="262" height="68" viewBox="0 0 262 68" fill="none" xmlns="http://www.w3.org/2000/svg">
  <rect width="6.23077" height="68" rx="3.11538" fill="#005FFF" />
  <rect x="10.2305" width="6.23077" height="68" rx="3.11538" fill="#005FFF" />
  <rect x="20.4619" y="7" width="6.23077" height="61" rx="3.11538" fill="#005FFF" />
  <rect x="30.6924" width="6.23077" height="68" rx="3.11538" fill="#005FFF" />
  <rect x="40.9229" y="15" width="6.23077" height="53" rx="3.11538" fill="#005FFF" />
  <rect x="51.1543" width="6.23077" height="68" rx="3.11538" fill="#005FFF" />
  <rect x="61.3848" width="6.23077" height="68" rx="3.11538" fill="#005FFF" />
  <rect x="71.6152" y="7" width="6.23077" height="61" rx="3.11538" fill="#005FFF" />
  <rect x="81.8457" y="5" width="6.23077" height="63" rx="3.11538" fill="#005FFF" />
  <rect x="92.0771" y="7" width="6.23077" height="61" rx="3.11538" fill="#005FFF" />
  <rect x="102.308" y="22" width="6.23077" height="46" rx="3.11538" fill="#005FFF" />
  <rect x="112.538" y="7" width="6.23077" height="61" rx="3.11538" fill="#005FFF" />
  <rect x="122.77" y="15" width="6.23077" height="53" rx="3.11538" fill="#005FFF" />
  <rect x="133" y="7" width="6.23077" height="61" rx="3.11538" fill="#005FFF" />
  <rect x="143.23" y="15" width="6.23077" height="53" rx="3.11538" fill="#005FFF" />
  <rect x="153.462" y="22" width="6.23077" height="46" rx="3.11538" fill="#005FFF" />
  <rect x="163.692" y="15" width="6.23077" height="53" rx="3.11538" fill="#005FFF" />
  <rect x="173.923" y="7" width="6.23077" height="61" rx="3.11538" fill="#005FFF" />
  <rect x="184.154" y="15" width="6.23077" height="53" rx="3.11538" fill="#005FFF" />
  <rect x="194.385" y="13" width="6.23077" height="55" rx="3.11538" fill="#005FFF" />
  <rect x="204.615" y="13" width="6.23077" height="55" rx="3.11538" fill="#005FFF" />
  <rect x="214.846" y="15" width="6.23077" height="53" rx="3.11538" fill="#005FFF" />
  <rect x="225.077" y="13" width="6.23077" height="55" rx="3.11538" fill="#005FFF" />
  <rect x="235.308" y="7" width="6.23077" height="61" rx="3.11538" fill="#005FFF" />
  <rect x="245.538" y="13" width="6.23077" height="55" rx="3.11538" fill="#005FFF" />
  <rect x="255.77" y="13" width="6.23077" height="55" rx="3.11538" fill="#005FFF" />
</svg>