<svg width="24" height="24" fill="none" xmlns="http://www.w3.org/2000/svg"><g clip-path="url(#a)"><path d="M14.297 14.676a6.75 6.75 0 1 0-8.344 0 11.625 11.625 0 0 0-4.564 3.35 1.125 1.125 0 0 0 1.723 1.448c1.283-1.528 3.544-3.349 7.013-3.349s5.73 1.82 7.014 3.349a1.125 1.125 0 1 0 1.723-1.448 11.615 11.615 0 0 0-4.565-3.35zM5.625 9.375a4.5 4.5 0 1 1 9 0 4.5 4.5 0 0 1-9 0zm18.046 3.421-3 3a1.127 1.127 0 0 1-1.594 0l-1.5-1.5a1.127 1.127 0 0 1 1.594-1.594l.704.704 2.204-2.205a1.125 1.125 0 0 1 1.924.797 1.125 1.125 0 0 1-.33.797l-.002.001z" fill="#005FFF"/></g><defs><clipPath id="a"><path fill="#fff" d="M0 0h24v24H0z"/></clipPath></defs></svg>