<svg width="23" height="22" fill="none" xmlns="http://www.w3.org/2000/svg"><g filter="url(#a)"><rect x=".984" y=".615" width="21.221" height="21.221" rx="10.611" fill="#fff"/><path d="M10.877 7.922c0 1.458-1.28 2.64-2.859 2.64-1.58 0-2.86-1.182-2.86-2.64 0-1.457 1.28-2.639 2.86-2.639 1.58 0 2.86 1.182 2.86 2.64z" fill="#0AF"/><path d="M18.032 13.956c0 1.774-1.558 3.21-3.48 3.21-1.92 0-3.476-1.437-3.476-3.21 0-1.774 1.556-3.211 3.477-3.211 1.921 0 3.48 1.437 3.48 3.21z" fill="#97CF26"/><path d="M16.793 7.922c0 1.142-1.003 2.068-2.24 2.068-1.236 0-2.238-.926-2.238-2.068 0-1.14 1.003-2.066 2.238-2.066 1.237 0 2.24.925 2.24 2.066z" fill="#FF6163"/><path d="M9.638 13.956c0 .826-.725 1.494-1.62 1.494-.894 0-1.62-.668-1.62-1.494s.726-1.494 1.62-1.494c.895 0 1.62.668 1.62 1.494z" fill="#A169F7"/></g><defs><filter id="a" x=".984" y=".615" width="21.221" height="22.24" filterUnits="userSpaceOnUse" color-interpolation-filters="sRGB"><feFlood flood-opacity="0" result="BackgroundImageFix"/><feBlend in="SourceGraphic" in2="BackgroundImageFix" result="shape"/><feColorMatrix in="SourceAlpha" values="0 0 0 0 0 0 0 0 0 0 0 0 0 0 0 0 0 0 127 0" result="hardAlpha"/><feOffset dy="1.019"/><feGaussianBlur stdDeviation=".85"/><feComposite in2="hardAlpha" operator="arithmetic" k2="-1" k3="1"/><feColorMatrix values="0 0 0 0 0 0 0 0 0 0 0 0 0 0 0 0 0 0 0.05 0"/><feBlend in2="shape" result="effect1_innerShadow_2633_2610"/></filter></defs></svg>