<svg width="23" height="22" viewBox="0 0 23 22" fill="none" xmlns="http://www.w3.org/2000/svg">
  <g filter="url(#filter0_i_2633_2610)">
    <rect x="0.984375" y="0.614746" width="21.2209" height="21.2209" rx="10.6105" fill="white" />
    <path d="M10.8773 7.92238C10.8773 9.38018 9.59745 10.5624 8.01819 10.5624C6.43893 10.5624 5.1582 9.38018 5.1582 7.92238C5.1582 6.46487 6.43893 5.2832 8.01819 5.2832C9.59745 5.2832 10.8773 6.46487 10.8773 7.92238Z" fill="#00AAFF" />
    <path d="M18.0322 13.9559C18.0322 15.7295 16.4742 17.1669 14.5528 17.1669C12.6323 17.1669 11.0757 15.7295 11.0757 13.9559C11.0757 12.1823 12.6323 10.7446 14.5528 10.7446C16.4742 10.7446 18.0322 12.1823 18.0322 13.9559Z" fill="#97CF26" />
    <path d="M16.793 7.92224C16.793 9.06394 15.7902 9.98988 14.5531 9.98988C13.3174 9.98988 12.315 9.06394 12.315 7.92224C12.315 6.78111 13.3177 5.85573 14.5531 5.85573C15.7902 5.85573 16.793 6.78111 16.793 7.92224Z" fill="#FF6163" />
    <path d="M9.63847 13.9561C9.63847 14.782 8.91272 15.4503 8.01834 15.4503C7.12395 15.4503 6.3982 14.782 6.3982 13.9561C6.3982 13.1303 7.12395 12.462 8.01834 12.462C8.91272 12.462 9.63847 13.1303 9.63847 13.9561Z" fill="#A169F7" />
  </g>
  <defs>
    <filter id="filter0_i_2633_2610" x="0.984375" y="0.614746" width="21.2207" height="22.2402" filterUnits="userSpaceOnUse" color-interpolation-filters="sRGB">
      <feFlood flood-opacity="0" result="BackgroundImageFix" />
      <feBlend mode="normal" in="SourceGraphic" in2="BackgroundImageFix" result="shape" />
      <feColorMatrix in="SourceAlpha" type="matrix" values="0 0 0 0 0 0 0 0 0 0 0 0 0 0 0 0 0 0 127 0" result="hardAlpha" />
      <feOffset dy="1.01949" />
      <feGaussianBlur stdDeviation="0.849576" />
      <feComposite in2="hardAlpha" operator="arithmetic" k2="-1" k3="1" />
      <feColorMatrix type="matrix" values="0 0 0 0 0 0 0 0 0 0 0 0 0 0 0 0 0 0 0.05 0" />
      <feBlend mode="normal" in2="shape" result="effect1_innerShadow_2633_2610" />
    </filter>
  </defs>
</svg>