<svg width="24" height="24" fill="none" xmlns="http://www.w3.org/2000/svg"><path d="M19.46 5.985C17.518 5.014 14.938 4.5 12 4.5c-2.937 0-5.517.514-7.46 1.485C2.595 6.956 1.5 8.323 1.5 9.75v4.5c0 1.427 1.108 2.798 3.04 3.765C6.47 18.982 9.062 19.5 12 19.5c2.937 0 5.517-.514 7.46-1.485 1.944-.971 3.04-2.338 3.04-3.765v-4.5c0-1.427-1.108-2.798-3.04-3.765zm-8.21 9v3c-1.781-.058-3.281-.32-4.5-.702v-2.935c1.47.392 2.98.606 4.5.639v-.002zm1.5 0c1.52-.033 3.03-.247 4.5-.638v2.935c-1.219.381-2.719.644-4.5.702v-2.999zM3 14.25v-1.732c.472.392.989.727 1.54.997.227.113.468.22.71.322v2.85C3.766 15.953 3 15.027 3 14.25zm15.75 2.438v-2.851c.245-.102.483-.209.71-.322a7.77 7.77 0 0 0 1.54-.997v1.732c0 .777-.766 1.703-2.25 2.438z" fill="#005FFF"/></svg>