<svg width="24" height="24" fill="none" xmlns="http://www.w3.org/2000/svg"><path d="M20.989 17.164a5.275 5.275 0 0 1-5.239 4.586c-7.444 0-13.5-6.056-13.5-13.5A5.274 5.274 0 0 1 6.836 3.01a1.5 1.5 0 0 1 1.558.893l1.98 4.42v.011a1.5 1.5 0 0 1-.119 1.415 1.05 1.05 0 0 1-.053.072L8.25 12.136c.702 1.427 2.195 2.906 3.64 3.61l2.282-1.941a1.501 1.501 0 0 1 1.492-.184l.013.005 4.416 1.98a1.5 1.5 0 0 1 .896 1.558zM14.25 10.5H18A.75.75 0 1 0 18 9h-1.939l3.22-3.22a.75.75 0 1 0-1.062-1.06L15 7.94V6a.75.75 0 1 0-1.5 0v3.75a.75.75 0 0 0 .75.75z" fill="#005FFF"/></svg>