<svg width="24" height="24" viewBox="0 0 24 24" fill="none" xmlns="http://www.w3.org/2000/svg">
  <path d="M20.9888 17.1636C20.8216 18.4339 20.1977 19.6 19.2337 20.4439C18.2696 21.2879 17.0313 21.7521 15.75 21.7498C8.30626 21.7498 2.25001 15.6936 2.25001 8.24981C2.24771 6.96852 2.7119 5.73021 3.55588 4.76615C4.39986 3.80209 5.56592 3.17822 6.83626 3.01106C7.1575 2.97184 7.4828 3.03756 7.76362 3.19841C8.04444 3.35926 8.2657 3.60662 8.39438 3.90356L10.3744 8.32387V8.33512C10.4729 8.56242 10.5136 8.81059 10.4928 9.05744C10.472 9.3043 10.3904 9.54217 10.2553 9.74981C10.2384 9.77512 10.2206 9.79856 10.2019 9.822L8.25001 12.1357C8.9522 13.5626 10.4447 15.042 11.8903 15.7461L14.1722 13.8045C14.1946 13.7857 14.2181 13.7681 14.2425 13.752C14.45 13.6136 14.6887 13.5292 14.937 13.5062C15.1853 13.4833 15.4354 13.5227 15.6647 13.6207L15.6769 13.6264L20.0934 15.6054C20.3909 15.7337 20.6389 15.9547 20.8003 16.2356C20.9616 16.5164 21.0278 16.842 20.9888 17.1636ZM14.25 10.4998H18C18.1989 10.4998 18.3897 10.4208 18.5303 10.2801C18.671 10.1395 18.75 9.94872 18.75 9.74981C18.75 9.5509 18.671 9.36013 18.5303 9.21948C18.3897 9.07883 18.1989 8.99981 18 8.99981H16.0613L19.2806 5.78044C19.4214 5.6397 19.5004 5.44883 19.5004 5.24981C19.5004 5.05079 19.4214 4.85992 19.2806 4.71919C19.1399 4.57845 18.949 4.49939 18.75 4.49939C18.551 4.49939 18.3601 4.57845 18.2194 4.71919L15 7.9395V5.99981C15 5.8009 14.921 5.61013 14.7803 5.46948C14.6397 5.32883 14.4489 5.24981 14.25 5.24981C14.0511 5.24981 13.8603 5.32883 13.7197 5.46948C13.579 5.61013 13.5 5.8009 13.5 5.99981V9.74981C13.5 9.94872 13.579 10.1395 13.7197 10.2801C13.8603 10.4208 14.0511 10.4998 14.25 10.4998Z" fill="#005FFF" />
</svg>