<svg width="23" height="22" fill="none" xmlns="http://www.w3.org/2000/svg"><g clip-path="url(#a)"><path d="M22.09 19.055a2.783 2.783 0 0 1-2.781 2.78H3.649a2.757 2.757 0 0 1-2.78-2.78V3.395a2.757 2.757 0 0 1 2.78-2.78h15.66a2.757 2.757 0 0 1 2.78 2.78v15.66z" fill="#ED7518"/><path d="M16.664 6.445a.529.529 0 0 0-.51-.515H14.65c-.27 0-.51.243-.51.515 0 .797-.646 1.456-1.443 1.456-.27 0-.51.242-.51.515 0 .797-.647 1.455-1.443 1.455-.27 0-.511.243-.511.515 0 .78-.632 1.425-1.412 1.425-.27 0-.511.243-.511.516 0 .796-.646 1.455-1.442 1.455-.27 0-.511.242-.511.515v1.516c0 .273.24.515.51.515h9.256c.27 0 .51-.242.51-.515l.03-9.368z" fill="#fff"/></g><defs><clipPath id="a"><rect x=".868" y=".615" width="21.221" height="21.221" rx="10.611" fill="#fff"/></clipPath></defs></svg>