<svg width="23" height="22" viewBox="0 0 23 22" fill="none" xmlns="http://www.w3.org/2000/svg">
  <g clip-path="url(#clip0_2633_2595)">
    <path d="M22.0891 19.0553C22.0891 20.5681 20.8625 21.8357 19.3087 21.8357L3.64856 21.8357C2.09481 21.8357 0.868164 20.609 0.868164 19.0553L0.868164 3.39514C0.868164 1.84139 2.09481 0.614746 3.64856 0.614746L19.3087 0.614746C20.8625 0.614746 22.0891 1.84139 22.0891 3.39514L22.0891 19.0553Z" fill="#ED7518" />
    <path d="M16.6644 6.44546C16.6644 6.17262 16.424 5.93009 16.1536 5.93009H14.6512C14.3807 5.93009 14.1404 6.17262 14.1404 6.44546C14.1404 7.24204 13.4946 7.90061 12.698 7.90061C12.4276 7.90061 12.1872 8.14313 12.1872 8.41598C12.1872 9.21255 11.5414 9.87112 10.7449 9.87112C10.4744 9.87112 10.234 10.1136 10.234 10.3865C10.234 11.1665 9.60173 11.8113 8.82175 11.8113C8.55131 11.8113 8.31092 12.0538 8.31092 12.3267C8.31092 13.1233 7.66517 13.7818 6.86859 13.7818C6.59815 13.7818 6.35776 14.0244 6.35776 14.2972V15.813C6.35776 16.0858 6.59815 16.3284 6.86859 16.3284H16.1236C16.394 16.3284 16.6344 16.0858 16.6344 15.813L16.6644 6.44546Z" fill="white" />
  </g>
  <defs>
    <clipPath id="clip0_2633_2595">
      <rect x="0.868164" y="0.614746" width="21.2209" height="21.2209" rx="10.6105" fill="white" />
    </clipPath>
  </defs>
</svg>