<svg width="19" height="19" viewBox="0 0 19 19" fill="none" xmlns="http://www.w3.org/2000/svg">
  <path d="M16.6802 6.10943L7.68017 15.1094C7.60179 15.1881 7.50864 15.2505 7.40608 15.2931C7.30352 15.3357 7.19357 15.3576 7.08252 15.3576C6.97147 15.3576 6.86151 15.3357 6.75895 15.2931C6.65639 15.2505 6.56325 15.1881 6.48486 15.1094L2.54736 11.1719C2.46888 11.0934 2.40662 11.0003 2.36414 10.8977C2.32167 10.7952 2.2998 10.6853 2.2998 10.5743C2.2998 10.4633 2.32167 10.3534 2.36414 10.2508C2.40662 10.1483 2.46888 10.0551 2.54736 9.97662C2.62585 9.89814 2.71902 9.83588 2.82157 9.7934C2.92411 9.75093 3.03402 9.72906 3.14502 9.72906C3.25601 9.72906 3.36592 9.75093 3.46847 9.7934C3.57101 9.83588 3.66419 9.89814 3.74267 9.97662L7.08322 13.3172L15.4863 4.91553C15.6448 4.75702 15.8598 4.66797 16.0839 4.66797C16.3081 4.66797 16.5231 4.75702 16.6816 4.91553C16.8401 5.07403 16.9291 5.28902 16.9291 5.51318C16.9291 5.73735 16.8401 5.95233 16.6816 6.11084L16.6802 6.10943Z" fill="#00CC84" />
</svg>