<svg width="93" height="28" viewBox="0 0 93 28" fill="none" xmlns="http://www.w3.org/2000/svg">
  <path d="M32.7863 21.9472C28.4973 21.9472 25.9078 18.8149 25.9078 15.0885C25.9078 11.3891 28.4973 8.25685 32.7863 8.25685C37.1022 8.25685 39.6918 11.3891 39.6918 15.0885C39.6918 18.8149 37.1022 21.9472 32.7863 21.9472ZM32.7863 18.8959C34.9173 18.8959 36.1311 17.1407 36.1311 15.0885C36.1311 13.0633 34.9173 11.3081 32.7863 11.3081C30.6553 11.3081 29.4684 13.0633 29.4684 15.0885C29.4684 17.1407 30.6553 18.8959 32.7863 18.8959Z" fill="#081D3F" />
  <path d="M45.6591 17.3766C45.6591 17.4164 45.6707 17.4554 45.6939 17.4877C46.2762 18.2994 47.5155 18.8959 48.5993 18.8959C50.5954 18.8959 51.9171 17.3837 51.9171 15.1155C51.9171 12.8473 50.5954 11.3081 48.5993 11.3081C47.5144 11.3081 46.2738 11.9317 45.6922 12.7711C45.6701 12.803 45.6591 12.841 45.6591 12.8798V17.3766ZM45.6591 21.4238C45.6591 21.5339 45.5698 21.6231 45.4598 21.6231H42.4326C42.3225 21.6231 42.2333 21.5339 42.2333 21.4238V3.8117C42.2333 3.70163 42.3225 3.61241 42.4326 3.61241H45.4598C45.5698 3.61241 45.6591 3.70163 45.6591 3.8117V9.67238C45.6591 9.86233 45.9079 9.95088 46.0393 9.81379C47.029 8.78201 48.3221 8.25685 49.6783 8.25685C52.9961 8.25685 55.4508 10.8491 55.4508 15.1155C55.4508 19.4629 52.9692 21.9472 49.6783 21.9472C48.2973 21.9472 47.0215 21.4002 46.0362 20.3805C45.9049 20.2447 45.6591 20.3333 45.6591 20.5222V21.4238Z" fill="#081D3F" />
  <path d="M64.1619 21.9472C60.1966 21.9472 57.2025 19.2739 57.2025 15.0885C57.2025 11.3081 59.9809 8.25685 63.9461 8.25685C67.8304 8.25685 70.4739 11.1731 70.4739 15.4395V15.9963C70.4739 16.1064 70.3847 16.1956 70.2747 16.1956H61.0172C60.8968 16.1956 60.8035 16.3017 60.8266 16.4198C61.1286 17.9659 62.4288 19.2199 64.5395 19.2199C65.5718 19.2199 66.98 18.7965 67.843 18.0814C67.9382 18.0026 68.0829 18.0171 68.1526 18.1192L69.4326 19.9955C69.4884 20.0773 69.476 20.188 69.4008 20.2524C68.1014 21.3659 66.119 21.9472 64.1619 21.9472ZM66.9434 13.8734C67.0585 13.8734 67.1503 13.7761 67.1351 13.662C66.9744 12.4525 66.0855 10.9841 63.9461 10.9841C61.9359 10.9841 61.0058 12.4018 60.771 13.6505C60.7488 13.7683 60.842 13.8734 60.9619 13.8734H66.9434Z" fill="#081D3F" />
  <path d="M76.3742 21.4238C76.3742 21.5339 76.285 21.6231 76.1749 21.6231H73.1477C73.0377 21.6231 72.9484 21.5339 72.9484 21.4238V8.78017C72.9484 8.67011 73.0377 8.58088 73.1477 8.58088H76.1749C76.285 8.58088 76.3742 8.67011 76.3742 8.78017V9.78922C76.3742 9.97823 76.6218 10.0683 76.7548 9.93399C77.6566 9.02275 78.9829 8.32512 80.3291 8.26158C80.439 8.25639 80.5283 8.34608 80.5283 8.45614V11.3567C80.5283 11.4842 80.4099 11.5795 80.2835 11.5632C80.0824 11.5372 79.8463 11.5242 79.5842 11.5242C78.4738 11.5242 77.0007 12.1467 76.4092 12.9595C76.3857 12.9917 76.3742 13.0306 76.3742 13.0704V21.4238Z" fill="#081D3F" />
  <path d="M87.3623 21.9472C85.1625 21.9472 83.0389 21.2345 81.6581 20.0316C81.5862 19.9689 81.572 19.8634 81.6221 19.7822L82.8909 17.7269C82.9573 17.6194 83.1055 17.5999 83.2023 17.681C84.1984 18.5148 86.004 19.3009 87.5242 19.3009C89.0078 19.3009 89.7091 18.7068 89.7091 17.8968C89.7091 15.7366 81.9674 17.4917 81.9674 12.3612C81.9674 10.174 83.8826 8.25685 87.3084 8.25685C89.4434 8.25685 91.1511 8.96125 92.4317 9.93297C92.5108 9.99299 92.5311 10.1027 92.4809 10.1884L91.3278 12.1576C91.2604 12.2726 91.1011 12.2906 91.0027 12.2007C90.1846 11.4526 88.806 10.8761 87.3354 10.8761C86.0945 10.8761 85.2853 11.4432 85.2853 12.1722C85.2853 14.1164 93 12.4963 93 17.7618C93 20.138 90.9769 21.9472 87.3623 21.9472Z" fill="#081D3F" />
  <path d="M0 5.60531C0 2.85368 2.23064 0.623046 4.98227 0.623046H22.9184C25.6701 0.623046 27.9007 2.85368 27.9007 5.60531V22.9436C27.9007 25.6952 25.6701 27.9259 22.9184 27.9259H4.98227C2.23064 27.9259 0 25.6952 0 22.9436V5.60531Z" fill="#005FFF" />
  <path d="M13.5972 22.545C11.8411 22.545 10.1614 22.0861 8.87982 20.8958C8.81356 20.8343 8.7999 20.7351 8.84458 20.6565C8.84458 20.6565 10.2503 18.1826 10.3145 18.0696C10.3787 17.9565 10.5322 17.9344 10.6291 18.021C11.3045 18.6249 12.1676 19.1427 13.3005 19.1427C14.9999 19.1427 16.1059 18.0086 16.1059 16.2534V4.40957C16.1059 4.29951 16.1951 4.21028 16.3052 4.21028H19.737C19.847 4.21028 19.9363 4.29951 19.9363 4.40957V16.3074C19.9363 20.5738 17.2927 22.545 13.5972 22.545Z" fill="white" />
</svg>