<svg width="93" height="28" fill="none" xmlns="http://www.w3.org/2000/svg"><path d="M32.786 21.947c-4.289 0-6.878-3.132-6.878-6.858 0-3.7 2.59-6.832 6.878-6.832 4.316 0 6.906 3.132 6.906 6.832 0 3.726-2.59 6.858-6.906 6.858zm0-3.051c2.131 0 3.345-1.755 3.345-3.808 0-2.025-1.214-3.78-3.345-3.78-2.13 0-3.318 1.755-3.318 3.78 0 2.053 1.187 3.808 3.318 3.808zM45.66 17.377c0 .04.01.078.034.11.582.812 1.822 1.409 2.905 1.409 1.996 0 3.318-1.512 3.318-3.78 0-2.269-1.322-3.808-3.318-3.808-1.085 0-2.325.624-2.907 1.463a.19.19 0 0 0-.033.109v4.497zm0 4.047a.2.2 0 0 1-.2.2h-3.027a.2.2 0 0 1-.2-.2V3.812c0-.11.09-.2.2-.2h3.027c.11 0 .2.09.2.2v5.86c0 .19.248.279.38.142a4.983 4.983 0 0 1 3.638-1.557c3.318 0 5.773 2.592 5.773 6.859 0 4.347-2.482 6.831-5.773 6.831-1.38 0-2.656-.547-3.642-1.566-.131-.136-.377-.048-.377.141v.902zM64.162 21.947c-3.965 0-6.96-2.673-6.96-6.858 0-3.78 2.779-6.832 6.744-6.832 3.884 0 6.528 2.916 6.528 7.183v.556a.2.2 0 0 1-.2.2h-9.257a.19.19 0 0 0-.19.224c.302 1.546 1.602 2.8 3.713 2.8 1.032 0 2.44-.423 3.303-1.139a.212.212 0 0 1 .31.038l1.28 1.877a.194.194 0 0 1-.032.256c-1.3 1.114-3.282 1.695-5.24 1.695zm2.781-8.074a.19.19 0 0 0 .192-.211c-.16-1.21-1.05-2.678-3.189-2.678-2.01 0-2.94 1.418-3.175 2.666a.19.19 0 0 0 .19.223h5.982zM76.374 21.424a.2.2 0 0 1-.2.2h-3.026a.2.2 0 0 1-.2-.2V8.78c0-.11.09-.2.2-.2h3.027c.11 0 .2.09.2.2v1.01c0 .188.247.278.38.144.902-.911 2.228-1.609 3.574-1.672.11-.006.2.084.2.194v2.9c0 .128-.12.223-.245.207a5.553 5.553 0 0 0-.7-.039c-1.11 0-2.583.623-3.175 1.436a.187.187 0 0 0-.035.11v8.354zM87.362 21.947c-2.2 0-4.323-.712-5.704-1.915a.195.195 0 0 1-.036-.25l1.269-2.055a.209.209 0 0 1 .311-.046c.996.834 2.802 1.62 4.322 1.62 1.484 0 2.185-.594 2.185-1.404 0-2.16-7.742-.405-7.742-5.536 0-2.187 1.916-4.104 5.341-4.104 2.135 0 3.843.704 5.124 1.676.079.06.1.17.049.255l-1.153 1.97c-.068.115-.227.133-.325.043-.818-.748-2.197-1.325-3.668-1.325-1.24 0-2.05.567-2.05 1.296 0 1.944 7.715.324 7.715 5.59 0 2.376-2.023 4.185-5.638 4.185z" fill="#081D3F"/><path d="M0 5.605A4.982 4.982 0 0 1 4.982.623h17.936a4.982 4.982 0 0 1 4.983 4.982v17.339a4.982 4.982 0 0 1-4.983 4.982H4.982A4.982 4.982 0 0 1 0 22.944V5.605z" fill="#005FFF"/><path d="M13.597 22.545c-1.756 0-3.436-.459-4.717-1.65a.195.195 0 0 1-.035-.238l1.47-2.587a.205.205 0 0 1 .314-.049c.676.604 1.539 1.122 2.671 1.122 1.7 0 2.806-1.134 2.806-2.89V4.41c0-.11.09-.2.2-.2h3.431c.11 0 .2.09.2.2v11.897c0 4.267-2.644 6.238-6.34 6.238z" fill="#fff"/></svg>