<svg width="22" height="22" fill="none" xmlns="http://www.w3.org/2000/svg"><g clip-path="url(#a)"><rect x=".281" y=".615" width="21.221" height="21.221" rx="10.611" fill="#CA2721"/><g filter="url(#b)" fill-rule="evenodd" clip-rule="evenodd" fill="#fff"><path d="M6.752 7.334v3.004c.495-.546 1.09-.82 1.778-.82.355 0 .673.062.958.186.286.124.5.282.644.474.145.193.243.406.296.64.052.232.08.595.08 1.086v3.211h-1.54v-2.892c0-.574-.029-.938-.087-1.092a.72.72 0 0 0-.31-.368 1.036 1.036 0 0 0-.556-.137c-.255 0-.484.06-.683.176a1.018 1.018 0 0 0-.44.528c-.095.236-.142.583-.14 1.043l-.002 2.742H5.212v-7.78h1.54zM12.816 7.334v3.004c.495-.546 1.09-.82 1.778-.82.354 0 .674.062.96.186.284.124.498.282.642.474.145.193.243.406.296.64.052.232.08.595.08 1.086v3.211h-1.54v-2.892c0-.574-.029-.938-.087-1.092a.72.72 0 0 0-.31-.368 1.033 1.033 0 0 0-.556-.137c-.255 0-.483.06-.683.176-.2.117-.347.293-.44.528-.093.236-.14.583-.14 1.043v2.742h-1.539v-7.78h1.539z"/></g></g><defs><clipPath id="a"><rect x=".281" y=".615" width="21.221" height="21.221" rx="10.611" fill="#fff"/></clipPath><filter id="b" x="-14.448" y="-11.764" width="50.679" height="47.101" filterUnits="userSpaceOnUse" color-interpolation-filters="sRGB"><feFlood flood-opacity="0" result="BackgroundImageFix"/><feColorMatrix in="SourceAlpha" values="0 0 0 0 0 0 0 0 0 0 0 0 0 0 0 0 0 0 127 0" result="hardAlpha"/><feOffset dy=".562"/><feGaussianBlur stdDeviation="9.83"/><feComposite in2="hardAlpha" operator="out"/><feColorMatrix values="0 0 0 0 0 0 0 0 0 0 0 0 0 0 0 0 0 0 0.25 0"/><feBlend in2="BackgroundImageFix" result="effect1_dropShadow_2633_2576"/><feBlend in="SourceGraphic" in2="effect1_dropShadow_2633_2576" result="shape"/></filter></defs></svg>