<svg width="33" height="40" viewBox="0 0 33 40" fill="none" xmlns="http://www.w3.org/2000/svg">
  <path d="M33 20C33.0012 20.5093 32.8707 21.0103 32.6209 21.4542C32.3712 21.898 32.0109 22.2698 31.575 22.5331L4.56 39.0594C4.10454 39.3383 3.58288 39.4905 3.0489 39.5004C2.51492 39.5103 1.98798 39.3775 1.5225 39.1156C1.06146 38.8579 0.677393 38.4819 0.409807 38.0265C0.142221 37.5711 0.000770358 37.0526 0 36.5244V3.47565C0.000770358 2.94743 0.142221 2.42895 0.409807 1.97353C0.677393 1.51811 1.06146 1.14217 1.5225 0.884395C1.98798 0.622549 2.51492 0.48971 3.0489 0.499599C3.58288 0.509487 4.10454 0.661745 4.56 0.940646L31.575 17.4669C32.0109 17.7303 32.3712 18.102 32.6209 18.5459C32.8707 18.9898 33.0012 19.4907 33 20Z" fill="#005FFF" />
</svg>