<svg width="262" height="68" viewBox="0 0 262 68" fill="none" xmlns="http://www.w3.org/2000/svg">
  <rect width="15" height="68" rx="7.5" fill="#005FFF" />
  <rect x="19" y="7" width="15" height="61" rx="7.5" fill="#005FFF" />
  <rect x="38" y="15" width="15" height="53" rx="7.5" fill="#005FFF" />
  <rect x="57" width="15" height="68" rx="7.5" fill="#005FFF" />
  <rect x="76" width="15" height="68" rx="7.5" fill="#005FFF" />
  <rect x="95" y="5" width="15" height="63" rx="7.5" fill="#005FFF" />
  <rect x="114" y="7" width="15" height="61" rx="7.5" fill="#005FFF" />
  <rect x="133" y="7" width="15" height="61" rx="7.5" fill="#005FFF" />
  <rect x="152" y="22" width="15" height="46" rx="7.5" fill="#005FFF" />
  <rect x="171" y="15" width="15" height="53" rx="7.5" fill="#005FFF" />
  <rect x="190" y="13" width="15" height="55" rx="7.5" fill="#005FFF" />
  <rect x="209" y="15" width="15" height="53" rx="7.5" fill="#005FFF" />
  <rect x="228" y="13" width="15" height="55" rx="7.5" fill="#005FFF" />
  <rect x="247" y="13" width="15" height="55" rx="7.5" fill="#005FFF" />
</svg>