<svg width="28" height="29" fill="none" xmlns="http://www.w3.org/2000/svg"><g clip-path="url(#a)"><rect x=".202" y=".702" width="27.596" height="27.596" rx="13.798" fill="#CA2721"/><g filter="url(#b)" fill-rule="evenodd" clip-rule="evenodd" fill="#fff"><path d="M8.617 9.44v3.906c.644-.709 1.416-1.066 2.313-1.066.461 0 .875.08 1.245.243.372.16.65.365.837.615.189.252.316.528.385.832.069.303.103.774.103 1.413v4.176h-2.002v-3.761c0-.746-.037-1.22-.113-1.42a.935.935 0 0 0-.402-.478c-.193-.12-.433-.18-.723-.18-.332 0-.63.078-.889.23a1.324 1.324 0 0 0-.573.687c-.122.306-.183.758-.181 1.356l-.002 3.566h-2V9.44h2.002zM16.502 9.44v3.906c.644-.709 1.416-1.066 2.312-1.066.46 0 .876.08 1.248.243.37.16.648.366.835.615.189.252.316.528.385.832.068.303.103.774.103 1.413v4.176h-2v-3.761c0-.746-.039-1.22-.115-1.42a.935.935 0 0 0-.402-.478c-.191-.12-.433-.18-.723-.18-.332 0-.63.078-.889.23a1.341 1.341 0 0 0-.573.687c-.12.306-.181.758-.181 1.356v3.566H14.5V9.441h2z"/></g></g><defs><clipPath id="a"><rect x=".202" y=".702" width="27.596" height="27.596" rx="13.798" fill="#fff"/></clipPath><filter id="b" x="-18.951" y="-15.395" width="65.902" height="61.25" filterUnits="userSpaceOnUse" color-interpolation-filters="sRGB"><feFlood flood-opacity="0" result="BackgroundImageFix"/><feColorMatrix in="SourceAlpha" values="0 0 0 0 0 0 0 0 0 0 0 0 0 0 0 0 0 0 127 0" result="hardAlpha"/><feOffset dy=".73"/><feGaussianBlur stdDeviation="12.783"/><feComposite in2="hardAlpha" operator="out"/><feColorMatrix values="0 0 0 0 0 0 0 0 0 0 0 0 0 0 0 0 0 0 0.25 0"/><feBlend in2="BackgroundImageFix" result="effect1_dropShadow_630_6606"/><feBlend in="SourceGraphic" in2="effect1_dropShadow_630_6606" result="shape"/></filter></defs></svg>