<svg width="94" height="28" viewBox="0 0 94 28" fill="none" xmlns="http://www.w3.org/2000/svg">
  <path d="M32.3808 23.45C31.0314 23.45 29.862 23.1529 28.8724 22.5588C27.8829 21.9646 27.1152 21.1334 26.5695 20.0651C26.0297 18.9968 25.7599 17.7484 25.7599 16.32C25.7599 14.8916 26.0297 13.6403 26.5695 12.566C27.1152 11.4917 27.8829 10.6575 28.8724 10.0633C29.862 9.46916 31.0314 9.17208 32.3808 9.17208C33.7302 9.17208 34.8996 9.46916 35.8892 10.0633C36.8787 10.6575 37.6434 11.4917 38.1831 12.566C38.7289 13.6403 39.0017 14.8916 39.0017 16.32C39.0017 17.7484 38.7289 18.9968 38.1831 20.0651C37.6434 21.1334 36.8787 21.9646 35.8892 22.5588C34.8996 23.1529 33.7302 23.45 32.3808 23.45ZM32.3988 20.8393C33.1305 20.8393 33.7422 20.6382 34.2339 20.2361C34.7257 19.828 35.0915 19.2819 35.3314 18.5977C35.5773 17.9135 35.7003 17.1513 35.7003 16.311C35.7003 15.4648 35.5773 14.6996 35.3314 14.0154C35.0915 13.3252 34.7257 12.7761 34.2339 12.368C33.7422 11.9598 33.1305 11.7558 32.3988 11.7558C31.6491 11.7558 31.0254 11.9598 30.5277 12.368C30.0359 12.7761 29.6671 13.3252 29.4212 14.0154C29.1813 14.6996 29.0613 15.4648 29.0613 16.311C29.0613 17.1513 29.1813 17.9135 29.4212 18.5977C29.6671 19.2819 30.0359 19.828 30.5277 20.2361C31.0254 20.6382 31.6491 20.8393 32.3988 20.8393Z" fill="#1E2A3E" />
  <path d="M41.9096 23.1799V4.74286H45.1661V11.6388H45.3011C45.469 11.3027 45.7059 10.9456 46.0117 10.5675C46.3176 10.1834 46.7314 9.85626 47.2532 9.58619C47.7749 9.31011 48.4406 9.17208 49.2502 9.17208C50.3177 9.17208 51.2803 9.44515 52.1379 9.9913C53.0015 10.5314 53.6852 11.3327 54.1889 12.395C54.6987 13.4513 54.9536 14.7476 54.9536 16.284C54.9536 17.8025 54.7047 19.0928 54.2069 20.1551C53.7092 21.2174 53.0315 22.0276 52.1739 22.5858C51.3163 23.1439 50.3447 23.423 49.2592 23.423C48.4676 23.423 47.8109 23.291 47.2891 23.0269C46.7674 22.7628 46.3476 22.4447 46.0297 22.0726C45.7179 21.6945 45.475 21.3374 45.3011 21.0013H45.1121V23.1799H41.9096ZM45.1032 16.266C45.1032 17.1603 45.2291 17.9435 45.481 18.6157C45.7389 19.2879 46.1077 19.813 46.5875 20.1911C47.0732 20.5632 47.661 20.7493 48.3506 20.7493C49.0703 20.7493 49.673 20.5572 50.1588 20.1731C50.6446 19.783 51.0104 19.2518 51.2563 18.5797C51.5082 17.9015 51.6341 17.1303 51.6341 16.266C51.6341 15.4078 51.5112 14.6456 51.2653 13.9794C51.0194 13.3132 50.6536 12.7911 50.1678 12.413C49.682 12.0349 49.0763 11.8458 48.3506 11.8458C47.655 11.8458 47.0642 12.0289 46.5785 12.395C46.0927 12.7611 45.7239 13.2742 45.472 13.9344C45.2261 14.5946 45.1032 15.3718 45.1032 16.266Z" fill="#1E2A3E" />
  <path d="M63.8392 23.45C62.4539 23.45 61.2574 23.1619 60.2499 22.5858C59.2483 22.0036 58.4777 21.1814 57.938 20.1191C57.3982 19.0508 57.1283 17.7934 57.1283 16.347C57.1283 14.9247 57.3982 13.6763 57.938 12.602C58.4837 11.5217 59.2453 10.6815 60.2229 10.0813C61.2004 9.47516 62.3489 9.17208 63.6683 9.17208C64.5199 9.17208 65.3235 9.31011 66.0792 9.58619C66.8408 9.85626 67.5125 10.2764 68.0943 10.8465C68.682 11.4167 69.1438 12.1429 69.4796 13.0251C69.8155 13.9014 69.9834 14.9457 69.9834 16.158V17.1573H58.6576V14.9607H66.8618C66.8558 14.3365 66.7209 13.7813 66.457 13.2952C66.1931 12.8031 65.8243 12.416 65.3505 12.1339C64.8827 11.8518 64.337 11.7108 63.7133 11.7108C63.0476 11.7108 62.4629 11.8728 61.9591 12.1969C61.4553 12.515 61.0625 12.9351 60.7806 13.4573C60.5048 13.9734 60.3638 14.5406 60.3578 15.1587V17.0763C60.3578 17.8805 60.5048 18.5707 60.7986 19.1468C61.0925 19.717 61.5033 20.1551 62.0311 20.4612C62.5588 20.7613 63.1765 20.9113 63.8842 20.9113C64.358 20.9113 64.7868 20.8453 65.1706 20.7132C65.5544 20.5752 65.8873 20.3742 66.1691 20.1101C66.451 19.846 66.6639 19.5189 66.8078 19.1288L69.8484 19.4709C69.6565 20.2751 69.2907 20.9773 68.7509 21.5775C68.2172 22.1716 67.5335 22.6338 66.6999 22.9639C65.8663 23.288 64.9127 23.45 63.8392 23.45Z" fill="#1E2A3E" />
  <path d="M72.7383 23.1799V9.35213H75.8959V11.6568H76.0398C76.2917 10.8585 76.7235 10.2434 77.3352 9.81125C77.9529 9.37313 78.6576 9.15407 79.4492 9.15407C79.6292 9.15407 79.8301 9.16307 80.052 9.18108C80.2799 9.19308 80.4688 9.21409 80.6187 9.24409V12.2419C80.4808 12.1939 80.2619 12.1519 79.962 12.1159C79.6681 12.0739 79.3833 12.0529 79.1074 12.0529C78.5137 12.0529 77.9799 12.1819 77.5061 12.44C77.0384 12.692 76.6695 13.0431 76.3997 13.4933C76.1298 13.9434 75.9948 14.4625 75.9948 15.0507V23.1799H72.7383Z" fill="#1E2A3E" />
  <path d="M93.7031 13.0071L90.7345 13.3312C90.6505 13.0311 90.5036 12.7491 90.2937 12.485C90.0898 12.2209 89.8139 12.0079 89.4661 11.8458C89.1183 11.6838 88.6925 11.6027 88.1887 11.6027C87.511 11.6027 86.9413 11.7498 86.4795 12.0439C86.0237 12.3379 85.7988 12.7191 85.8048 13.1872C85.7988 13.5893 85.9457 13.9164 86.2456 14.1685C86.5515 14.4205 87.0552 14.6276 87.7569 14.7896L90.1138 15.2938C91.4212 15.5758 92.3927 16.023 93.0284 16.6351C93.6701 17.2473 93.994 18.0485 94 19.0388C93.994 19.909 93.7391 20.6772 93.2354 21.3434C92.7376 22.0036 92.0449 22.5197 91.1573 22.8918C90.2697 23.264 89.2502 23.45 88.0987 23.45C86.4075 23.45 85.0461 23.0959 84.0146 22.3877C82.9831 21.6735 82.3684 20.6802 82.1705 19.4079L85.346 19.1018C85.4899 19.726 85.7958 20.1971 86.2636 20.5152C86.7314 20.8333 87.3401 20.9923 88.0897 20.9923C88.8634 20.9923 89.4841 20.8333 89.9519 20.5152C90.4257 20.1971 90.6625 19.804 90.6625 19.3359C90.6625 18.9398 90.5096 18.6127 90.2038 18.3546C89.9039 18.0965 89.4361 17.8985 88.8004 17.7604L86.4435 17.2653C85.1181 16.9892 84.1376 16.5241 83.5019 15.8699C82.8661 15.2097 82.5513 14.3755 82.5573 13.3672C82.5513 12.515 82.7822 11.7768 83.25 11.1526C83.7238 10.5224 84.3805 10.0363 85.2201 9.69422C86.0657 9.34612 87.0402 9.17208 88.1437 9.17208C89.763 9.17208 91.0374 9.51717 91.9669 10.2074C92.9025 10.8976 93.4812 11.8308 93.7031 13.0071Z" fill="#1E2A3E" />
  <path d="M0 6.09286C0 3.00401 2.51126 0.5 5.60905 0.5H21.4691C24.5669 0.5 27.0782 3.00401 27.0782 6.09286V21.9071C27.0782 24.996 24.5669 27.5 21.4691 27.5H5.60905C2.51126 27.5 0 24.996 0 21.9071V6.09286Z" fill="#005FFF" />
  <path d="M17.4387 4.74286H20.7491V17.7064C20.7431 18.8947 20.4913 19.918 19.9935 20.7763C19.4957 21.6285 18.8 22.2857 17.9065 22.7478C17.0189 23.2039 15.9843 23.432 14.8029 23.432C13.7234 23.432 12.7518 23.2399 11.8882 22.8558C11.0306 22.4657 10.35 21.8896 9.84619 21.1274C9.34242 20.3652 9.09054 19.4169 9.09054 18.2826H12.41C12.416 18.7807 12.5239 19.2098 12.7338 19.5699C12.9497 19.93 13.2466 20.2061 13.6244 20.3982C14.0023 20.5902 14.4371 20.6862 14.9288 20.6862C15.4626 20.6862 15.9154 20.5752 16.2872 20.3532C16.659 20.1251 16.9409 19.789 17.1328 19.3449C17.3307 18.9008 17.4327 18.3546 17.4387 17.7064V4.74286Z" fill="white" />
</svg>