<svg width="28" height="29" viewBox="0 0 28 29" fill="none" xmlns="http://www.w3.org/2000/svg">
  <g clip-path="url(#clip0_630_6640)">
    <path d="M27.7977 24.6822C27.7977 26.6495 26.2026 28.2978 24.1821 28.2978L3.81775 28.2978C1.79727 28.2978 0.202148 26.7026 0.202148 24.6822L0.202148 4.31784C0.202148 2.29736 1.79727 0.70224 3.81775 0.70224L24.1821 0.70224C26.2026 0.70224 27.7977 2.29736 27.7977 4.31784L27.7977 24.6822Z" fill="#ED7518" />
    <path d="M20.7435 8.28445C20.7435 7.92965 20.4309 7.61427 20.0792 7.61427L18.1255 7.61427C17.7738 7.61427 17.4612 7.92965 17.4612 8.28445C17.4612 9.32032 16.6215 10.1767 15.5856 10.1767C15.2339 10.1767 14.9213 10.4921 14.9213 10.8469C14.9213 11.8828 14.0816 12.7392 13.0457 12.7392C12.694 12.7392 12.3814 13.0545 12.3814 13.4093C12.3814 14.4236 11.5592 15.2622 10.5449 15.2622C10.1932 15.2622 9.88065 15.5776 9.88065 15.9324C9.88065 16.9682 9.04091 17.8246 8.00505 17.8246C7.65337 17.8246 7.34078 18.14 7.34078 18.4948L7.34078 20.4659C7.34078 20.8207 7.65337 21.1361 8.00505 21.1361L20.0401 21.1361C20.3918 21.1361 20.7044 20.8207 20.7044 20.4659L20.7435 8.28445Z" fill="white" />
  </g>
  <defs>
    <clipPath id="clip0_630_6640">
      <rect x="0.202148" y="0.70224" width="27.5955" height="27.5955" rx="13.7978" fill="white" />
    </clipPath>
  </defs>
</svg>