<svg width="94" height="28" fill="none" xmlns="http://www.w3.org/2000/svg"><path d="M32.38 23.45c-1.349 0-2.518-.297-3.508-.891-.99-.594-1.757-1.426-2.302-2.494-.54-1.068-.81-2.317-.81-3.745s.27-2.68.81-3.754c.545-1.074 1.313-1.909 2.302-2.503.99-.594 2.16-.89 3.509-.89 1.35 0 2.519.296 3.508.89.99.595 1.754 1.429 2.294 2.503.546 1.074.819 2.326.819 3.754s-.273 2.677-.819 3.745c-.54 1.068-1.304 1.9-2.294 2.494-.99.594-2.159.891-3.508.891zm.019-2.61c.731 0 1.343-.202 1.835-.604.492-.408.858-.954 1.097-1.638.246-.684.37-1.447.37-2.287 0-.846-.124-1.611-.37-2.296-.24-.69-.605-1.239-1.097-1.647-.492-.408-1.104-.612-1.835-.612-.75 0-1.374.204-1.871.612-.492.408-.86.957-1.107 1.647-.24.685-.36 1.45-.36 2.296 0 .84.12 1.602.36 2.287.246.684.615 1.23 1.107 1.638.497.402 1.121.603 1.87.603zM41.91 23.18V4.743h3.256v6.896h.135a6 6 0 0 1 .71-1.071c.307-.385.72-.712 1.242-.982.522-.276 1.188-.414 1.997-.414 1.068 0 2.03.273 2.888.82.864.54 1.547 1.34 2.05 2.403.51 1.056.766 2.353.766 3.889 0 1.518-.25 2.809-.747 3.871-.498 1.062-1.175 1.873-2.033 2.43-.858.559-1.83.838-2.915.838-.791 0-1.448-.132-1.97-.396s-.941-.582-1.26-.954A6.18 6.18 0 0 1 45.302 21h-.189v2.179H41.91zm3.193-6.914c0 .894.126 1.678.378 2.35.258.672.627 1.197 1.106 1.575.486.372 1.074.558 1.764.558.72 0 1.322-.192 1.808-.576.486-.39.851-.921 1.097-1.593.252-.678.378-1.45.378-2.314 0-.858-.123-1.62-.369-2.287-.246-.666-.611-1.188-1.097-1.566-.486-.378-1.092-.567-1.817-.567-.696 0-1.287.183-1.773.549-.485.366-.854.88-1.106 1.54-.246.66-.369 1.437-.369 2.331zM63.84 23.45c-1.386 0-2.583-.288-3.59-.864a5.85 5.85 0 0 1-2.312-2.467c-.54-1.068-.81-2.326-.81-3.772 0-1.422.27-2.67.81-3.745.546-1.08 1.307-1.92 2.285-2.52.977-.607 2.126-.91 3.445-.91a6.97 6.97 0 0 1 2.411.414 5.45 5.45 0 0 1 2.015 1.26c.588.57 1.05 1.297 1.386 2.18.335.875.503 1.92.503 3.132v1H58.658V14.96h8.204c-.006-.625-.141-1.18-.405-1.666a2.945 2.945 0 0 0-1.106-1.161c-.468-.282-1.014-.423-1.638-.423-.665 0-1.25.162-1.754.486a3.349 3.349 0 0 0-1.178 1.26 3.63 3.63 0 0 0-.423 1.702v1.917c0 .805.147 1.495.44 2.07.294.571.705 1.01 1.233 1.315.528.3 1.145.45 1.853.45.474 0 .903-.066 1.287-.198.383-.138.716-.339.998-.603.282-.264.495-.591.639-.981l3.04.342a4.745 4.745 0 0 1-1.097 2.107c-.534.594-1.218 1.056-2.051 1.386-.834.324-1.787.486-2.86.486zM72.738 23.18V9.352h3.158v2.305h.144c.252-.799.683-1.414 1.295-1.846a3.563 3.563 0 0 1 2.114-.657c.18 0 .381.01.603.027.228.012.417.033.567.063v2.998a3.422 3.422 0 0 0-.657-.126 6.04 6.04 0 0 0-.855-.063c-.593 0-1.127.129-1.6.387a2.83 2.83 0 0 0-1.107 1.053c-.27.45-.405.97-.405 1.558v8.129h-3.257zM93.703 13.007l-2.969.324c-.084-.3-.23-.582-.44-.846a2.19 2.19 0 0 0-.828-.64c-.348-.161-.773-.242-1.277-.242-.678 0-1.248.147-1.71.44-.455.295-.68.676-.674 1.144-.006.402.14.73.44.982.306.252.81.459 1.512.62l2.357.505c1.307.282 2.279.729 2.914 1.341.642.612.966 1.413.972 2.404-.006.87-.26 1.638-.765 2.304-.497.66-1.19 1.177-2.078 1.549-.887.372-1.907.558-3.058.558-1.692 0-3.053-.354-4.084-1.062-1.032-.715-1.647-1.708-1.844-2.98l3.175-.306c.144.624.45 1.095.918 1.413.467.318 1.076.477 1.826.477.773 0 1.394-.159 1.862-.477.474-.318.71-.711.71-1.18 0-.395-.152-.722-.458-.98-.3-.259-.768-.457-1.404-.595l-2.356-.495c-1.326-.276-2.306-.74-2.942-1.395-.636-.66-.95-1.494-.945-2.503-.006-.852.225-1.59.693-2.214.474-.63 1.13-1.117 1.97-1.459.846-.348 1.82-.522 2.924-.522 1.619 0 2.893.345 3.823 1.035.936.69 1.514 1.624 1.736 2.8z" fill="#1E2A3E"/><path d="M0 6.093C0 3.004 2.511.5 5.609.5h15.86c3.098 0 5.61 2.504 5.61 5.593v15.814c0 3.089-2.512 5.593-5.61 5.593H5.61C2.511 27.5 0 24.996 0 21.907V6.093z" fill="#005FFF"/><path d="M17.439 4.743h3.31v12.963c-.006 1.189-.258 2.212-.755 3.07a5.052 5.052 0 0 1-2.087 1.972c-.888.456-1.923.684-3.104.684-1.08 0-2.051-.192-2.915-.576a4.75 4.75 0 0 1-2.042-1.729c-.504-.762-.755-1.71-.755-2.844h3.319c.006.498.114.927.324 1.287.216.36.513.636.89.828.378.192.813.288 1.305.288.534 0 .986-.11 1.358-.333.372-.228.654-.564.846-1.008.198-.444.3-.99.306-1.639V4.743z" fill="#fff"/></svg>