<svg width="28" height="29" viewBox="0 0 28 29" fill="none" xmlns="http://www.w3.org/2000/svg">
  <g clip-path="url(#clip0_630_6623)">
    <path d="M22.0504 0.587494H5.95039C2.71262 0.587494 0.0878906 3.21223 0.0878906 6.45V22.55C0.0878906 25.7878 2.71262 28.4125 5.95039 28.4125H22.0504C25.2882 28.4125 27.9129 25.7878 27.9129 22.55V6.45C27.9129 3.21223 25.2882 0.587494 22.0504 0.587494Z" fill="#247AF2" />
    <mask id="mask0_630_6623" style="mask-type:luminance" maskUnits="userSpaceOnUse" x="0" y="0" width="28" height="29">
      <path d="M22.0504 0.587494H5.95039C2.71262 0.587494 0.0878906 3.21223 0.0878906 6.45V22.55C0.0878906 25.7878 2.71262 28.4125 5.95039 28.4125H22.0504C25.2882 28.4125 27.9129 25.7878 27.9129 22.55V6.45C27.9129 3.21223 25.2882 0.587494 22.0504 0.587494Z" fill="white" />
    </mask>
    <g mask="url(#mask0_630_6623)">
      <g filter="url(#filter0_f_630_6623)">
        <path d="M24.4133 24.125C32.4835 24.125 39.0258 17.5827 39.0258 9.51247C39.0258 1.4422 32.4835 -5.10004 24.4133 -5.10004C16.343 -5.10004 9.80078 1.4422 9.80078 9.51247C9.80078 17.5827 16.343 24.125 24.4133 24.125Z" fill="#D48098" />
      </g>
      <path fill-rule="evenodd" clip-rule="evenodd" d="M8.75326 21.4733C10.1386 22.3551 11.7456 22.8099 13.3803 22.7913C15.0242 22.7635 16.6128 22.2623 17.9796 21.3526C19.3373 20.4337 20.3994 19.1435 21.0459 17.6306C21.6924 16.1176 21.8771 14.4561 21.6 12.8318C21.3137 11.2167 20.5656 9.71301 19.4573 8.50635C18.3398 7.30897 16.8991 6.45503 15.3105 6.0559C13.722 5.66606 12.0504 5.74032 10.4988 6.27867C8.95644 6.81703 7.59881 7.80092 6.59213 9.1004C5.44691 10.5855 4.82812 12.247 4.82812 15.5235V27.5344H8.75326V21.4733ZM8.75326 14.2983C8.75326 15.4307 9.16886 16.5167 9.92618 17.3521C10.6835 18.1875 11.7179 18.7165 12.8354 18.8279C13.9529 18.9393 15.0797 18.633 15.9847 17.9554C16.8806 17.2871 17.5086 16.2939 17.7303 15.1894C17.9427 14.0848 17.7487 12.9339 17.1669 11.9685C16.5943 10.9939 15.68 10.2792 14.5994 9.94506C13.5281 9.62019 12.3644 9.70373 11.3485 10.1864C10.3326 10.6691 9.52905 11.5137 9.10421 12.5626C8.87332 13.1102 8.75326 13.7043 8.75326 14.2983Z" fill="white" />
    </g>
  </g>
  <defs>
    <filter id="filter0_f_630_6623" x="0.134114" y="-14.7667" width="48.5579" height="48.5583" filterUnits="userSpaceOnUse" color-interpolation-filters="sRGB">
      <feFlood flood-opacity="0" result="BackgroundImageFix" />
      <feBlend mode="normal" in="SourceGraphic" in2="BackgroundImageFix" result="shape" />
      <feGaussianBlur stdDeviation="4.83333" result="effect1_foregroundBlur_630_6623" />
    </filter>
    <clipPath id="clip0_630_6623">
      <rect y="0.5" width="28" height="28" rx="14" fill="white" />
    </clipPath>
  </defs>
</svg>