<svg width="28" height="29" fill="none" xmlns="http://www.w3.org/2000/svg"><rect x=".202" y=".702" width="27.596" height="27.596" rx="13.798" fill="#fff"/><path d="M14.37 20.782c.989-2.806 3.388-5.01 6.423-5.94.211-.065.317-.277.247-.456a.337.337 0 0 0-.247-.229c-3.053-.914-5.434-3.117-6.422-5.94a.396.396 0 0 0-.495-.228.337.337 0 0 0-.246.229c-1.006 2.822-3.388 5.025-6.423 5.94-.211.065-.317.277-.247.456a.337.337 0 0 0 .247.228c3.035.914 5.417 3.117 6.423 5.94.07.196.3.294.493.229a.412.412 0 0 0 .248-.229z" fill="url(#a)"/><path opacity=".8" d="M7.207 14.843c3.035.914 5.417 3.116 6.422 5.94.07.195.3.293.494.228a.337.337 0 0 0 .247-.229c.988-2.806 3.388-5.01 6.422-5.94-1.446.441-3.881.784-6.792.784s-5.364-.343-6.793-.783z" fill="url(#b)"/><defs><radialGradient id="a" cx="0" cy="0" r="1" gradientUnits="userSpaceOnUse" gradientTransform="matrix(15.7423 0 0 14.5594 20.652 7.698)"><stop offset=".228" stop-color="#00FFFE"/><stop offset=".305" stop-color="#11F3FE"/><stop offset=".457" stop-color="#3ED3FE"/><stop offset=".671" stop-color="#86A0FF"/><stop offset=".935" stop-color="#E95AFF"/><stop offset=".953" stop-color="#F055FF"/></radialGradient><radialGradient id="b" cx="0" cy="0" r="1" gradientUnits="userSpaceOnUse" gradientTransform="matrix(8.89612 0 0 8.22763 18.766 15.373)"><stop stop-color="#053BF2"/><stop offset=".091" stop-color="#0F3CF3" stop-opacity=".909"/><stop offset=".247" stop-color="#2B3FF4" stop-opacity=".753"/><stop offset=".449" stop-color="#5844F7" stop-opacity=".551"/><stop offset=".69" stop-color="#964BFA" stop-opacity=".31"/><stop offset=".961" stop-color="#E454FE" stop-opacity=".039"/><stop offset="1" stop-color="#F055FF" stop-opacity="0"/></radialGradient></defs></svg>