<svg width="24" height="9" viewBox="0 0 24 9" fill="none" xmlns="http://www.w3.org/2000/svg">
  <path d="M6.69705 4.95078H4.20989V7.60244H3.00105V4.95078H0.5V3.91884H3.00105V1.37168H4.20989V3.91884H6.69705V4.95078Z" fill="#005FFF" />
  <path d="M11.5728 9.00012C8.75216 9.00012 7.57111 6.96239 7.57111 4.50665C7.57111 1.86805 9.15511 0.00012207 11.8924 0.00012207C13.0178 0.00012207 13.9627 0.365869 14.6296 0.901428L13.7404 2.32523C13.2402 1.88111 12.7122 1.64599 11.8924 1.64599C10.5307 1.64599 9.57195 2.73017 9.57195 4.11478C9.57195 4.18009 9.57195 4.23234 9.58585 4.29765C10.0166 3.70985 10.9475 3.17429 11.9618 3.17429C13.6292 3.17429 15.1159 4.15397 15.1159 6.00883C15.1159 7.70694 13.6848 9.00012 11.5728 9.00012ZM11.4616 7.35426C12.5315 7.35426 13.1151 6.68808 13.1151 6.07414C13.1151 5.15977 12.2814 4.7679 11.3922 4.7679C10.6974 4.7679 10.0305 5.06834 9.58585 5.59083C9.66921 6.42683 10.1694 7.35426 11.4616 7.35426Z" fill="#005FFF" />
  <path d="M22.3051 8.84337H20.332V7.04076H15.8996V5.57777L19.5817 0.130746H22.3051V5.40796H23.5V7.04076H22.3051V8.84337ZM20.332 5.40796V1.77661L17.831 5.40796H20.332Z" fill="#005FFF" />
</svg>