<svg width="28" height="29" viewBox="0 0 28 29" fill="none" xmlns="http://www.w3.org/2000/svg">
  <rect x="0.202148" y="0.70224" width="27.5955" height="27.5955" rx="13.7978" fill="#F1BA36" />
  <path d="M8.74337 19.917C8.42438 19.5539 8.39567 19.2386 8.65724 18.9711L9.57592 18.0253C9.84387 17.7451 10.1948 17.7992 10.6286 18.1877C10.9348 18.4616 11.3271 18.7355 11.8056 19.0094C12.2841 19.2832 12.9157 19.4202 13.7004 19.4202C14.4468 19.4202 15.1039 19.2832 15.6717 19.0094C16.2459 18.7355 16.533 18.1973 16.533 17.3948C16.533 16.5923 16.2937 16.0382 15.8153 15.7324C15.3432 15.4267 14.7148 15.2739 13.9301 15.2739H12.3415C11.863 15.2739 11.6238 15.0732 11.6238 14.672V13.6402C11.6238 13.2262 11.863 13.0192 12.3415 13.0192H13.5281C14.6063 13.0192 15.3208 12.8504 15.6717 12.5128C16.0226 12.1753 16.198 11.739 16.198 11.204C16.198 10.6499 15.9971 10.2422 15.5952 9.9811C15.1996 9.71359 14.568 9.57984 13.7004 9.57984C13.0305 9.57984 12.4436 9.68493 11.9396 9.89511C11.442 10.0989 11.0688 10.3155 10.82 10.5448C10.4053 10.9205 10.0512 10.9492 9.75774 10.6307L8.96347 9.76136C8.66362 9.43653 8.70509 9.11808 9.08787 8.80599C9.7705 8.24551 10.4882 7.86017 11.241 7.64999C12.0002 7.43344 12.8519 7.32516 13.7961 7.32516C15.5186 7.32516 16.8201 7.65636 17.7005 8.31875C18.5872 8.98114 19.0306 9.84734 19.0306 10.9174C19.0306 11.8345 18.7818 12.5383 18.2842 13.0287C17.793 13.5128 17.1869 13.844 16.466 14.0223V14.0605C17.2635 14.1433 17.9716 14.5 18.5904 15.1305C19.2093 15.7611 19.5187 16.57 19.5187 17.5572C19.5187 18.8438 19.0019 19.8533 17.9684 20.5857C16.9413 21.3118 15.5027 21.6748 13.6525 21.6748C12.3383 21.6748 11.3112 21.522 10.5712 21.2163C9.83749 20.9042 9.22823 20.4711 8.74337 19.917Z" fill="black" />
</svg>