<svg width="104" height="30" fill="none" xmlns="http://www.w3.org/2000/svg"><path d="M35.826 25.5c-1.493 0-2.787-.33-3.882-.99-1.095-.66-1.944-1.584-2.548-2.771-.597-1.187-.896-2.574-.896-4.161 0-1.587.299-2.978.896-4.171.604-1.194 1.453-2.12 2.548-2.781 1.095-.66 2.389-.99 3.882-.99 1.492 0 2.786.33 3.881.99 1.095.66 1.941 1.587 2.538 2.78.604 1.194.906 2.585.906 4.172 0 1.587-.302 2.974-.906 4.161-.597 1.187-1.443 2.11-2.538 2.77-1.095.66-2.389.991-3.881.991zm.02-2.9c.809 0 1.486-.224 2.03-.671.544-.453.949-1.06 1.214-1.82.272-.76.408-1.608.408-2.541 0-.94-.136-1.79-.408-2.55-.265-.768-.67-1.378-1.214-1.831-.544-.454-1.221-.68-2.03-.68-.83 0-1.52.226-2.07.68-.545.453-.953 1.063-1.225 1.83-.265.76-.398 1.61-.398 2.55 0 .934.133 1.781.398 2.541.272.76.68 1.368 1.224 1.821.551.447 1.241.67 2.07.67zM46.368 25.2V4.714h3.603v7.662h.15c.185-.373.447-.77.786-1.19.338-.427.796-.79 1.373-1.09.577-.307 1.314-.46 2.21-.46 1.18 0 2.246.303 3.194.91.956.6 1.712 1.49 2.27 2.67.564 1.174.846 2.615.846 4.322 0 1.687-.276 3.12-.826 4.301-.551 1.18-1.3 2.08-2.25 2.7-.948.62-2.023.931-3.224.931-.876 0-1.603-.147-2.18-.44-.577-.294-1.042-.647-1.394-1.06a6.868 6.868 0 0 1-.806-1.19h-.209v2.42h-3.543zm3.533-7.682c0 .993.14 1.864.418 2.61.286.747.694 1.33 1.225 1.751.537.413 1.187.62 1.95.62.797 0 1.463-.213 2-.64.538-.434.943-1.024 1.215-1.77.279-.754.418-1.61.418-2.571 0-.954-.136-1.8-.408-2.54-.272-.741-.677-1.321-1.214-1.741-.538-.42-1.208-.63-2.01-.63-.77 0-1.424.203-1.961.61-.538.406-.946.977-1.225 1.71-.272.734-.408 1.597-.408 2.59zM70.63 25.5c-1.532 0-2.856-.32-3.97-.96-1.109-.647-1.961-1.56-2.558-2.741-.598-1.187-.896-2.584-.896-4.191 0-1.58.298-2.968.896-4.161.603-1.2 1.446-2.134 2.528-2.801 1.081-.674 2.352-1.01 3.812-1.01.942 0 1.83.153 2.667.46.843.3 1.586.767 2.23 1.4.65.634 1.16 1.44 1.532 2.42.372.974.557 2.135.557 3.482v1.11h-12.53v-2.44h9.077c-.007-.694-.156-1.311-.448-1.851a3.266 3.266 0 0 0-1.224-1.29c-.518-.314-1.122-.47-1.812-.47-.736 0-1.383.18-1.94.54-.558.353-.993.82-1.304 1.4a4.045 4.045 0 0 0-.468 1.89v2.131c0 .894.162 1.66.488 2.3a3.49 3.49 0 0 0 1.363 1.461c.584.334 1.267.5 2.05.5.525 0 .999-.073 1.424-.22a3.155 3.155 0 0 0 1.104-.67c.312-.293.548-.657.707-1.09l3.364.38a5.28 5.28 0 0 1-1.214 2.34c-.59.66-1.347 1.174-2.27 1.54-.922.361-1.977.541-3.164.541zM80.477 25.2V9.836h3.493v2.56h.16c.278-.887.756-1.57 1.432-2.05.684-.487 1.463-.73 2.34-.73.198 0 .42.01.666.03.252.013.461.036.627.07v3.33c-.152-.053-.395-.1-.726-.14a6.664 6.664 0 0 0-.946-.07c-.657 0-1.247.144-1.772.43-.517.28-.925.67-1.224 1.171-.298.5-.448 1.077-.448 1.73V25.2h-3.602zM103.672 13.897l-3.285.36a2.652 2.652 0 0 0-.488-.94 2.422 2.422 0 0 0-.915-.71c-.385-.18-.856-.27-1.413-.27-.75 0-1.38.163-1.892.49-.504.326-.753.75-.746 1.27-.007.447.156.81.488 1.09.338.28.895.51 1.672.69l2.607.56c1.447.314 2.522.81 3.225 1.49.71.681 1.068 1.571 1.075 2.672-.007.967-.289 1.82-.846 2.56-.551.734-1.317 1.307-2.299 1.72-.982.414-2.11.621-3.384.621-1.871 0-3.377-.393-4.519-1.18-1.14-.794-1.821-1.898-2.04-3.311l3.513-.34c.16.693.498 1.217 1.016 1.57.517.354 1.19.53 2.02.53.856 0 1.543-.176 2.06-.53.524-.353.786-.79.786-1.31 0-.44-.169-.804-.507-1.09-.332-.287-.85-.507-1.553-.66l-2.607-.55c-1.467-.308-2.552-.824-3.255-1.551-.703-.734-1.052-1.66-1.045-2.781-.007-.947.249-1.767.766-2.46.525-.7 1.251-1.241 2.18-1.621.936-.387 2.014-.58 3.235-.58 1.791 0 3.201.383 4.23 1.15 1.035.767 1.675 1.804 1.921 3.11z" fill="#1E2A3E"/><path d="M0 6.214A6.21 6.21 0 0 1 6.206 0h17.547a6.21 6.21 0 0 1 6.206 6.214v17.572A6.21 6.21 0 0 1 23.753 30H6.206A6.21 6.21 0 0 1 0 23.786V6.214z" fill="#005FFF"/><path d="M19.294 4.714h3.662v14.404c-.006 1.32-.285 2.458-.836 3.411a5.599 5.599 0 0 1-2.309 2.19c-.982.508-2.126.761-3.433.761-1.195 0-2.27-.213-3.225-.64a5.26 5.26 0 0 1-2.26-1.92c-.557-.848-.835-1.901-.835-3.162h3.672c.007.554.126 1.03.358 1.43.24.4.568.708.986.921.418.213.899.32 1.443.32.59 0 1.091-.123 1.503-.37.411-.253.723-.627.935-1.12.22-.494.332-1.1.339-1.82V4.713z" fill="#fff"/></svg>