<svg width="28" height="29" viewBox="0 0 28 29" fill="none" xmlns="http://www.w3.org/2000/svg">
  <rect x="0.202148" y="0.70224" width="27.5955" height="27.5955" rx="13.7978" fill="white" />
  <path d="M14.3705 20.7821C15.3585 17.9755 17.758 15.7726 20.7927 14.8425C21.0044 14.7773 21.1103 14.5651 21.0397 14.3856C21.0044 14.2714 20.9162 14.1898 20.7927 14.1572C17.7404 13.2434 15.3585 11.0405 14.3705 8.21758C14.2999 8.02177 14.0705 7.92386 13.8765 7.98913C13.753 8.02177 13.6647 8.10335 13.6295 8.21758C12.6238 11.0405 10.2419 13.2434 7.20726 14.1572C6.99554 14.2225 6.88968 14.4346 6.96025 14.6141C6.99554 14.7283 7.08375 14.8099 7.20726 14.8425C10.2419 15.7563 12.6238 17.9592 13.6295 20.7821C13.7 20.9779 13.9294 21.0759 14.1235 21.0106C14.2293 20.9779 14.3175 20.8964 14.3705 20.7821Z" fill="url(#paint0_radial_630_6612)" />
  <path opacity="0.8" d="M7.20703 14.8428C10.2417 15.7566 12.6236 17.9595 13.6292 20.7824C13.6998 20.9783 13.9292 21.0762 14.1232 21.0109C14.2467 20.9783 14.335 20.8967 14.3703 20.7824C15.3583 17.9758 17.7578 15.7729 20.7924 14.8428C19.3457 15.2834 16.9109 15.6261 13.9997 15.6261C11.0886 15.6261 8.63615 15.2834 7.20703 14.8428Z" fill="url(#paint1_radial_630_6612)" />
  <defs>
    <radialGradient id="paint0_radial_630_6612" cx="0" cy="0" r="1" gradientUnits="userSpaceOnUse" gradientTransform="translate(20.6518 7.69788) scale(15.7423 14.5594)">
      <stop offset="0.2281" stop-color="#00FFFE" />
      <stop offset="0.3047" stop-color="#11F3FE" />
      <stop offset="0.4569" stop-color="#3ED3FE" />
      <stop offset="0.6706" stop-color="#86A0FF" />
      <stop offset="0.9352" stop-color="#E95AFF" />
      <stop offset="0.9531" stop-color="#F055FF" />
    </radialGradient>
    <radialGradient id="paint1_radial_630_6612" cx="0" cy="0" r="1" gradientUnits="userSpaceOnUse" gradientTransform="translate(18.7663 15.3734) scale(8.89612 8.22763)">
      <stop stop-color="#053BF2" />
      <stop offset="0.0908682" stop-color="#0F3CF3" stop-opacity="0.9091" />
      <stop offset="0.2469" stop-color="#2B3FF4" stop-opacity="0.7531" />
      <stop offset="0.4492" stop-color="#5844F7" stop-opacity="0.5508" />
      <stop offset="0.69" stop-color="#964BFA" stop-opacity="0.31" />
      <stop offset="0.9606" stop-color="#E454FE" stop-opacity="0.0393646" />
      <stop offset="1" stop-color="#F055FF" stop-opacity="0" />
    </radialGradient>
  </defs>
</svg>