<svg width="28" height="29" fill="none" xmlns="http://www.w3.org/2000/svg"><rect x=".202" y=".702" width="27.596" height="27.596" rx="13.798" fill="#00AF8F"/><path d="M11.187 8.889c-2.851 0-4.317 1.512-4.317 3.206 0 1.71 1.08 2.541 3.077 3.025l1.45.348c1.434.348 2.094.665 2.094 1.391 0 1.014-1.16 1.377-2.143 1.377-1.627 0-2.578-.666-3.173-1.573l-1.902.983C7.288 19.4 9.157 20.11 11.06 20.11c2.03 0 4.672-.802 4.672-3.448 0-2.057-1.74-2.722-3.529-3.13l-1.191-.273c-1.209-.272-1.918-.605-1.918-1.285 0-1.135 1.482-1.286 1.966-1.286 1.788 0 2.384 1.043 2.69 1.543l1.87-1.044c-1.355-2.026-3.417-2.3-4.432-2.3zM19.638 9.062v6.999c0 1.101-.065 1.976-1.703 1.976-.322 0-.547-.03-1.125-.15v1.915c.627.136 1.044.136 1.318.136 3.261 0 3.599-1.84 3.599-3.394V9.062h-2.09z" fill="#fff"/></svg>