<svg width="28" height="29" fill="none" xmlns="http://www.w3.org/2000/svg"><g clip-path="url(#a)"><path d="M22.05.587H5.95A5.863 5.863 0 0 0 .088 6.45v16.1a5.862 5.862 0 0 0 5.862 5.863h16.1a5.862 5.862 0 0 0 5.863-5.863V6.45A5.862 5.862 0 0 0 22.05.587z" fill="#247AF2"/><mask id="b" style="mask-type:luminance" maskUnits="userSpaceOnUse" x="0" y="0" width="28" height="29"><path d="M22.05.587H5.95A5.863 5.863 0 0 0 .088 6.45v16.1a5.862 5.862 0 0 0 5.862 5.863h16.1a5.862 5.862 0 0 0 5.863-5.863V6.45A5.862 5.862 0 0 0 22.05.587z" fill="#fff"/></mask><g mask="url(#b)"><g filter="url(#c)"><path d="M24.413 24.125c8.07 0 14.613-6.542 14.613-14.613 0-8.07-6.543-14.612-14.613-14.612S9.801 1.442 9.801 9.512s6.542 14.613 14.612 14.613z" fill="#D48098"/></g><path fill-rule="evenodd" clip-rule="evenodd" d="M8.753 21.473a8.434 8.434 0 0 0 4.627 1.318 8.547 8.547 0 0 0 4.6-1.438 8.54 8.54 0 0 0 3.066-3.722 8.536 8.536 0 0 0 .554-4.8 8.634 8.634 0 0 0-2.143-4.325 8.517 8.517 0 0 0-4.147-2.45 8.5 8.5 0 0 0-4.811.223A8.493 8.493 0 0 0 6.592 9.1c-1.145 1.486-1.764 3.147-1.764 6.424v12.01h3.925v-6.06zm0-7.175c0 1.133.416 2.219 1.173 3.054a4.538 4.538 0 0 0 2.91 1.476 4.51 4.51 0 0 0 3.149-.873 4.592 4.592 0 0 0 1.745-2.766 4.571 4.571 0 0 0-.563-3.22 4.51 4.51 0 0 0-2.568-2.024 4.528 4.528 0 0 0-3.25.241 4.504 4.504 0 0 0-2.245 2.377 4.483 4.483 0 0 0-.35 1.735z" fill="#fff"/></g></g><defs><clipPath id="a"><rect y=".5" width="28" height="28" rx="14" fill="#fff"/></clipPath><filter id="c" x=".134" y="-14.767" width="48.558" height="48.558" filterUnits="userSpaceOnUse" color-interpolation-filters="sRGB"><feFlood flood-opacity="0" result="BackgroundImageFix"/><feBlend in="SourceGraphic" in2="BackgroundImageFix" result="shape"/><feGaussianBlur stdDeviation="4.833" result="effect1_foregroundBlur_630_6623"/></filter></defs></svg>