<svg width="28" height="29" viewBox="0 0 28 29" fill="none" xmlns="http://www.w3.org/2000/svg">
  <path d="M14 28.5C21.732 28.5 28 22.232 28 14.5C28 6.76801 21.732 0.5 14 0.5C6.26801 0.5 0 6.76801 0 14.5C0 22.232 6.26801 28.5 14 28.5Z" fill="#37BBFE" />
  <path d="M20.9866 8.7088C21.1112 7.90332 20.3454 7.26755 19.6292 7.582L5.36482 13.8448C4.85123 14.0703 4.8888 14.8483 5.42147 15.0179L8.3631 15.9547C8.9246 16.1335 9.5325 16.041 10.0228 15.7023L16.655 11.1203C16.855 10.9821 17.073 11.2665 16.9021 11.4426L12.1281 16.3646C11.665 16.8421 11.7569 17.6512 12.314 18.0005L17.659 21.3523C18.2585 21.7282 19.0297 21.3506 19.1418 20.6261L20.9866 8.7088Z" fill="white" />
</svg>