<svg width="28" height="29" viewBox="0 0 28 29" fill="none" xmlns="http://www.w3.org/2000/svg">
  <rect x="0.202148" y="0.70224" width="27.5955" height="27.5955" rx="13.7978" fill="#00AF8F" />
  <path d="M11.1872 8.88885C8.3357 8.88885 6.8697 10.401 6.8697 12.095C6.8697 13.8041 7.94921 14.6363 9.94716 15.1199L11.3969 15.468C12.8311 15.8155 13.4911 16.1334 13.4911 16.8591C13.4911 17.8726 12.331 18.2357 11.3483 18.2357C9.72116 18.2357 8.77027 17.5697 8.17461 16.6628L6.27344 17.6456C7.28804 19.3998 9.15736 20.111 11.0585 20.111C13.0889 20.111 15.7306 19.3095 15.7306 16.6628C15.7306 14.6062 13.9905 13.9408 12.2024 13.5325L11.0105 13.2603C9.8023 12.9881 9.09305 12.6551 9.09305 11.9745C9.09305 10.84 10.5753 10.6888 11.0585 10.6888C12.8467 10.6888 13.443 11.7325 13.7489 12.2317L15.6182 11.1881C14.264 9.16161 12.2024 8.88885 11.1872 8.88885Z" fill="white" />
  <path d="M19.6376 9.06175V16.0609C19.6376 17.162 19.5733 18.0372 17.9348 18.0372C17.6132 18.0372 17.3884 18.007 16.8102 17.8865V19.802C17.4365 19.9381 17.8542 19.9381 18.1277 19.9381C21.3891 19.9381 21.7269 18.098 21.7269 16.5439V9.06175H19.6376Z" fill="white" />
</svg>