<svg width="104" height="30" viewBox="0 0 104 30" fill="none" xmlns="http://www.w3.org/2000/svg">
  <path d="M35.8256 25.5C34.3326 25.5 33.0388 25.1699 31.944 24.5097C30.8491 23.8495 29.9998 22.926 29.396 21.739C28.7989 20.552 28.5003 19.1649 28.5003 17.5778C28.5003 15.9907 28.7989 14.6003 29.396 13.4067C29.9998 12.213 30.8491 11.2861 31.944 10.6259C33.0388 9.96573 34.3326 9.63564 35.8256 9.63564C37.3185 9.63564 38.6124 9.96573 39.7072 10.6259C40.802 11.2861 41.648 12.213 42.2451 13.4067C42.8489 14.6003 43.1509 15.9907 43.1509 17.5778C43.1509 19.1649 42.8489 20.552 42.2451 21.739C41.648 22.926 40.802 23.8495 39.7072 24.5097C38.6124 25.1699 37.3185 25.5 35.8256 25.5ZM35.8455 22.5992C36.655 22.5992 37.3318 22.3758 37.8759 21.929C38.4199 21.4756 38.8247 20.8687 39.0901 20.1085C39.3621 19.3483 39.4982 18.5014 39.4982 17.5678C39.4982 16.6276 39.3621 15.7773 39.0901 15.0171C38.8247 14.2502 38.4199 13.6401 37.8759 13.1866C37.3318 12.7332 36.655 12.5064 35.8455 12.5064C35.0161 12.5064 34.326 12.7332 33.7753 13.1866C33.2312 13.6401 32.8231 14.2502 32.5511 15.0171C32.2857 15.7773 32.153 16.6276 32.153 17.5678C32.153 18.5014 32.2857 19.3483 32.5511 20.1085C32.8231 20.8687 33.2312 21.4756 33.7753 21.929C34.326 22.3758 35.0161 22.5992 35.8455 22.5992Z" fill="#1E2A3E" />
  <path d="M46.3681 25.1999V4.71429H49.971V12.3764H50.1203C50.3061 12.003 50.5682 11.6062 50.9066 11.1861C51.245 10.7593 51.7028 10.3958 52.2801 10.0958C52.8573 9.78901 53.5939 9.63564 54.4896 9.63564C55.6707 9.63564 56.7356 9.93906 57.6845 10.5459C58.6399 11.1461 59.3964 12.0363 59.9537 13.2166C60.5177 14.3903 60.7997 15.8307 60.7997 17.5378C60.7997 19.2249 60.5243 20.6587 59.9736 21.839C59.4229 23.0193 58.6731 23.9196 57.7243 24.5397C56.7755 25.1599 55.7005 25.47 54.4996 25.47C53.6237 25.47 52.8972 25.3233 52.3199 25.0299C51.7426 24.7365 51.2782 24.383 50.9265 23.9696C50.5815 23.5495 50.3127 23.1527 50.1203 22.7793H49.9113V25.1999H46.3681ZM49.9014 17.5178C49.9014 18.5114 50.0407 19.3817 50.3194 20.1285C50.6047 20.8754 51.0128 21.4589 51.5436 21.879C52.081 22.2925 52.7313 22.4992 53.4943 22.4992C54.2906 22.4992 54.9574 22.2858 55.4949 21.859C56.0323 21.4255 56.4371 20.8354 56.7091 20.0885C56.9878 19.335 57.1271 18.4781 57.1271 17.5178C57.1271 16.5642 56.9911 15.7173 56.7191 14.9771C56.447 14.2369 56.0423 13.6567 55.5048 13.2366C54.9674 12.8165 54.2972 12.6065 53.4943 12.6065C52.7246 12.6065 52.0711 12.8098 51.5336 13.2166C50.9962 13.6234 50.5881 14.1936 50.3094 14.9271C50.0374 15.6606 49.9014 16.5242 49.9014 17.5178Z" fill="#1E2A3E" />
  <path d="M70.6306 25.5C69.0979 25.5 67.7742 25.1799 66.6594 24.5397C65.5514 23.8929 64.6987 22.9793 64.1016 21.799C63.5044 20.612 63.2058 19.2149 63.2058 17.6078C63.2058 16.0274 63.5044 14.6403 64.1016 13.4467C64.7054 12.2464 65.548 11.3128 66.6296 10.6459C67.7111 9.9724 68.9818 9.63564 70.4415 9.63564C71.3837 9.63564 72.2729 9.78901 73.1089 10.0958C73.9516 10.3958 74.6947 10.8626 75.3383 11.4962C75.9886 12.1297 76.4995 12.9365 76.8711 13.9168C77.2426 14.8904 77.4284 16.0507 77.4284 17.3978V18.5081H64.8978V16.0674H73.9748C73.9681 15.3739 73.8189 14.757 73.5269 14.2169C73.235 13.6701 72.8269 13.24 72.3027 12.9265C71.7852 12.6131 71.1814 12.4564 70.4913 12.4564C69.7548 12.4564 69.1078 12.6365 68.5505 12.9966C67.9931 13.35 67.5585 13.8168 67.2467 14.3969C66.9414 14.9704 66.7855 15.6006 66.7789 16.2875V18.4181C66.7789 19.3116 66.9414 20.0785 67.2666 20.7187C67.5917 21.3522 68.0462 21.839 68.6301 22.1791C69.214 22.5125 69.8974 22.6792 70.6804 22.6792C71.2046 22.6792 71.679 22.6059 72.1036 22.4592C72.5283 22.3058 72.8966 22.0824 73.2084 21.789C73.5203 21.4956 73.7558 21.1321 73.9151 20.6987L77.2791 21.0788C77.0668 21.9724 76.662 22.7526 76.0649 23.4194C75.4743 24.0796 74.7179 24.5931 73.7956 24.9599C72.8733 25.32 71.8183 25.5 70.6306 25.5Z" fill="#1E2A3E" />
  <path d="M80.4765 25.1999V9.83569H83.9699V12.3964H84.1292C84.4078 11.5095 84.8856 10.826 85.5624 10.3458C86.2458 9.85903 87.0254 9.61563 87.9013 9.61563C88.1003 9.61563 88.3226 9.62564 88.5681 9.64564C88.8203 9.65898 89.0293 9.68232 89.1952 9.71566V13.0466C89.0425 12.9932 88.8004 12.9465 88.4686 12.9065C88.1435 12.8599 87.8283 12.8365 87.5231 12.8365C86.8662 12.8365 86.2757 12.9799 85.7515 13.2666C85.2339 13.5467 84.8259 13.9368 84.5273 14.437C84.2287 14.9371 84.0794 15.5139 84.0794 16.1674V25.1999H80.4765Z" fill="#1E2A3E" />
  <path d="M103.672 13.8968L100.387 14.2569C100.294 13.9235 100.132 13.6101 99.8994 13.3167C99.6738 13.0232 99.3686 12.7865 98.9838 12.6065C98.5989 12.4264 98.1278 12.3364 97.5705 12.3364C96.8207 12.3364 96.1903 12.4998 95.6794 12.8265C95.1751 13.1533 94.9263 13.5767 94.933 14.0969C94.9263 14.5437 95.0889 14.9071 95.4207 15.1872C95.759 15.4672 96.3164 15.6973 97.0927 15.8774L99.7004 16.4375C101.147 16.7509 102.222 17.2477 102.925 17.9279C103.635 18.6081 103.993 19.4984 104 20.5987C103.993 21.5656 103.711 22.4192 103.154 23.1594C102.603 23.8929 101.837 24.4664 100.855 24.8798C99.8729 25.2933 98.7449 25.5 97.4709 25.5C95.5998 25.5 94.0936 25.1066 92.9524 24.3197C91.8111 23.5261 91.131 22.4225 90.912 21.0088L94.4254 20.6687C94.5846 21.3622 94.923 21.8857 95.4406 22.2391C95.9581 22.5925 96.6316 22.7693 97.461 22.7693C98.3169 22.7693 99.0037 22.5925 99.5212 22.2391C100.045 21.8857 100.307 21.4489 100.307 20.9287C100.307 20.4886 100.138 20.1252 99.7999 19.8384C99.4681 19.5517 98.9506 19.3316 98.2473 19.1783L95.6396 18.6281C94.1732 18.3214 93.0884 17.8046 92.385 17.0777C91.6817 16.3442 91.3334 15.4172 91.34 14.2969C91.3334 13.35 91.5888 12.5298 92.1064 11.8362C92.6305 11.1361 93.3571 10.5959 94.286 10.2158C95.2216 9.82903 96.2998 9.63564 97.5207 9.63564C99.3122 9.63564 100.722 10.0191 101.751 10.786C102.786 11.5528 103.426 12.5898 103.672 13.8968Z" fill="#1E2A3E" />
  <path d="M0 6.21428C0 2.78223 2.77841 0 6.20576 0H23.7531C27.1804 0 29.9588 2.78223 29.9588 6.21429V23.7857C29.9588 27.2178 27.1804 30 23.7531 30H6.20576C2.77841 30 0 27.2178 0 23.7857V6.21428Z" fill="#005FFF" />
  <path d="M19.2938 4.71429H22.9565V19.1182C22.9499 20.4386 22.6712 21.5756 22.1204 22.5292C21.5697 23.4761 20.8 24.2063 19.8114 24.7198C18.8294 25.2266 17.6848 25.48 16.3777 25.48C15.1833 25.48 14.1084 25.2666 13.1529 24.8398C12.2041 24.4064 11.451 23.7662 10.8937 22.9193C10.3363 22.0724 10.0576 21.0188 10.0576 19.7584H13.7302C13.7368 20.3119 13.8563 20.7887 14.0885 21.1888C14.3274 21.5889 14.6558 21.8957 15.0738 22.1091C15.4919 22.3225 15.9729 22.4292 16.517 22.4292C17.1075 22.4292 17.6085 22.3058 18.0199 22.0591C18.4313 21.8057 18.7431 21.4322 18.9554 20.9387C19.1744 20.4453 19.2872 19.8384 19.2938 19.1182V4.71429Z" fill="white" />
</svg>