<svg width="28" height="29" fill="none" xmlns="http://www.w3.org/2000/svg"><rect x=".202" y=".702" width="27.596" height="27.596" rx="13.798" fill="#F1BA36"/><path d="M8.743 19.917c-.319-.363-.347-.678-.086-.946l.919-.946c.268-.28.619-.226 1.053.163.306.274.698.547 1.177.821.478.274 1.11.411 1.894.411.747 0 1.404-.137 1.972-.41.574-.275.861-.813.861-1.615 0-.803-.24-1.357-.718-1.663-.472-.305-1.1-.458-1.885-.458h-1.588c-.479 0-.718-.2-.718-.602V13.64c0-.414.239-.62.717-.62h1.187c1.078 0 1.793-.17 2.144-.507.35-.338.526-.774.526-1.309 0-.554-.2-.962-.603-1.223-.395-.267-1.027-.401-1.895-.401-.67 0-1.256.105-1.76.315-.498.204-.871.42-1.12.65-.415.376-.769.404-1.062.086l-.795-.87c-.3-.324-.258-.643.125-.955.683-.56 1.4-.946 2.153-1.156.76-.217 1.61-.325 2.555-.325 1.723 0 3.024.331 3.905.994.886.662 1.33 1.528 1.33 2.598 0 .918-.25 1.621-.747 2.112-.491.484-1.097.815-1.818.993v.038c.797.083 1.506.44 2.124 1.07.62.631.929 1.44.929 2.427 0 1.287-.517 2.296-1.55 3.029-1.028.726-2.466 1.089-4.317 1.089-1.314 0-2.34-.153-3.08-.459a4.972 4.972 0 0 1-1.829-1.299z" fill="#000"/></svg>