<svg width="24" height="9" fill="none" xmlns="http://www.w3.org/2000/svg"><path d="M6.697 4.95H4.21v2.652H3V4.951H.5V3.919h2.501V1.372H4.21v2.547h2.487V4.95zM11.573 9C8.753 9 7.57 6.962 7.57 4.507 7.571 1.868 9.155 0 11.892 0c1.126 0 2.07.366 2.738.901l-.89 1.424c-.5-.444-1.028-.679-1.848-.679-1.361 0-2.32 1.084-2.32 2.469 0 .065 0 .117.014.183.43-.588 1.361-1.124 2.376-1.124 1.667 0 3.154.98 3.154 2.835C15.116 7.707 13.685 9 11.573 9zm-.111-1.646c1.07 0 1.653-.666 1.653-1.28 0-.914-.834-1.306-1.723-1.306-.695 0-1.361.3-1.806.823.083.836.583 1.763 1.876 1.763zM22.305 8.843h-1.973V7.041H15.9V5.578L19.582.13h2.723v5.277H23.5v1.633h-1.195v1.802zm-1.973-3.435V1.777l-2.501 3.631h2.501z" fill="#005FFF"/></svg>