<svg width="28" height="29" fill="none" xmlns="http://www.w3.org/2000/svg"><g filter="url(#a)"><rect x=".202" y=".702" width="27.596" height="27.596" rx="13.798" fill="#fff"/><path d="M13.066 10.205c0 1.896-1.664 3.433-3.718 3.433-2.054 0-3.72-1.537-3.72-3.433 0-1.895 1.666-3.432 3.72-3.432 2.054 0 3.718 1.537 3.718 3.432z" fill="#0AF"/><path d="M22.37 18.051c0 2.307-2.026 4.176-4.524 4.176s-4.522-1.87-4.522-4.176 2.024-4.176 4.522-4.176 4.524 1.87 4.524 4.176z" fill="#97CF26"/><path d="M20.759 10.205c0 1.485-1.304 2.689-2.913 2.689-1.607 0-2.91-1.204-2.91-2.689 0-1.484 1.303-2.687 2.91-2.687 1.609 0 2.913 1.203 2.913 2.687z" fill="#FF6163"/><path d="M11.455 18.052c0 1.073-.944 1.942-2.107 1.942-1.163 0-2.107-.869-2.107-1.942 0-1.075.944-1.944 2.107-1.944 1.163 0 2.107.87 2.107 1.944z" fill="#A169F7"/></g><defs><filter id="a" x=".202" y=".702" width="27.596" height="28.921" filterUnits="userSpaceOnUse" color-interpolation-filters="sRGB"><feFlood flood-opacity="0" result="BackgroundImageFix"/><feBlend in="SourceGraphic" in2="BackgroundImageFix" result="shape"/><feColorMatrix in="SourceAlpha" values="0 0 0 0 0 0 0 0 0 0 0 0 0 0 0 0 0 0 127 0" result="hardAlpha"/><feOffset dy="1.326"/><feGaussianBlur stdDeviation="1.105"/><feComposite in2="hardAlpha" operator="arithmetic" k2="-1" k3="1"/><feColorMatrix values="0 0 0 0 0 0 0 0 0 0 0 0 0 0 0 0 0 0 0.05 0"/><feBlend in2="shape" result="effect1_innerShadow_630_6620"/></filter></defs></svg>