<svg width="28" height="29" viewBox="0 0 28 29" fill="none" xmlns="http://www.w3.org/2000/svg">
  <g clip-path="url(#clip0_630_6636)">
    <rect x="0.0478516" y="0.547852" width="27.9043" height="27.9043" rx="13.9521" fill="white" />
    <path d="M0.0478516 13.9419C0.0478516 7.62789 0.0478516 4.47088 2.00937 2.50937C3.97088 0.547852 7.12789 0.547852 13.4419 0.547852H14.5581C20.8721 0.547852 24.0291 0.547852 25.9906 2.50937C27.9521 4.47088 27.9521 7.62789 27.9521 13.9419V15.0581C27.9521 21.3721 27.9521 24.5291 25.9906 26.4906C24.0291 28.4521 20.8721 28.4521 14.5581 28.4521H13.4419C7.12789 28.4521 3.97088 28.4521 2.00937 26.4906C0.0478516 24.5291 0.0478516 21.3721 0.0478516 15.0581V13.9419Z" fill="#0077FF" />
    <path d="M14.8953 20.6506C8.53542 20.6506 4.90789 16.2906 4.75674 9.03547H7.94247C8.04711 14.3605 10.3957 16.6161 12.256 17.0812V9.03547H15.2558V13.628C17.0928 13.4304 19.0226 11.3376 19.6737 9.03547H22.6735C22.1736 11.8724 20.0807 13.9652 18.5925 14.8256C20.0807 15.5232 22.4644 17.3486 23.3712 20.6506H20.0691C19.3599 18.4415 17.5928 16.7324 15.2558 16.4998V20.6506H14.8953Z" fill="white" />
  </g>
  <defs>
    <clipPath id="clip0_630_6636">
      <rect x="0.0478516" y="0.547852" width="27.9043" height="27.9043" rx="13.9521" fill="white" />
    </clipPath>
  </defs>
</svg>