<svg width="28" height="29" fill="none" xmlns="http://www.w3.org/2000/svg"><g clip-path="url(#a)"><path d="M27.798 24.682a3.62 3.62 0 0 1-3.616 3.616H3.818a3.586 3.586 0 0 1-3.616-3.616V4.318A3.586 3.586 0 0 1 3.818.702h20.364a3.586 3.586 0 0 1 3.616 3.616v20.364z" fill="#ED7518"/><path d="M20.744 8.284a.688.688 0 0 0-.665-.67h-1.954a.688.688 0 0 0-.664.67 1.89 1.89 0 0 1-1.875 1.893.688.688 0 0 0-.665.67 1.89 1.89 0 0 1-1.875 1.892.688.688 0 0 0-.665.67 1.85 1.85 0 0 1-1.836 1.853.688.688 0 0 0-.664.67 1.89 1.89 0 0 1-1.876 1.893.688.688 0 0 0-.664.67v1.97c0 .356.312.671.664.671H20.04a.688.688 0 0 0 .664-.67l.04-12.182z" fill="#fff"/></g><defs><clipPath id="a"><rect x=".202" y=".702" width="27.596" height="27.596" rx="13.798" fill="#fff"/></clipPath></defs></svg>