<svg width="28" height="29" fill="none" xmlns="http://www.w3.org/2000/svg"><g clip-path="url(#a)"><rect x=".048" y=".548" width="27.904" height="27.904" rx="13.952" fill="#fff"/><path d="M.048 13.942c0-6.314 0-9.471 1.961-11.433C3.971.548 7.128.548 13.442.548h1.116c6.314 0 9.471 0 11.433 1.961 1.961 1.962 1.961 5.119 1.961 11.433v1.116c0 6.314 0 9.471-1.961 11.433-1.962 1.961-5.119 1.961-11.433 1.961h-1.116c-6.314 0-9.471 0-11.433-1.961C.048 24.529.048 21.372.048 15.058v-1.116z" fill="#07F"/><path d="M14.895 20.65c-6.36 0-9.987-4.36-10.138-11.615h3.185c.105 5.325 2.454 7.581 4.314 8.046V9.035h3v4.593c1.837-.198 3.767-2.29 4.418-4.593h3c-.5 2.837-2.593 4.93-4.081 5.79 1.488.698 3.871 2.524 4.778 5.826H20.07c-.71-2.21-2.476-3.919-4.813-4.151v4.15h-.36z" fill="#fff"/></g><defs><clipPath id="a"><rect x=".048" y=".548" width="27.904" height="27.904" rx="13.952" fill="#fff"/></clipPath></defs></svg>