<svg width="1920" height="1080" viewBox="0 0 1920 1080" fill="none" xmlns="http://www.w3.org/2000/svg">
<g clip-path="url(#clip0_791_2878)">
<rect width="1920" height="1080" fill="#EEF2F5"/>
<g opacity="0.1">
<line y1="23.4474" x2="1920" y2="23.4474" stroke="#1E2A3E"/>
<line y1="117.184" x2="1920" y2="117.184" stroke="#1E2A3E"/>
<line y1="210.921" x2="1920" y2="210.921" stroke="#1E2A3E"/>
<line y1="304.658" x2="1920" y2="304.658" stroke="#1E2A3E"/>
<line y1="398.395" x2="1920" y2="398.395" stroke="#1E2A3E"/>
<line y1="492.131" x2="1920" y2="492.131" stroke="#1E2A3E"/>
<line y1="585.868" x2="1920" y2="585.868" stroke="#1E2A3E"/>
<line y1="679.605" x2="1920" y2="679.605" stroke="#1E2A3E"/>
<line y1="773.342" x2="1920" y2="773.342" stroke="#1E2A3E"/>
<line y1="867.079" x2="1920" y2="867.079" stroke="#1E2A3E"/>
<line y1="960.815" x2="1920" y2="960.815" stroke="#1E2A3E"/>
<line y1="1054.55" x2="1920" y2="1054.55" stroke="#1E2A3E"/>
</g>
<g opacity="0.1">
<line x1="1819.45" y1="-280" x2="1819.45" y2="1639" stroke="#1E2A3E"/>
<line x1="1718.39" y1="-280" x2="1718.39" y2="1639" stroke="#1E2A3E"/>
<line x1="1617.34" y1="-280" x2="1617.34" y2="1639" stroke="#1E2A3E"/>
<line x1="1516.29" y1="-280" x2="1516.29" y2="1639" stroke="#1E2A3E"/>
<line x1="1415.24" y1="-280" x2="1415.24" y2="1639" stroke="#1E2A3E"/>
<line x1="1314.18" y1="-280" x2="1314.18" y2="1639" stroke="#1E2A3E"/>
<line x1="1213.13" y1="-280" x2="1213.13" y2="1639" stroke="#1E2A3E"/>
<line x1="1112.08" y1="-280" x2="1112.08" y2="1639" stroke="#1E2A3E"/>
<line x1="1011.03" y1="-280" x2="1011.03" y2="1639" stroke="#1E2A3E"/>
<line x1="909.974" y1="-280" x2="909.974" y2="1639" stroke="#1E2A3E"/>
<line x1="808.921" y1="-280" x2="808.921" y2="1639" stroke="#1E2A3E"/>
<line x1="707.868" y1="-280" x2="707.868" y2="1639" stroke="#1E2A3E"/>
<line x1="606.816" y1="-280" x2="606.816" y2="1639" stroke="#1E2A3E"/>
<line x1="505.764" y1="-280" x2="505.764" y2="1639" stroke="#1E2A3E"/>
<line x1="404.711" y1="-280" x2="404.711" y2="1639" stroke="#1E2A3E"/>
<line x1="303.658" y1="-280" x2="303.658" y2="1639" stroke="#1E2A3E"/>
<line x1="202.605" y1="-280" x2="202.605" y2="1639" stroke="#1E2A3E"/>
<line x1="101.553" y1="-280" x2="101.553" y2="1639" stroke="#1E2A3E"/>
<line x1="0.5" y1="-280" x2="0.499916" y2="1639" stroke="#1E2A3E"/>
</g>
</g>
<defs>
<clipPath id="clip0_791_2878">
<rect width="1920" height="1080" fill="white"/>
</clipPath>
</defs>
</svg>
