<svg width="1920" height="1080" fill="none" xmlns="http://www.w3.org/2000/svg"><g clip-path="url(#a)"><path fill="#EEF2F5" d="M0 0h1920v1080H0z"/><g opacity=".1" stroke="#1E2A3E"><path d="M0 23.447h1920M0 117.184h1920M0 210.921h1920M0 304.658h1920M0 398.395h1920M0 492.131h1920M0 585.868h1920M0 679.605h1920M0 773.342h1920M0 867.079h1920M0 960.815h1920M0 1054.55h1920"/></g><g opacity=".1" stroke="#1E2A3E"><path d="M1819.45-280v1919M1718.39-280v1919M1617.34-280v1919M1516.29-280v1919M1415.24-280v1919M1314.18-280v1919M1213.13-280v1919M1112.08-280v1919M1011.03-280v1919M909.974-280v1919M808.921-280v1919M707.868-280v1919M606.816-280v1919M505.764-280v1919M404.711-280v1919M303.658-280v1919M202.605-280v1919M101.553-280v1919M.5-280v1919"/></g></g><defs><clipPath id="a"><path fill="#fff" d="M0 0h1920v1080H0z"/></clipPath></defs></svg>