<svg width="23" height="22" viewBox="0 0 23 22" fill="none" xmlns="http://www.w3.org/2000/svg">
  <g clip-path="url(#clip0_2633_2582)">
    <path d="M17.6118 0.526367H5.23091C2.74107 0.526367 0.722656 2.54478 0.722656 5.03463V17.4155C0.722656 19.9054 2.74107 21.9238 5.23091 21.9238H17.6118C20.1016 21.9238 22.1201 19.9054 22.1201 17.4155V5.03463C22.1201 2.54478 20.1016 0.526367 17.6118 0.526367Z" fill="#247AF2" />
    <mask id="mask0_2633_2582" style="mask-type:luminance" maskUnits="userSpaceOnUse" x="0" y="0" width="23" height="22">
      <path d="M17.6118 0.526367H5.23091C2.74107 0.526367 0.722656 2.54478 0.722656 5.03463V17.4155C0.722656 19.9054 2.74107 21.9238 5.23091 21.9238H17.6118C20.1016 21.9238 22.1201 19.9054 22.1201 17.4155V5.03463C22.1201 2.54478 20.1016 0.526367 17.6118 0.526367Z" fill="white" />
    </mask>
    <g mask="url(#mask0_2633_2582)">
      <g filter="url(#filter0_f_2633_2582)">
        <path d="M19.4284 18.6268C25.6344 18.6268 30.6654 13.5959 30.6654 7.38983C30.6654 1.18381 25.6344 -3.84717 19.4284 -3.84717C13.2224 -3.84717 8.19141 1.18381 8.19141 7.38983C8.19141 13.5959 13.2224 18.6268 19.4284 18.6268Z" fill="#D48098" />
      </g>
      <path fill-rule="evenodd" clip-rule="evenodd" d="M7.38659 16.5878C8.45192 17.2659 9.68769 17.6156 10.9448 17.6014C12.209 17.58 13.4305 17.1945 14.4817 16.495C15.5257 15.7884 16.3424 14.7962 16.8396 13.6327C17.3367 12.4693 17.4788 11.1916 17.2657 9.94246C17.0455 8.70048 16.4703 7.54415 15.618 6.61623C14.7586 5.69545 13.6507 5.03876 12.4291 4.73184C11.2076 4.43205 9.92207 4.48915 8.7289 4.90314C7.54284 5.31714 6.49882 6.07375 5.72468 7.07305C4.84401 8.2151 4.36816 9.49278 4.36816 12.0124V21.2488H7.38659V16.5878ZM7.38659 11.0702C7.38659 11.9411 7.70619 12.7762 8.28857 13.4186C8.87094 14.061 9.66639 14.4679 10.5258 14.5535C11.3851 14.6392 12.2516 14.4036 12.9476 13.8826C13.6365 13.3686 14.1195 12.6049 14.2899 11.7555C14.4533 10.9061 14.3041 10.021 13.8567 9.27864C13.4163 8.52917 12.7132 7.97956 11.8823 7.72259C11.0584 7.47277 10.1635 7.53701 9.3823 7.90818C8.60106 8.27935 7.98317 8.92889 7.65647 9.73547C7.47892 10.1566 7.38659 10.6134 7.38659 11.0702Z" fill="white" />
    </g>
  </g>
  <defs>
    <filter id="filter0_f_2633_2582" x="0.757749" y="-11.2808" width="37.3409" height="37.3414" filterUnits="userSpaceOnUse" color-interpolation-filters="sRGB">
      <feFlood flood-opacity="0" result="BackgroundImageFix" />
      <feBlend mode="normal" in="SourceGraphic" in2="BackgroundImageFix" result="shape" />
      <feGaussianBlur stdDeviation="3.71683" result="effect1_foregroundBlur_2633_2582" />
    </filter>
    <clipPath id="clip0_2633_2582">
      <rect x="0.655273" y="0.458984" width="21.532" height="21.532" rx="10.766" fill="white" />
    </clipPath>
  </defs>
</svg>