<svg width="23" height="22" fill="none" xmlns="http://www.w3.org/2000/svg"><g clip-path="url(#a)"><path d="M17.612.526H5.23A4.508 4.508 0 0 0 .723 5.035v12.38a4.508 4.508 0 0 0 4.508 4.509h12.38a4.508 4.508 0 0 0 4.51-4.508V5.035A4.508 4.508 0 0 0 17.61.526z" fill="#247AF2"/><mask id="b" style="mask-type:luminance" maskUnits="userSpaceOnUse" x="0" y="0" width="23" height="22"><path d="M17.612.526H5.23A4.508 4.508 0 0 0 .723 5.035v12.38a4.508 4.508 0 0 0 4.508 4.509h12.38a4.508 4.508 0 0 0 4.51-4.508V5.035A4.508 4.508 0 0 0 17.61.526z" fill="#fff"/></mask><g mask="url(#b)"><g filter="url(#c)"><path d="M19.428 18.627c6.206 0 11.237-5.031 11.237-11.237S25.635-3.847 19.428-3.847c-6.206 0-11.237 5.03-11.237 11.237 0 6.206 5.031 11.237 11.237 11.237z" fill="#D48098"/></g><path fill-rule="evenodd" clip-rule="evenodd" d="M7.387 16.588a6.486 6.486 0 0 0 3.558 1.013 6.574 6.574 0 0 0 3.537-1.106 6.567 6.567 0 0 0 2.358-2.862 6.564 6.564 0 0 0 .426-3.69 6.64 6.64 0 0 0-1.648-3.327 6.55 6.55 0 0 0-3.189-1.884 6.537 6.537 0 0 0-3.7.171 6.53 6.53 0 0 0-3.004 2.17c-.881 1.142-1.357 2.42-1.357 4.94v9.236h3.019v-4.661zm0-5.518c0 .871.32 1.706.902 2.349a3.468 3.468 0 0 0 4.659.464 3.53 3.53 0 0 0 1.342-2.128 3.515 3.515 0 0 0-.433-2.476 3.47 3.47 0 0 0-1.975-1.556 3.482 3.482 0 0 0-2.5.185 3.464 3.464 0 0 0-1.726 1.827c-.177.422-.27.878-.27 1.335z" fill="#fff"/></g></g><defs><clipPath id="a"><rect x=".655" y=".459" width="21.532" height="21.532" rx="10.766" fill="#fff"/></clipPath><filter id="c" x=".758" y="-11.281" width="37.341" height="37.341" filterUnits="userSpaceOnUse" color-interpolation-filters="sRGB"><feFlood flood-opacity="0" result="BackgroundImageFix"/><feBlend in="SourceGraphic" in2="BackgroundImageFix" result="shape"/><feGaussianBlur stdDeviation="3.717" result="effect1_foregroundBlur_2633_2582"/></filter></defs></svg>