<svg width="262" height="68" fill="none" xmlns="http://www.w3.org/2000/svg"><rect width="11.647" height="68" rx="5.824" fill="#005FFF"/><rect x="15.648" y="7" width="11.647" height="61" rx="5.824" fill="#005FFF"/><rect x="31.294" y="15" width="11.647" height="53" rx="5.824" fill="#005FFF"/><rect x="46.941" width="11.647" height="68" rx="5.824" fill="#005FFF"/><rect x="62.588" y="5" width="11.647" height="63" rx="5.824" fill="#005FFF"/><rect x="78.235" y="22" width="11.647" height="46" rx="5.824" fill="#005FFF"/><rect x="93.883" y="22" width="11.647" height="46" rx="5.824" fill="#005FFF"/><rect x="109.529" y="7" width="11.647" height="61" rx="5.824" fill="#005FFF"/><rect x="125.177" y="22" width="11.647" height="46" rx="5.824" fill="#005FFF"/><rect x="140.823" y="7" width="11.647" height="61" rx="5.824" fill="#005FFF"/><rect x="156.471" y="15" width="11.647" height="53" rx="5.824" fill="#005FFF"/><rect x="172.117" y="15" width="11.647" height="53" rx="5.824" fill="#005FFF"/><rect x="187.765" y="7" width="11.647" height="61" rx="5.824" fill="#005FFF"/><rect x="203.412" y="22" width="11.647" height="46" rx="5.824" fill="#005FFF"/><rect x="219.059" y="13" width="11.647" height="55" rx="5.824" fill="#005FFF"/><rect x="234.706" y="13" width="11.647" height="55" rx="5.824" fill="#005FFF"/><rect x="250.353" y="7" width="11.647" height="61" rx="5.824" fill="#005FFF"/></svg>