<svg width="36" height="41" fill="none" xmlns="http://www.w3.org/2000/svg"><path d="M17.746.793c.078.204-.078.227-.268.034-.101-.102-.135-.045-.135.283 0 .397.012.42.235.295.224-.125.235-.113.146.193-.045.18-.09.577-.101.883 0 .34-.056.578-.134.601-.079.034-.146-.011-.146-.08 0-.18-.694-.056-1.253.239-.481.249-.649.51-.649 1.008 0 .351.492 1.768.683 1.972.056.068.1.328.1.6 0 .442-.044.51-.582.93-.682.52-1.98 1.2-2.08 1.099-.034-.046.044-.306.178-.578.347-.737.336-1.36-.056-1.61-.156-.113-.48-.203-.704-.203h-.415l.012-.476c0-.272.044-.487.1-.487.045 0 .079-.136.079-.295 0-.159-.045-.26-.112-.215-.056.034-.112.011-.112-.046 0-.068-.1-.124-.224-.124-.123 0-.224.056-.224.124 0 .057-.044.08-.112.046-.067-.046-.111.056-.111.215s.033.295.09.295c.044 0 .077.226.089.51.01.464-.012.498-.224.441-.291-.068-.739.091-.996.352-.257.249-.235.793.045 1.405.313.702.235.838-.37.623a3.291 3.291 0 0 1-.816-.43c-.426-.34-.426-.873-.012-1.768.28-.612.37-1.19.202-1.428-.045-.057-.403-.295-.806-.521-.861-.488-.984-.454-1.645.328-.369.442-.581.6-.984.703-.985.25-1.231.918-.604 1.643.47.555.402.804-.224.804-.57 0-.761.272-.504.737.112.215.146.238.157.08 0-.16.112-.193.66-.193.448 0 .694-.057.795-.17.246-.306.246-.102.01.385-.29.567-.29.703 0 1.076.303.386.594.408.426.023-.1-.215-.067-.385.224-.986.369-.759.369-1.008-.012-1.631-.2-.34-.268-1.145-.111-1.36.044-.068.369-.238.727-.385.884-.363.973-.261.716.759-.1.419-.19.918-.19 1.11 0 .6.738 1.11 1.936 1.337.402.08.604.408.246.408a.27.27 0 0 0-.235.17c-.045.09-.19.17-.347.17-.38 0-.884.317-1.03.646-.179.385-.156.963.056 1.258l.168.25.291-.228c.358-.283 1.444-.317 1.78-.056.2.159.2.159-.101.17-.168 0-.672.124-1.108.283-.929.329-1.5.363-1.79.09-.325-.294-.235.035.123.443.47.532 1.074.51 1.902-.057.324-.227.705-.42.839-.42.19 0 .157.057-.18.25-.48.283-.603.544-.413.895.123.25.134.25.268-.102.235-.544.616-.736 1.31-.657l.973.102c.94.068 1.925 2.346 1.432 3.32-.28.544-.604.782-1.096.77-.493-.022-.549.103-.202.477l.224.249-.336.113c-.19.068-.346.181-.346.238 0 .181-.291.147-.448-.045-.201-.25-.336-.023-.336.544 0 .306.079.51.28.714.537.544.269.952-.638.952-.828 0-1.645-.703-1.5-1.292.034-.148.247-.487.46-.748.48-.59.526-1.133.123-1.689-.157-.204-.85-.963-1.556-1.7-1.007-1.042-1.309-1.291-1.387-1.155-.078.125-.19.068-.57-.329a5.625 5.625 0 0 1-.773-1.088c-.212-.407-.347-.566-.436-.487-.078.068-.201.012-.347-.158-.347-.374-1.354-1.983-2.249-3.57l-.783-1.405-.235.238c-.884.895-.56 2.652.805 4.487.28.374.493.703.47.726-.033.022-.581-.476-1.242-1.111-.66-.623-1.242-1.144-1.298-1.144-.19 0-.335.634-.28 1.2.079.726.392 1.383.918 1.836.437.397.336.454-.391.193-.258-.09-.627-.17-.806-.17-.325 0-.336.011-.257.42.1.543.402 1.053.895 1.495.212.193.391.363.391.397 0 .022-.38.022-.839-.012-.738-.056-.839-.045-.839.125 0 .499.694 1.303 1.488 1.734.38.204.38.204-.593.317-.861.09-.962.17-.738.59.246.498.794.928 1.365 1.076.268.079.492.17.492.204 0 .034-.224.124-.492.204-.269.068-.638.26-.817.419l-.313.283.391.34c.213.181.56.363.783.408.717.113.75.159.314.408-.448.26-.705.68-.66 1.1.022.237-.012.26-.258.214-.246-.045-.29-.022-.29.204 0 .442.122.612.805 1.077.37.238.694.442.727.442.09 0 .47.498.481.634 0 .08.068.159.146.193.168.068 2.316 5.247 2.316 5.586 0 .125.078.329.168.454.09.113.168.328.168.453 0 .283.29 1.02.436 1.11.224.148.235.771.011 1.088-.268.374-.29.714-.067.907a.68.68 0 0 1 .202.362.566.566 0 0 0 .257.363c.123.068.268.193.336.26.056.08.29.239.503.363.246.125.414.318.448.499.056.306.85 1.02 1.051.952.168-.057.224-1.213.079-1.36-.067-.068-.123-.238-.123-.385 0-.204.19-.397.839-.828 1.287-.85 1.846-1.02 3.29-1.02 1.42 0 1.577-.09 1.242-.657-.291-.487-.28-.544.111-.623.314-.068.784-.442.784-.623 0-.046-.168-.068-.37-.046-.492.057-.75-.203-.75-.77 0-.351.068-.487.359-.736.302-.261.436-.295.85-.25.56.057.94.374 1.276 1.02.313.623.19 1.02-.425 1.44-.482.35-.795.747-.672.883.045.034.134 0 .202-.068.167-.17.805-.181.693-.011-.033.068-.503.328-1.03.566-.514.25-1.252.669-1.61.952-.37.283-.761.51-.873.51-.291 0-.582-.329-.526-.578.067-.26-.123-.272-.448-.045-.346.249-.447.884-.201 1.258.18.283.18.305-.056.52-.526.5-.548 1.111-.045 1.712.146.181.269.396.269.487 0 .283.235.045.436-.442l.202-.464.156.498c.269.85 1.175 1.258 1.88.861.257-.136.302-.124.671.272.47.499 1.052.669 1.656.476.37-.113.403-.102.862.386.257.271.526.498.593.498.067 0 .324-.227.582-.51.459-.498.481-.521.84-.385.57.204 1.163.045 1.666-.476.414-.42.448-.43.705-.25.638.42 1.712-.113 1.925-.974l.1-.408.135.34c.179.487.29.657.436.714.078.023.134-.034.134-.136 0-.09.123-.362.28-.59.37-.543.358-1.064-.011-1.506-.224-.272-.258-.386-.168-.567.213-.396.145-.974-.134-1.235-.336-.329-.526-.317-.526.023s-.269.566-.582.476c-.145-.034-.593-.306-1.007-.612-.403-.306-1.04-.669-1.399-.805-.358-.136-.772-.351-.928-.464l-.28-.227h.336c.19 0 .458.08.593.181.179.125.246.136.246.023 0-.08-.314-.43-.683-.782-.671-.635-.694-.657-.626-1.122.123-.929.962-1.586 1.812-1.427 1.108.215 1.086 1.915-.022 1.733-.38-.068-.38-.068-.224.181.224.352.638.544 1.007.465.358-.08.392.09.135.714-.213.499-.112.6.593.6.268 0 1.018.125 1.678.273.66.147 1.42.306 1.7.35.28.046.974.318 1.545.601 1.04.522 1.052.522 1.387.329.18-.102.526-.193.75-.193.235 0 .548-.09.694-.204.145-.113.414-.26.581-.34.168-.068.347-.226.38-.328a1.09 1.09 0 0 1 .28-.374c.112-.09.381-.476.594-.839l.402-.668-.29-.77c-.303-.805-.918-1.508-1.421-1.633-.269-.079-.717-.589-.605-.702.034-.034.134 0 .235.08.146.124.168.079.168-.273 0-.374-.022-.419-.224-.35-.246.078-.29-.058-.09-.262.102-.102.023-.136-.346-.136-.425 0-.47.023-.347.17.19.227.056.363-.168.17-.145-.124-.168-.079-.168.329 0 .442.012.465.224.351.18-.09.224-.09.224.034 0 .193-.257.408-.828.703-.56.283-.906.736-1.253 1.62-.28.691-.28.703-.067 1.009.358.532.358.566.123.872-.302.397-1.007.397-2.182 0-1.377-.464-1.723-.725-1.723-1.314 0-.193.033-.204.168-.09.089.067.212.101.28.056.055-.034.223.011.357.102.37.26.414.226.291-.204-.067-.216-.09-.476-.044-.578.055-.17.089-.17.313-.011.347.249.906.226 1.152-.046.202-.215.19-.226-.033-.226-.403 0-.56-.374-.493-1.224.034-.59 0-.861-.134-1.145-.201-.385-.772-.804-1.108-.804a.289.289 0 0 1-.257-.17c-.045-.114-.224-.17-.57-.17-.392 0-.56-.068-.795-.306-.291-.306-.302-.317-.056-.351.224-.034.224-.057.078-.34-.313-.612-.1-2.516.28-2.516.067 0 .28.102.47.215.19.125.414.193.492.17.101-.045.157.193.202.828.078 1.099.112 1.2.56 1.416.335.159.38.159.715-.068.314-.204.403-.351.392-.634 0-.035-.034-.42-.078-.85-.101-1.02.044-.873.402.385.314 1.11.515 1.428 1.007 1.53.28.056.426.011.627-.182.37-.35.325-.702-.246-1.96-.28-.612-.492-1.167-.47-1.235.022-.068.28.34.582.895 1.007 1.881.996 1.87 1.577 1.87.47 0 .515-.023.66-.397.213-.498.157-.646-.827-2.028-.448-.612-.784-1.133-.75-1.167.022-.023.436.419.929.997 1.32 1.598 1.298 1.575 1.88 1.575.57 0 .66-.113.66-.77 0-.318-.09-.454-.493-.794-.57-.476-1.376-1.246-1.119-1.076.09.068.493.351.884.646.593.43.795.52 1.209.52.727 0 .962-.158.872-.6-.1-.442-.425-.827-.94-1.088l-.369-.204 1.007.012c.817.011 1.063-.023 1.209-.181.179-.182.179-.204 0-.488a1.813 1.813 0 0 0-.526-.487c-.403-.238-.414-.363-.045-.363.38 0 .951-.249 1.276-.578l.268-.26-.302-.26c-.168-.148-.537-.33-.806-.397-.48-.136-.67-.318-.324-.318.358 0 1.298-.589 1.51-.94.392-.646.28-.737-.94-.861l-.67-.068.66-.397c.738-.442 1.365-1.224 1.241-1.541-.056-.159-.19-.181-.85-.136-.436.034-.783.045-.783.011 0-.022.179-.204.403-.396.425-.386.75-.952.884-1.541.067-.34.056-.363-.258-.363-.179 0-.57.08-.873.17-.76.238-.772.227-.212-.329.481-.487.84-1.325.84-1.937 0-.352-.225-.963-.348-.963-.056 0-.638.52-1.286 1.144-.65.635-1.209 1.122-1.242 1.076-.034-.034.078-.226.257-.43 1.51-1.745 1.936-3.898.962-4.77-.235-.216-.235-.205-.56.453-.447.884-1.711 2.98-2.338 3.864-.391.555-.537.69-.649.589-.112-.09-.201-.011-.392.385-.358.76-1.22 1.689-1.398 1.541-.112-.102-.47.204-1.533 1.303-1.936 2.017-2.048 2.3-1.276 3.275.482.6.526.748.336 1.179-.201.498-.76.816-1.421.816-1.007 0-1.208-.318-.638-.986.347-.397.425-.793.213-1.179-.112-.226-.123-.226-.336-.034-.213.193-.224.181-.447-.045-.123-.136-.291-.25-.38-.25-.225 0-.213-.067.055-.34.313-.317.302-.589-.022-.464a1.002 1.002 0 0 1-.481.023c-1.231-.363-1.298-1.972-.146-3.592.291-.42.403-.499.615-.442.146.034.37.011.493-.068.626-.34 1.768.011 1.947.589.056.159.112.204.19.125.201-.204.034-.635-.347-.896-.313-.215-.336-.26-.157-.26.135 0 .504.192.828.42.717.498 1.265.554 1.746.192.392-.295.515-.703.168-.51-.358.192-.806.147-1.679-.159-.436-.159-.928-.283-1.085-.283-.157 0-.28-.046-.28-.102 0-.283 1.5-.329 1.891-.057.235.17.269.17.437 0 .123-.124.19-.374.19-.702 0-.442-.056-.567-.37-.85-.223-.204-.48-.329-.693-.329-.201 0-.37-.068-.403-.17-.045-.09-.134-.17-.213-.17-.223 0-.29-.317-.078-.374.134-.034.123-.056-.056-.068-.313-.011-.313-.034-.033-.782.123-.328.224-.713.224-.85 0-.407-.493-.804-1.008-.815-.402 0-.447-.023-.425-.284a1.841 1.841 0 0 0-.067-.555c-.067-.181-.056-.238.034-.192.078.045.123-.012.123-.148 0-.136-.056-.238-.123-.238-.056 0-.079-.056-.045-.113.045-.068-.056-.113-.224-.113s-.268.045-.224.113c.034.057.012.113-.044.113-.067 0-.123.102-.123.227s.033.227.09.227c.044 0 .066.215.066.475-.011.386-.056.476-.201.454-.325-.057-.962.215-1.142.487-.2.317-.134.77.19 1.44.135.26.168.441.101.486-.167.102-1.6-.702-2.181-1.212-.605-.544-.627-.76-.18-1.723.18-.373.392-.929.46-1.223.167-.646.01-1.031-.527-1.405-.436-.295-1.186-.465-1.242-.284-.022.068-.111.125-.19.125-.179 0-.302-.43-.145-.521.112-.068.078-.465-.09-1.065-.078-.25-.067-.272.1-.125.169.136.191.113.191-.193 0-.294-.034-.328-.246-.272-.235.057-.246.046-.1-.124.133-.17.111-.193-.191-.193-.268 0-.336.045-.29.17zm1.477 7.082c.425.34 1.399.816 1.97.952.167.045.29.113.245.147-.078.091-1.253.057-1.577-.045-.425-.125.145.385.682.612.638.26.627.42-.01.351-.28-.034-.504-.045-.504-.022 0 .034.156.147.335.26l.347.204-.347.295c-.302.272-.604.385-1.398.566-.18.034-.146.068.145.136.19.046.358.114.358.136 0 .034-.168.363-.38.748-.459.827-.962 2.3-.962 2.788 0 .532-.19.419-.28-.159-.1-.725-.425-1.643-.895-2.527-.213-.408-.392-.782-.392-.827 0-.045.168-.113.37-.159l.357-.08-.57-.135c-.593-.147-1.388-.578-1.388-.76 0-.056.034-.101.09-.101.044 0 .201-.102.347-.216l.28-.215-.527.057c-.346.045-.526.022-.526-.068 0-.068.068-.125.146-.125.157 0 1.253-.668 1.186-.725-.022-.011-.392 0-.828.045-1.052.102-1.22-.022-.38-.283.38-.113.995-.42 1.376-.68.638-.453.727-.487 1.5-.498.749-.012.85.022 1.23.328zm-.29 8.963c.894.624 1.767.94 3.031 1.133.694.102.896.182 1.007.374.079.148.135.805.123 1.825 0 1.79-.235 3.207-.895 5.292-.526 1.643-.85 2.357-1.577 3.467-.57.873-2.417 2.969-2.607 2.969-.168 0-1.623-1.553-2.272-2.436-1.13-1.541-1.89-3.366-2.495-6.051-.336-1.462-.47-3.74-.28-4.669l.135-.634.973-.148c.537-.08 1.242-.238 1.555-.351.582-.204 2.06-1.1 2.205-1.337.09-.147.044-.17 1.096.566zm-17.255 5.7c0 .09-.044.204-.112.238-.055.034-.111-.034-.111-.159 0-.136.056-.238.111-.238.068 0 .112.068.112.16zm3.077.782c-1.119.952-1.208 1.076-1.14 1.496.033.215.021.396-.034.396-.101 0-.168-.181-.269-.793-.067-.374-.045-.42.29-.544.202-.08.628-.34.93-.578.75-.6.928-.578.223.023zm2.294-.295c-.067.114-.47.692-.895 1.28-.425.59-.783 1.168-.783 1.27 0 .113.078.363.179.578.168.362.19.374.694.306.514-.057.514-.057 1.007-.963.884-1.61 1.051-1.893 1.107-1.825.034.023-.201.623-.514 1.315-.314.69-.571 1.325-.571 1.405 0 .08.145.283.324.453.247.238.392.295.593.238.605-.181.728-.363 1.041-1.518.18-.635.37-1.145.425-1.145.101 0 .079.215-.112 1.496-.056.385-.022.442.314.657.246.147.48.204.66.159.526-.125.638-.34.727-1.36.056-.646.123-.952.202-.918.078.023.302-.057.503-.17.504-.283.537-.272.739.25.223.566.235 1.473.022 1.982-.146.352-.146.397 0 .397.224 0 .19.181-.09.453-.179.159-.391.227-.783.227-.29 0-.537.045-.537.113 0 .057-.224.204-.481.318-.269.124-.615.396-.76.6-.236.34-.27.487-.236 1.28.023.941-.067 1.202-.436 1.202-.28 0-.269.18 0 .34.324.17.817.136 1.119-.08l.268-.181-.056.578c-.056.59.034.657.448.328.078-.056.168-.079.212-.045.034.045.157.023.269-.045.19-.09.213-.068.213.226 0 .295-.079.386-.47.59-.638.328-1.634.668-1.959.668-.425 0-.883-.294-1.14-.736-.225-.397-.258-.408-.695-.34-.514.09-.772-.068-.772-.454 0-.328-.313-.963-.514-1.042-.09-.034-.157-.147-.157-.25 0-.101-.078-.305-.168-.464-.201-.351-2.294-4.646-2.294-4.714 0-.022.258-.045.56-.045.649 0 .626.023 1.924-1.61.437-.543.84-.996.896-.996.056 0 .044.09-.023.192zm-4.957.556c-.1.102-.313-.068-.235-.204.045-.068.112-.068.19.01.068.069.09.148.045.194zm15.688 9.586c0 .272-.101.838-.224 1.28-.414 1.53-.66 2.845-.66 3.592 0 .771-.079.918-.325.612-.436-.532-.358-1.609.235-3.104.19-.476.448-1.315.582-1.87.246-1.065.403-1.27.392-.51zm.772.34c.067.351.335 1.201.582 1.87.514 1.348.67 2.424.447 2.968-.268.68-.414.51-.492-.611-.067-.964-.146-1.383-.672-3.4-.19-.714-.246-1.756-.078-1.586.045.068.146.408.213.759zm-1.768.023c0 .022-.28.385-.616.815-.335.431-.75 1.054-.917 1.383-.336.623-.615.736-.683.26-.078-.52.101-.804 1.075-1.643.872-.759 1.14-.951 1.14-.815zm3.502.759c.962.838 1.186 1.133 1.197 1.53 0 .283-.347.634-.414.419-.09-.26-.95-1.553-1.387-2.074-.414-.498-.515-.68-.38-.68.033 0 .47.363.984.805zm-6.087 2.776c.403.204.437.533.056.59-.28.044-.66-.363-.57-.601.089-.216.078-.216.514.011zm8.112-.011c.079.226-.313.623-.604.623-.358 0-.29-.499.09-.646.425-.17.436-.17.514.023z" fill="#616B7C"/><path d="M15.732 19.671c.168.34.325.544.347.465.034-.068.112-.136.179-.136.19 0 1.186.725 1.197.861 0 .25-.313.26-.604.034-.201-.159-.302-.181-.358-.09-.045.079 0 .192.1.271.19.136.258.397.113.397-.056 0-.213.102-.37.215-.268.216-.268.227-.067.454.213.237.213.237-.201.237-.291 0-.493-.079-.683-.283-.246-.238-.28-.374-.28-1.167 0-.963-.044-1.042-.593-1.042-.47 0-.57.17-.548.85.034.793.291 1.45.716 1.812.37.318.772.352 1.645.148.481-.114.593-.102.84.068.156.102.29.226.29.283 0 .057-.302.295-.671.533-.37.249-.671.476-.671.51 0 .034.302.283.67.543.37.261.672.522.672.567 0 .057-.28.272-.615.499-.481.328-.627.385-.694.26-.067-.125-.168-.011-.392.397l-.313.555h.37c.581 0 .872-.113.805-.329-.034-.124.145-.317.627-.657l.693-.476.683.465c.37.26.705.487.727.498.023.023-.011.114-.09.193-.1.136-.055.181.224.238.437.08.884.09.884.011 0-.034-.1-.272-.223-.51-.213-.43-.448-.6-.448-.328 0 .136-.537-.17-1.03-.578l-.346-.295.75-.487c.402-.272.738-.51.738-.521 0-.023-.336-.284-.739-.578l-.75-.533.27-.215c.2-.159.369-.193.715-.147 1.242.192 1.455.181 1.802-.034.436-.284.727-.895.794-1.734.079-.76-.056-1.008-.514-1.008-.549 0-.627.147-.593.997.033.702.01.804-.258 1.133-.224.272-.391.362-.682.362-.392 0-.515-.147-.213-.271.257-.091.201-.216-.246-.51l-.403-.261.257-.204c.38-.295.18-.521-.212-.238-.269.193-.347.204-.515.08-.19-.137-.157-.182.436-.59.515-.34.66-.397.739-.272.123.193.1.204.481-.498l.302-.556-.414.08a6.415 6.415 0 0 1-.694.068c-.223 0-.246.022-.111.18.09.114.1.205.022.25-.056.046-.392.272-.738.521l-.616.431-.682-.487c-.515-.374-.672-.533-.616-.691.045-.148 0-.204-.145-.204-.112 0-.392-.034-.627-.08l-.436-.068.313.612zm2.395 1.575c.246.148-.023.386-.336.284-.19-.057-.213-.114-.1-.238.145-.182.212-.193.436-.046zm-.705.533c.067.204-.414.42-.56.272-.09-.09-.056-.17.1-.295.236-.181.404-.17.46.023zm1.6.136c0 .181-.146.215-.403.102-.291-.136-.347-.272-.123-.351.156-.057.526.113.526.249zm-.772.238c.28.159.268.272-.067.453-.235.125-.314.113-.571-.057l-.302-.203.268-.148c.336-.181.392-.192.672-.045zm.212 1.496c.302.203.56.407.56.453 0 .045-.235.238-.515.442-.515.362-.526.362-.873.17a5.292 5.292 0 0 1-.615-.397l-.258-.204.538-.408c.302-.215.559-.408.581-.408.012-.011.28.159.582.352zM26.854 4.691c-.694.397-.727.442-.76.884-.023.306.055.668.245 1.11.482 1.1.37 1.519-.548 2.029l-.336.192.448-.068c.57-.102 1.22-.442 1.443-.759.224-.317.224-.702 0-1.36-.179-.555-.179-1.303.012-1.257.067.01.402.147.75.283.86.351.973.793.48 1.79-.347.703-.347.839.012 1.519.201.374.28.668.246.929-.056.43-.011.453.335.204.291-.204.336-.884.079-1.224-.09-.125-.168-.295-.168-.385 0-.136.045-.136.213.022.156.148.369.193.738.17.403-.022.56.012.683.17.134.193.145.193.212-.079.146-.555.045-.703-.503-.703-.437 0-.504-.034-.537-.26-.023-.159.09-.397.302-.657.19-.216.347-.499.347-.624 0-.374-.571-.86-1.097-.951-.392-.068-.526-.16-.794-.556-.627-.918-.85-.974-1.802-.419z" fill="#616B7C"/></svg>