<svg width="36" height="41" viewBox="0 0 36 41" fill="none" xmlns="http://www.w3.org/2000/svg">
  <path d="M17.7461 0.793019C17.8244 0.996985 17.6677 1.01965 17.4775 0.827013C17.3768 0.72503 17.3433 0.781687 17.3433 1.1103C17.3433 1.5069 17.3545 1.52956 17.5782 1.40492C17.802 1.28027 17.8132 1.2916 17.7237 1.59755C17.6789 1.77885 17.6342 2.17545 17.623 2.4814C17.623 2.82135 17.567 3.05931 17.4887 3.08197C17.4104 3.11596 17.3433 3.07064 17.3433 3.00265C17.3433 2.82135 16.6495 2.94599 16.0901 3.24061C15.6089 3.4899 15.4411 3.75053 15.4411 4.24911C15.4411 4.60038 15.9334 6.01681 16.1236 6.22078C16.1796 6.28877 16.2243 6.54939 16.2243 6.82135C16.2243 7.26327 16.1796 7.33126 15.6425 7.75053C14.96 8.27177 13.662 8.95166 13.5613 8.84968C13.5277 8.80435 13.6061 8.54373 13.7403 8.27177C14.0872 7.53523 14.076 6.912 13.6844 6.66271C13.5277 6.54939 13.2033 6.45874 12.9795 6.45874H12.5655L12.5767 5.98282C12.5767 5.71087 12.6214 5.49557 12.6774 5.49557C12.7221 5.49557 12.7557 5.35959 12.7557 5.20095C12.7557 5.04231 12.7109 4.94033 12.6438 4.98565C12.5879 5.01965 12.5319 4.99698 12.5319 4.94033C12.5319 4.87234 12.4312 4.81568 12.3081 4.81568C12.185 4.81568 12.0843 4.87234 12.0843 4.94033C12.0843 4.99698 12.0396 5.01965 11.9724 4.98565C11.9053 4.94033 11.8606 5.04231 11.8606 5.20095C11.8606 5.35959 11.8941 5.49557 11.9501 5.49557C11.9948 5.49557 12.0284 5.7222 12.0396 6.00548C12.0508 6.47007 12.0284 6.50407 11.8158 6.44741C11.5249 6.37942 11.0773 6.53806 10.82 6.79868C10.5626 7.04798 10.585 7.59189 10.8647 8.20378C11.178 8.90633 11.0997 9.04231 10.4955 8.82701C10.2269 8.73636 9.86888 8.54373 9.67866 8.39642C9.25347 8.05647 9.25347 7.5239 9.66747 6.62871C9.9472 6.01681 10.0367 5.43891 9.86888 5.20095C9.82412 5.14429 9.46607 4.90633 9.06325 4.6797C8.20168 4.19245 8.0786 4.22645 7.41844 5.00832C7.0492 5.45024 6.8366 5.60888 6.43379 5.71087C5.44914 5.96016 5.20298 6.62871 5.82957 7.35393C6.29952 7.90917 6.23239 8.15846 5.60579 8.15846C5.03514 8.15846 4.84492 8.43041 5.10228 8.895C5.21417 9.1103 5.24774 9.13296 5.25892 8.97432C5.25892 8.81568 5.37082 8.78169 5.91909 8.78169C6.36666 8.78169 6.61282 8.72503 6.71352 8.61172C6.95968 8.30577 6.95968 8.50973 6.72471 8.99698C6.43379 9.56356 6.43379 9.69953 6.72471 10.0735C7.02682 10.4587 7.31774 10.4814 7.1499 10.0961C7.0492 9.88084 7.08276 9.71087 7.37368 9.1103C7.74293 8.35109 7.74293 8.1018 7.36249 7.47857C7.16109 7.13863 7.09395 6.3341 7.2506 6.1188C7.29536 6.05081 7.61985 5.88084 7.9779 5.73353C8.86185 5.37092 8.95136 5.47291 8.69401 6.49274C8.59331 6.912 8.50379 7.41058 8.50379 7.60322C8.50379 8.20378 9.24228 8.7137 10.4395 8.94033C10.8423 9.01965 11.0437 9.34826 10.6857 9.34826C10.585 9.34826 10.4843 9.42758 10.4507 9.51823C10.406 9.60888 10.2605 9.6882 10.1038 9.6882C9.72342 9.6882 9.2199 10.0055 9.07444 10.3341C8.89542 10.7194 8.91779 11.2973 9.13039 11.5919L9.29823 11.8412L9.58915 11.6145C9.9472 11.3313 11.0326 11.2973 11.3682 11.5579C11.5696 11.7165 11.5696 11.7165 11.2675 11.7279C11.0997 11.7279 10.5962 11.8525 10.1598 12.0111C9.23109 12.3398 8.66044 12.3738 8.36952 12.1018C8.04504 11.8072 8.13455 12.1358 8.4926 12.5437C8.96255 13.0763 9.56677 13.0536 10.3948 12.4871C10.7193 12.2604 11.0997 12.0678 11.234 12.0678C11.4242 12.0678 11.3906 12.1245 11.0549 12.3171C10.5738 12.6004 10.4507 12.861 10.6409 13.2123C10.764 13.4616 10.7752 13.4616 10.9095 13.1103C11.1444 12.5664 11.5249 12.3738 12.2186 12.4531C12.5431 12.4871 12.9795 12.5324 13.1921 12.5551C14.132 12.623 15.1166 14.9007 14.6243 15.8752C14.3446 16.4191 14.0201 16.657 13.5277 16.6457C13.0354 16.623 12.9795 16.7477 13.3263 17.1216L13.5501 17.3709L13.2144 17.4842C13.0242 17.5522 12.8676 17.6655 12.8676 17.7222C12.8676 17.9035 12.5767 17.8695 12.42 17.6769C12.2186 17.4276 12.0843 17.6542 12.0843 18.2208C12.0843 18.5267 12.1627 18.7307 12.3641 18.9347C12.9011 19.4786 12.6326 19.8865 11.7263 19.8865C10.8983 19.8865 10.0815 19.184 10.2269 18.5947C10.2605 18.4474 10.4731 18.1075 10.6857 17.8468C11.1668 17.2576 11.2116 16.7137 10.8088 16.1585C10.6521 15.9545 9.95839 15.1953 9.25347 14.4587C8.24644 13.4162 7.94433 13.167 7.86601 13.3029C7.78768 13.4276 7.67579 13.3709 7.29536 12.9743C7.03801 12.7024 6.69114 12.2151 6.5233 11.8865C6.31071 11.4786 6.17644 11.3199 6.08693 11.3993C6.0086 11.4672 5.88552 11.4106 5.74006 11.2406C5.3932 10.8667 4.38617 9.25761 3.49103 7.67121L2.70779 6.26611L2.47281 6.50407C1.58887 7.39925 1.91335 9.15562 3.27844 10.9913C3.55817 11.3653 3.77076 11.6939 3.74838 11.7165C3.71481 11.7392 3.16654 11.2406 2.50638 10.606C1.84622 9.98282 1.26438 9.46157 1.20843 9.46157C1.01822 9.46157 0.872758 10.0961 0.928704 10.6627C1.00703 11.3879 1.32033 12.0451 1.84622 12.4984C2.2826 12.895 2.18189 12.9517 1.4546 12.691C1.19724 12.6004 0.828001 12.5211 0.648974 12.5211C0.324487 12.5211 0.313298 12.5324 0.391622 12.9403C0.492325 13.4842 0.794433 13.9942 1.28676 14.4361C1.49935 14.6287 1.67838 14.7987 1.67838 14.8327C1.67838 14.8553 1.29795 14.8553 0.83919 14.8213C0.100703 14.7647 0 14.776 0 14.946C0 15.4446 0.69373 16.2491 1.48816 16.6797C1.8686 16.8837 1.8686 16.8837 0.895136 16.997C0.0335676 17.0876 -0.0671352 17.167 0.156649 17.5862C0.402811 18.0848 0.951082 18.5154 1.52173 18.6627C1.79027 18.742 2.01406 18.8327 2.01406 18.8667C2.01406 18.9007 1.79027 18.9913 1.52173 19.0706C1.25319 19.1386 0.883947 19.3313 0.70492 19.4899L0.391622 19.7732L0.783244 20.1131C0.995839 20.2944 1.3427 20.4757 1.56649 20.5211C2.2826 20.6344 2.31616 20.6797 1.87979 20.929C1.43222 21.1896 1.17487 21.6089 1.21962 22.0281C1.242 22.2661 1.20843 22.2888 0.962271 22.2434C0.716109 22.1981 0.671352 22.2208 0.671352 22.4474C0.671352 22.8893 0.794433 23.0593 1.47697 23.5239C1.84622 23.7619 2.17071 23.9658 2.20427 23.9658C2.29379 23.9658 2.67422 24.4644 2.68541 24.6004C2.68541 24.6797 2.75254 24.759 2.83087 24.793C2.99871 24.861 5.14703 30.0395 5.14703 30.3794C5.14703 30.5041 5.22536 30.708 5.31487 30.8327C5.40438 30.946 5.48271 31.1613 5.48271 31.2859C5.48271 31.5692 5.77363 32.3058 5.91909 32.3964C6.14287 32.5437 6.15406 33.167 5.93028 33.4842C5.66174 33.8582 5.63936 34.1981 5.86314 34.3908C5.95266 34.4587 6.04217 34.6287 6.06455 34.7534C6.08693 34.8893 6.19882 35.048 6.3219 35.116C6.44498 35.184 6.59044 35.3086 6.65758 35.3766C6.71352 35.4559 6.94849 35.6145 7.16109 35.7392C7.40725 35.8638 7.57509 36.0565 7.60866 36.2378C7.6646 36.5437 8.45904 37.2576 8.66044 37.1896C8.82828 37.133 8.88423 35.9772 8.73877 35.8298C8.67163 35.7619 8.61569 35.5919 8.61569 35.4446C8.61569 35.2406 8.8059 35.048 9.45488 34.6174C10.7416 33.7675 11.3011 33.5976 12.7445 33.5976C14.1655 33.5976 14.3222 33.5069 13.9865 32.9403C13.6956 32.4531 13.7068 32.3964 14.0984 32.3171C14.4117 32.2491 14.8816 31.8752 14.8816 31.6939C14.8816 31.6485 14.7138 31.6259 14.5124 31.6485C14.0201 31.7052 13.7627 31.4446 13.7627 30.878C13.7627 30.5267 13.8299 30.3908 14.1208 30.1415C14.4229 29.8808 14.5572 29.8468 14.9712 29.8922C15.5306 29.9488 15.911 30.2661 16.2467 30.912C16.56 31.5352 16.4369 31.9318 15.8215 32.3511C15.3404 32.7024 15.0271 33.099 15.1502 33.2349C15.1949 33.2689 15.2845 33.2349 15.3516 33.167C15.5194 32.997 16.1572 32.9857 16.0453 33.1556C16.0117 33.2236 15.5418 33.4842 15.0159 33.7222C14.5012 33.9715 13.7627 34.3908 13.4047 34.674C13.0354 34.9573 12.6438 35.184 12.5319 35.184C12.241 35.184 11.9501 34.8553 12.006 34.606C12.0731 34.3454 11.8829 34.3341 11.5584 34.5607C11.2116 34.81 11.1109 35.4446 11.357 35.8185C11.5361 36.1018 11.5361 36.1245 11.3011 36.3398C10.7752 36.8383 10.7528 37.4502 11.2563 38.0508C11.4018 38.2321 11.5249 38.4474 11.5249 38.5381C11.5249 38.8213 11.7599 38.5834 11.9613 38.0961L12.1627 37.6315L12.3193 38.1301C12.5879 38.98 13.4942 39.3879 14.1991 38.9913C14.4564 38.8553 14.5012 38.8667 14.8705 39.2633C15.3404 39.7619 15.9222 39.9318 16.5265 39.7392C16.8957 39.6259 16.9293 39.6372 17.388 40.1245C17.6454 40.3964 17.9139 40.623 17.981 40.623C18.0482 40.623 18.3055 40.3964 18.5629 40.1131C19.0216 39.6145 19.044 39.5919 19.4021 39.7279C19.9727 39.9318 20.5658 39.7732 21.0693 39.2519C21.4833 38.8327 21.5168 38.8213 21.7742 39.0027C22.412 39.4219 23.4861 38.8893 23.6987 38.0281L23.7994 37.6202L23.9337 37.9602C24.1127 38.4474 24.2246 38.6174 24.3701 38.674C24.4484 38.6967 24.5044 38.64 24.5044 38.5381C24.5044 38.4474 24.6274 38.1755 24.7841 37.9488C25.1533 37.4049 25.1421 36.8837 24.7729 36.4417C24.5491 36.1698 24.5155 36.0565 24.6051 35.8752C24.8176 35.4786 24.7505 34.9007 24.4708 34.64C24.1351 34.3114 23.9449 34.3228 23.9449 34.6627C23.9449 35.0027 23.6764 35.2293 23.3631 35.1386C23.2176 35.1046 22.77 34.8327 22.356 34.5267C21.9532 34.2208 21.3154 33.8582 20.9574 33.7222C20.5993 33.5862 20.1853 33.3709 20.0287 33.2576L19.7489 33.031H20.0846C20.2748 33.031 20.5434 33.1103 20.6776 33.2123C20.8567 33.3369 20.9238 33.3483 20.9238 33.2349C20.9238 33.1556 20.6105 32.8043 20.2413 32.4531C19.5699 31.8185 19.5475 31.7959 19.6147 31.3313C19.7378 30.4021 20.5769 29.7449 21.4273 29.9035C22.5351 30.1188 22.5127 31.8185 21.4049 31.6372C21.0245 31.5692 21.0245 31.5692 21.1812 31.8185C21.4049 32.1698 21.8189 32.3624 22.1882 32.2831C22.5462 32.2038 22.5798 32.3738 22.3225 32.997C22.1099 33.4956 22.2106 33.5976 22.9155 33.5976C23.184 33.5976 23.9337 33.7222 24.5939 33.8695C25.254 34.0168 26.0149 34.1755 26.2946 34.2208C26.5744 34.2661 27.2681 34.5381 27.8387 34.8213C28.8793 35.3426 28.8905 35.3426 29.2262 35.15C29.4052 35.048 29.7521 34.9573 29.9759 34.9573C30.2108 34.9573 30.5241 34.8667 30.6696 34.7534C30.8151 34.64 31.0836 34.4927 31.2514 34.4134C31.4193 34.3454 31.5983 34.1868 31.6319 34.0848C31.6766 33.9715 31.7997 33.8015 31.9116 33.7109C32.0235 33.6202 32.292 33.2349 32.5046 32.8723L32.9074 32.2038L32.6165 31.4332C32.3144 30.6287 31.699 29.9262 31.1955 29.8015C30.927 29.7222 30.4794 29.2123 30.5913 29.099C30.6248 29.065 30.7255 29.099 30.8263 29.1783C30.9717 29.3029 30.9941 29.2576 30.9941 28.9063C30.9941 28.5324 30.9717 28.4871 30.7703 28.5551C30.5241 28.6344 30.4794 28.4984 30.6808 28.2944C30.7815 28.1925 30.7032 28.1585 30.3339 28.1585C29.9087 28.1585 29.864 28.1811 29.9871 28.3284C30.1773 28.5551 30.043 28.691 29.8192 28.4984C29.6738 28.3738 29.6514 28.4191 29.6514 28.827C29.6514 29.2689 29.6626 29.2916 29.8752 29.1783C30.0542 29.0876 30.099 29.0876 30.099 29.2123C30.099 29.4049 29.8416 29.6202 29.271 29.9148C28.7115 30.1981 28.3646 30.6514 28.0178 31.5352C27.738 32.2264 27.738 32.2378 27.9506 32.5437C28.3087 33.0763 28.3087 33.1103 28.0737 33.4162C27.7716 33.8129 27.0667 33.8129 25.8918 33.4162C24.5155 32.9517 24.1687 32.691 24.1687 32.1018C24.1687 31.9092 24.2022 31.8978 24.3365 32.0111C24.426 32.0791 24.5491 32.1131 24.6162 32.0678C24.6722 32.0338 24.84 32.0791 24.9743 32.1698C25.3435 32.4304 25.3883 32.3964 25.2652 31.9658C25.1981 31.7505 25.1757 31.4899 25.2205 31.3879C25.2764 31.2179 25.31 31.2179 25.5338 31.3766C25.8806 31.6259 26.4401 31.6032 26.6862 31.3313C26.8877 31.116 26.8765 31.1046 26.6527 31.1046C26.2499 31.1046 26.0932 30.7307 26.1604 29.8808C26.1939 29.2916 26.1604 29.0196 26.0261 28.7364C25.8247 28.3511 25.254 27.9318 24.9184 27.9318C24.8065 27.9318 24.6946 27.8525 24.661 27.7619C24.6162 27.6485 24.4372 27.5919 24.0904 27.5919C23.6987 27.5919 23.5309 27.5239 23.2959 27.2859C23.005 26.98 22.9938 26.9687 23.24 26.9347C23.4638 26.9007 23.4638 26.878 23.3183 26.5947C23.005 25.9828 23.2176 24.0791 23.598 24.0791C23.6652 24.0791 23.8778 24.1811 24.068 24.2944C24.2582 24.4191 24.482 24.4871 24.5603 24.4644C24.661 24.4191 24.7169 24.657 24.7617 25.2916C24.84 26.3908 24.8736 26.4927 25.3212 26.708C25.6568 26.8667 25.7016 26.8667 26.0373 26.64C26.3506 26.4361 26.4401 26.2888 26.4289 26.0055C26.4289 25.9715 26.3953 25.5862 26.3506 25.1556C26.2499 24.1358 26.3953 24.2831 26.7534 25.5409C27.0667 26.6514 27.2681 26.9687 27.7604 27.0706C28.0401 27.1273 28.1856 27.082 28.387 26.8893C28.7563 26.5381 28.7115 26.1868 28.1408 24.929C27.8611 24.3171 27.6485 23.7619 27.6709 23.6939C27.6933 23.6259 27.9506 24.0338 28.2527 24.5891C29.2598 26.4701 29.2486 26.4587 29.8304 26.4587C30.3004 26.4587 30.3451 26.4361 30.4906 26.0621C30.7032 25.5636 30.6472 25.4162 29.6626 24.0338C29.215 23.4219 28.8793 22.9007 28.9129 22.8667C28.9353 22.844 29.3493 23.2859 29.8416 23.8638C31.1619 25.4616 31.1396 25.4389 31.7214 25.4389C32.292 25.4389 32.3816 25.3256 32.3816 24.6684C32.3816 24.3511 32.292 24.2151 31.8892 23.8752C31.3186 23.3993 30.513 22.6287 30.7703 22.7987C30.8598 22.8667 31.2626 23.15 31.6543 23.4446C32.2473 23.8752 32.4487 23.9658 32.8627 23.9658C33.59 23.9658 33.825 23.8072 33.7354 23.3653C33.6347 22.9233 33.3103 22.5381 32.7956 22.2774L32.4263 22.0735L33.4333 22.0848C34.2501 22.0961 34.4963 22.0621 34.6418 21.9035C34.8208 21.7222 34.8208 21.6995 34.6418 21.4162C34.5299 21.2463 34.2949 21.031 34.1159 20.929C33.7131 20.691 33.7019 20.5664 34.0711 20.5664C34.4516 20.5664 35.0222 20.3171 35.3467 19.9885L35.6152 19.7279L35.3131 19.4672C35.1453 19.3199 34.776 19.1386 34.5075 19.0706C34.0264 18.9347 33.8361 18.7534 34.183 18.7534C34.5411 18.7534 35.481 18.1641 35.6936 17.8128C36.0852 17.167 35.9733 17.0763 34.7537 16.9517L34.0823 16.8837L34.7425 16.4871C35.481 16.0451 36.1076 15.2633 35.9845 14.946C35.9285 14.7874 35.7943 14.7647 35.1341 14.81C34.6977 14.844 34.3508 14.8553 34.3508 14.8213C34.3508 14.7987 34.5299 14.6174 34.7537 14.4247C35.1789 14.0395 35.5033 13.4729 35.6376 12.8837C35.7047 12.5437 35.6936 12.5211 35.3803 12.5211C35.2012 12.5211 34.8096 12.6004 34.5075 12.691C33.7466 12.929 33.7354 12.9177 34.2949 12.3624C34.776 11.8752 35.1341 11.0366 35.1341 10.4247C35.1341 10.0735 34.9103 9.46157 34.7872 9.46157C34.7313 9.46157 34.1494 9.98282 33.5005 10.606C32.8515 11.2406 32.292 11.7279 32.2585 11.6825C32.2249 11.6485 32.3368 11.4559 32.5158 11.2519C34.0264 9.5069 34.4516 7.35392 33.4781 6.4814C33.2431 6.26611 33.2431 6.27744 32.9186 6.93466C32.4711 7.81851 31.2067 9.91483 30.5801 10.7987C30.1885 11.3539 30.043 11.4899 29.9311 11.3879C29.8192 11.2973 29.7297 11.3766 29.5395 11.7732C29.1814 12.5324 28.3199 13.4616 28.1408 13.3143C28.0289 13.2123 27.6709 13.5182 26.6079 14.6174C24.6722 16.6344 24.5603 16.9177 25.3324 17.8922C25.8135 18.4927 25.8582 18.64 25.668 19.0706C25.4666 19.5692 24.9072 19.8865 24.247 19.8865C23.24 19.8865 23.0386 19.5692 23.6092 18.9007C23.9561 18.5041 24.0344 18.1075 23.8218 17.7222C23.7099 17.4956 23.6987 17.4956 23.4861 17.6882C23.2735 17.8808 23.2624 17.8695 23.0386 17.6429C22.9155 17.5069 22.7476 17.3936 22.6581 17.3936C22.4343 17.3936 22.4455 17.3256 22.7141 17.0536C23.0274 16.7364 23.0162 16.4644 22.6917 16.5891C22.5462 16.6344 22.3336 16.6457 22.2106 16.6117C20.9798 16.2491 20.9126 14.64 22.0651 13.0196C22.356 12.6004 22.4679 12.5211 22.6805 12.5777C22.826 12.6117 23.0498 12.5891 23.1728 12.5097C23.7994 12.1698 24.9407 12.5211 25.1198 13.099C25.1757 13.2576 25.2316 13.3029 25.31 13.2236C25.5114 13.0196 25.3435 12.5891 24.9631 12.3284C24.6498 12.1131 24.6274 12.0678 24.8065 12.0678C24.9407 12.0678 25.31 12.2604 25.6345 12.4871C26.3506 12.9857 26.8988 13.0423 27.38 12.6797C27.7716 12.3851 27.8947 11.9772 27.5478 12.1698C27.1898 12.3624 26.7422 12.3171 25.8694 12.0111C25.4331 11.8525 24.9407 11.7279 24.7841 11.7279C24.6274 11.7279 24.5044 11.6825 24.5044 11.6259C24.5044 11.3426 26.0037 11.2973 26.3953 11.5692C26.6303 11.7392 26.6639 11.7392 26.8317 11.5692C26.9548 11.4446 27.0219 11.1953 27.0219 10.8667C27.0219 10.4247 26.966 10.3001 26.6527 10.0168C26.4289 9.81285 26.1715 9.6882 25.9589 9.6882C25.7575 9.6882 25.5897 9.62021 25.5561 9.51823C25.5114 9.42758 25.4219 9.34826 25.3435 9.34826C25.1198 9.34826 25.0526 9.03098 25.2652 8.97432C25.3995 8.94033 25.3883 8.91766 25.2093 8.90633C24.896 8.895 24.896 8.87234 25.1757 8.12446C25.2988 7.79585 25.3995 7.41058 25.3995 7.2746C25.3995 6.86667 24.9072 6.47007 24.3925 6.45874C23.9896 6.45874 23.9449 6.43608 23.9673 6.17545C23.9785 6.01681 23.9449 5.76752 23.9001 5.62021C23.833 5.43891 23.8442 5.38225 23.9337 5.42758C24.012 5.47291 24.0568 5.41625 24.0568 5.28027C24.0568 5.14429 24.0008 5.04231 23.9337 5.04231C23.8778 5.04231 23.8554 4.98565 23.8889 4.929C23.9337 4.86101 23.833 4.81568 23.6652 4.81568C23.4973 4.81568 23.3966 4.86101 23.4414 4.929C23.4749 4.98565 23.4526 5.04231 23.3966 5.04231C23.3295 5.04231 23.2735 5.14429 23.2735 5.26894C23.2735 5.39358 23.3071 5.49557 23.3631 5.49557C23.4078 5.49557 23.4302 5.71087 23.4302 5.97149C23.419 6.35676 23.3742 6.44741 23.2288 6.42475C22.9043 6.36809 22.2665 6.64004 22.0875 6.912C21.8861 7.22928 21.9532 7.68254 22.2777 8.35109C22.412 8.61171 22.4455 8.79302 22.3784 8.83834C22.2106 8.94033 20.7783 8.13579 20.1965 7.62588C19.5923 7.08197 19.5699 6.86667 20.0175 5.9035C20.1965 5.52956 20.4091 4.97432 20.4762 4.6797C20.6441 4.03381 20.4874 3.64854 19.9503 3.2746C19.514 2.97999 18.7643 2.81002 18.7083 2.99132C18.686 3.05931 18.5965 3.11596 18.5181 3.11596C18.3391 3.11596 18.216 2.68537 18.3727 2.59472C18.4846 2.52673 18.451 2.13013 18.2832 1.52956C18.2048 1.28027 18.216 1.25761 18.3839 1.40492C18.5517 1.54089 18.5741 1.51823 18.5741 1.21228C18.5741 0.917664 18.5405 0.88367 18.3279 0.940327C18.0929 0.996985 18.0818 0.985653 18.2272 0.815681C18.3615 0.64571 18.3391 0.623047 18.037 0.623047C17.7685 0.623047 17.7013 0.668373 17.7461 0.793019ZM19.223 7.87517C19.6482 8.21511 20.6217 8.69104 21.1923 8.82701C21.3602 8.87234 21.4833 8.94033 21.4385 8.97432C21.3602 9.06497 20.1853 9.03098 19.8608 8.929C19.4356 8.80435 20.0063 9.31427 20.5434 9.54089C21.1812 9.80152 21.17 9.96016 20.5322 9.89217C20.2525 9.85817 20.0287 9.84684 20.0287 9.86951C20.0287 9.9035 20.1853 10.0168 20.3643 10.1301L20.7112 10.3341L20.3643 10.6287C20.0622 10.9007 19.7601 11.014 18.9657 11.1953C18.7867 11.2293 18.8202 11.2633 19.1112 11.3313C19.3014 11.3766 19.4692 11.4446 19.4692 11.4672C19.4692 11.5012 19.3014 11.8298 19.0888 12.2151C18.63 13.0423 18.1265 14.5154 18.1265 15.0027C18.1265 15.5352 17.9363 15.4219 17.8468 14.844C17.7461 14.1188 17.4216 13.201 16.9516 12.3171C16.739 11.9092 16.56 11.5352 16.56 11.4899C16.56 11.4446 16.7279 11.3766 16.9293 11.3313L17.2873 11.2519L16.7167 11.116C16.1236 10.9687 15.3292 10.5381 15.3292 10.3568C15.3292 10.3001 15.3628 10.2548 15.4187 10.2548C15.4635 10.2548 15.6201 10.1528 15.7656 10.0395L16.0453 9.82418L15.5194 9.88084C15.1726 9.92616 14.9935 9.9035 14.9935 9.81285C14.9935 9.74486 15.0607 9.6882 15.139 9.6882C15.2956 9.6882 16.3922 9.01965 16.325 8.96299C16.3027 8.95166 15.9334 8.96299 15.497 9.00832C14.4453 9.1103 14.2774 8.98565 15.1166 8.72503C15.497 8.61172 16.1125 8.30577 16.4929 8.04514C17.1307 7.59189 17.2202 7.55789 17.9922 7.54656C18.7419 7.53523 18.8426 7.56922 19.223 7.87517ZM18.9321 16.8383C19.8273 17.4616 20.7 17.7789 21.9644 17.9715C22.6581 18.0735 22.8595 18.1528 22.9714 18.3454C23.0498 18.4927 23.1057 19.15 23.0945 20.1698C23.0945 21.9602 22.8595 23.3766 22.1994 25.4616C21.6735 27.1046 21.349 27.8185 20.6217 28.929C20.0511 29.8015 18.2048 31.8978 18.0146 31.8978C17.8468 31.8978 16.3922 30.3454 15.7432 29.4616C14.6131 27.9205 13.8522 26.0961 13.248 23.4106C12.9123 21.9488 12.7781 19.6712 12.9683 18.742L13.1026 18.1075L14.076 17.9602C14.6131 17.8808 15.318 17.7222 15.6313 17.6089C16.2132 17.4049 17.6901 16.5097 17.8356 16.2718C17.9251 16.1245 17.8803 16.1018 18.9321 16.8383ZM1.67838 22.5381C1.67838 22.6287 1.63362 22.742 1.56649 22.776C1.51054 22.81 1.4546 22.742 1.4546 22.6174C1.4546 22.4814 1.51054 22.3794 1.56649 22.3794C1.63362 22.3794 1.67838 22.4474 1.67838 22.5381ZM4.75541 23.3199C3.63649 24.2718 3.54698 24.3964 3.61411 24.8157C3.64768 25.031 3.63649 25.2123 3.58054 25.2123C3.47984 25.2123 3.41271 25.031 3.312 24.4191C3.24487 24.0451 3.26725 23.9998 3.60292 23.8752C3.80433 23.7959 4.22952 23.5352 4.53163 23.2973C5.2813 22.6967 5.46033 22.7194 4.75541 23.3199ZM7.0492 23.0253C6.98206 23.1386 6.57925 23.7165 6.15406 24.3058C5.72887 24.895 5.37082 25.4729 5.37082 25.5749C5.37082 25.6882 5.44914 25.9375 5.54984 26.1528C5.71768 26.5154 5.74006 26.5267 6.24357 26.4587C6.75828 26.4021 6.75828 26.4021 7.2506 25.4956C8.13455 23.8865 8.30239 23.6032 8.35833 23.6712C8.3919 23.6939 8.15693 24.2944 7.84363 24.9857C7.53033 25.6769 7.27298 26.3114 7.27298 26.3908C7.27298 26.4701 7.41844 26.674 7.59747 26.844C7.84363 27.082 7.98909 27.1386 8.1905 27.082C8.79471 26.9007 8.91779 26.7194 9.23109 25.5636C9.41012 24.929 9.60034 24.4191 9.65628 24.4191C9.75698 24.4191 9.73461 24.6344 9.54439 25.9148C9.48844 26.3001 9.52201 26.3568 9.85769 26.5721C10.1038 26.7194 10.3388 26.776 10.5178 26.7307C11.0437 26.606 11.1556 26.3908 11.2451 25.3709C11.3011 24.725 11.3682 24.4191 11.4466 24.4531C11.5249 24.4757 11.7487 24.3964 11.9501 24.2831C12.4536 23.9998 12.4872 24.0111 12.6886 24.5324C12.9123 25.099 12.9235 26.0055 12.7109 26.5154C12.5655 26.8667 12.5655 26.912 12.7109 26.912C12.9347 26.912 12.9011 27.0933 12.6214 27.3653C12.4424 27.5239 12.2298 27.5919 11.8382 27.5919C11.5473 27.5919 11.3011 27.6372 11.3011 27.7052C11.3011 27.7619 11.0773 27.9092 10.82 28.0225C10.5514 28.1471 10.2046 28.4191 10.0591 28.623C9.82412 28.963 9.79055 29.1103 9.82412 29.9035C9.8465 30.844 9.75698 31.1046 9.38774 31.1046C9.10801 31.1046 9.1192 31.2859 9.38774 31.4446C9.71223 31.6145 10.2046 31.5806 10.5067 31.3653L10.7752 31.184L10.7193 31.7619C10.6633 32.3511 10.7528 32.4191 11.1668 32.0905C11.2451 32.0338 11.3347 32.0111 11.3794 32.0451C11.413 32.0905 11.5361 32.0678 11.648 31.9998C11.8382 31.9092 11.8606 31.9318 11.8606 32.2264C11.8606 32.5211 11.7822 32.6117 11.3906 32.8157C10.7528 33.1443 9.75698 33.4842 9.4325 33.4842C9.00731 33.4842 8.54855 33.1896 8.2912 32.7477C8.06741 32.3511 8.03385 32.3398 7.59747 32.4077C7.08277 32.4984 6.82541 32.3398 6.82541 31.9545C6.82541 31.6259 6.51212 30.9913 6.31071 30.912C6.2212 30.878 6.15406 30.7647 6.15406 30.6627C6.15406 30.5607 6.07574 30.3568 5.98622 30.1981C5.78482 29.8468 3.69244 25.5522 3.69244 25.4842C3.69244 25.4616 3.94979 25.4389 4.2519 25.4389C4.90087 25.4389 4.87849 25.4616 6.17644 23.8298C6.61282 23.2859 7.01563 22.8327 7.07158 22.8327C7.12752 22.8327 7.11633 22.9233 7.0492 23.0253ZM2.09238 23.5806C1.99168 23.6825 1.77908 23.5126 1.85741 23.3766C1.90216 23.3086 1.9693 23.3086 2.04762 23.3879C2.11476 23.4559 2.13714 23.5352 2.09238 23.5806ZM17.7796 33.167C17.7796 33.4389 17.6789 34.0055 17.5559 34.4474C17.1419 35.9772 16.8957 37.2916 16.8957 38.0395C16.8957 38.81 16.8174 38.9573 16.5712 38.6514C16.1348 38.1188 16.2132 37.0423 16.8062 35.5466C16.9964 35.0706 17.2537 34.2321 17.388 33.6769C17.6342 32.6117 17.7908 32.4077 17.7796 33.167ZM18.5517 33.5069C18.6188 33.8582 18.8874 34.708 19.1335 35.3766C19.6482 36.725 19.8049 37.8015 19.5811 38.3454C19.3126 39.0253 19.1671 38.8553 19.0888 37.7335C19.0216 36.7704 18.9433 36.3511 18.4174 34.3341C18.2272 33.6202 18.1713 32.5777 18.3391 32.7477C18.3839 32.8157 18.4846 33.1556 18.5517 33.5069ZM16.7838 33.5296C16.7838 33.5522 16.5041 33.9148 16.1684 34.3454C15.8327 34.776 15.4187 35.3993 15.2509 35.7279C14.9152 36.3511 14.6355 36.4644 14.5683 35.9885C14.49 35.4672 14.669 35.184 15.6425 34.3454C16.5153 33.5862 16.7838 33.3936 16.7838 33.5296ZM20.286 34.2888C21.2483 35.1273 21.4721 35.4219 21.4833 35.8185C21.4833 36.1018 21.1364 36.4531 21.0693 36.2378C20.9798 35.9772 20.1182 34.6854 19.6818 34.1641C19.2678 33.6655 19.1671 33.4842 19.3014 33.4842C19.3349 33.4842 19.7713 33.8468 20.286 34.2888ZM14.1991 37.065C14.6019 37.2689 14.6355 37.5976 14.255 37.6542C13.9753 37.6995 13.5949 37.2916 13.6844 37.0536C13.7739 36.8383 13.7627 36.8383 14.1991 37.065ZM22.3113 37.0536C22.3896 37.2803 21.998 37.6769 21.7071 37.6769C21.349 37.6769 21.4161 37.1783 21.7966 37.031C22.2218 36.861 22.2329 36.861 22.3113 37.0536Z" fill="#616B7C" />
  <path d="M15.732 19.6712C15.8999 20.0112 16.0565 20.2151 16.0789 20.1358C16.1125 20.0678 16.1908 19.9998 16.2579 19.9998C16.4481 19.9998 17.444 20.7251 17.4552 20.861C17.4552 21.1103 17.1419 21.1217 16.8509 20.895C16.6495 20.7364 16.5488 20.7137 16.4929 20.8044C16.4481 20.8837 16.4929 20.997 16.5936 21.0763C16.7838 21.2123 16.8509 21.4729 16.7055 21.4729C16.6495 21.4729 16.4929 21.5749 16.3362 21.6882C16.0677 21.9035 16.0677 21.9149 16.2691 22.1415C16.4817 22.3794 16.4817 22.3794 16.0677 22.3794C15.7768 22.3794 15.5754 22.3001 15.3852 22.0962C15.139 21.8582 15.1054 21.7222 15.1054 20.929C15.1054 19.9659 15.0607 19.8865 14.5124 19.8865C14.0425 19.8865 13.9418 20.0565 13.9641 20.7364C13.9977 21.5296 14.2551 22.1868 14.6802 22.5494C15.0495 22.8667 15.4523 22.9007 16.3251 22.6967C16.8062 22.5834 16.9181 22.5947 17.1642 22.7647C17.3209 22.8667 17.4552 22.9913 17.4552 23.048C17.4552 23.1047 17.1531 23.3426 16.7838 23.5806C16.4146 23.8299 16.1125 24.0565 16.1125 24.0905C16.1125 24.1245 16.4146 24.3738 16.7838 24.6344C17.1531 24.895 17.4552 25.1557 17.4552 25.201C17.4552 25.2576 17.1754 25.4729 16.8398 25.6996C16.3586 26.0282 16.2132 26.0848 16.146 25.9602C16.0789 25.8355 15.9782 25.9489 15.7544 26.3568L15.4411 26.912H15.8104C16.3922 26.912 16.6831 26.7987 16.616 26.5834C16.5824 26.4588 16.7614 26.2661 17.2426 25.9262L17.9363 25.4503L18.6188 25.9149C18.9881 26.1755 19.3238 26.4021 19.3461 26.4134C19.3685 26.4361 19.335 26.5268 19.2566 26.6061C19.1559 26.7421 19.2007 26.7874 19.4804 26.844C19.9168 26.9234 20.3644 26.9347 20.3644 26.8554C20.3644 26.8214 20.2637 26.5834 20.1406 26.3455C19.928 25.9149 19.693 25.7449 19.693 26.0168C19.693 26.1528 19.1559 25.8469 18.6636 25.4389L18.3167 25.1443L19.0664 24.6571C19.4692 24.3851 19.8049 24.1472 19.8049 24.1358C19.8049 24.1132 19.4692 23.8525 19.0664 23.5579L18.3167 23.0253L18.5853 22.81C18.7867 22.6514 18.9545 22.6174 19.3014 22.6627C20.5434 22.8554 20.756 22.844 21.1028 22.6287C21.5392 22.3455 21.8301 21.7336 21.8973 20.895C21.9756 20.1358 21.8413 19.8865 21.3826 19.8865C20.8343 19.8865 20.756 20.0338 20.7895 20.8837C20.8231 21.5862 20.8007 21.6882 20.5322 22.0168C20.3084 22.2888 20.1406 22.3794 19.8497 22.3794C19.458 22.3794 19.335 22.2321 19.6371 22.1075C19.8944 22.0168 19.8385 21.8922 19.3909 21.5976L18.9881 21.337L19.2454 21.133C19.6259 20.8384 19.4245 20.6117 19.0328 20.895C18.7643 21.0877 18.686 21.099 18.5181 20.9743C18.3279 20.8384 18.3615 20.793 18.9545 20.3851C19.4692 20.0452 19.6147 19.9885 19.693 20.1132C19.8161 20.3058 19.7937 20.3171 20.1741 19.6146L20.4762 19.0593L20.0623 19.1387C19.8273 19.1726 19.514 19.2066 19.3685 19.2066C19.1447 19.2066 19.1224 19.2293 19.2566 19.3879C19.3461 19.5013 19.3573 19.5919 19.279 19.6372C19.2231 19.6826 18.8874 19.9092 18.5405 20.1585L17.9251 20.5891L17.2426 20.1018C16.7279 19.7279 16.5712 19.5693 16.6272 19.4106C16.6719 19.2633 16.6272 19.2066 16.4817 19.2066C16.3698 19.2066 16.0901 19.1726 15.8551 19.1273L15.4187 19.0593L15.732 19.6712ZM18.1265 21.2463C18.3727 21.3936 18.1041 21.6316 17.7908 21.5296C17.6006 21.4729 17.5782 21.4163 17.6901 21.2916C17.8356 21.1103 17.9027 21.099 18.1265 21.2463ZM17.4216 21.7789C17.4887 21.9828 17.0076 22.1981 16.8621 22.0508C16.7726 21.9602 16.8062 21.8809 16.9628 21.7562C17.1978 21.5749 17.3657 21.5862 17.4216 21.7789ZM19.0217 21.9149C19.0217 22.0962 18.8762 22.1302 18.6188 22.0168C18.3279 21.8809 18.272 21.7449 18.4958 21.6656C18.6524 21.6089 19.0217 21.7789 19.0217 21.9149ZM18.2496 22.1528C18.5293 22.3115 18.5181 22.4248 18.1825 22.6061C17.9475 22.7307 17.8692 22.7194 17.6118 22.5494L17.3097 22.3455L17.5782 22.1981C17.9139 22.0168 17.9699 22.0055 18.2496 22.1528ZM18.4622 23.6486C18.7643 23.8525 19.0217 24.0565 19.0217 24.1018C19.0217 24.1472 18.7867 24.3398 18.507 24.5438C17.9922 24.9064 17.9811 24.9064 17.6342 24.7137C17.444 24.6117 17.1642 24.4304 17.0188 24.3171L16.7614 24.1132L17.2985 23.7052C17.6006 23.4899 17.858 23.2973 17.8804 23.2973C17.8915 23.286 18.1601 23.4559 18.4622 23.6486Z" fill="#616B7C" />
  <path d="M26.8541 4.69104C26.1603 5.08764 26.1268 5.13297 26.0932 5.57489C26.0708 5.88084 26.1492 6.24345 26.3394 6.68537C26.8205 7.78452 26.7086 8.20379 25.7911 8.7137L25.4554 8.90634L25.903 8.83835C26.4736 8.73637 27.1226 8.39642 27.3464 8.07914C27.5702 7.76186 27.5702 7.37659 27.3464 6.71937C27.1674 6.16413 27.1674 5.41625 27.3576 5.46158C27.4247 5.47291 27.7604 5.60889 28.1073 5.74486C28.9688 6.09614 29.0807 6.53806 28.5884 7.53523C28.2415 8.23778 28.2415 8.37376 28.5996 9.05365C28.801 9.42758 28.8793 9.7222 28.8458 9.98282C28.7898 10.4134 28.8346 10.4361 29.1814 10.1868C29.4723 9.98282 29.5171 9.30294 29.2598 8.96299C29.1702 8.83835 29.0919 8.66838 29.0919 8.57772C29.0919 8.44175 29.1367 8.44175 29.3045 8.60039C29.4612 8.7477 29.6738 8.79302 30.043 8.77036C30.4458 8.7477 30.6025 8.78169 30.7255 8.94033C30.8598 9.13297 30.871 9.13297 30.9381 8.86101C31.0836 8.30577 30.9829 8.15846 30.4346 8.15846C29.9982 8.15846 29.9311 8.12447 29.8975 7.89784C29.8752 7.7392 29.9871 7.50124 30.1996 7.24061C30.3899 7.02532 30.5465 6.74203 30.5465 6.61739C30.5465 6.24345 29.9759 5.7562 29.45 5.66554C29.0583 5.59755 28.9241 5.5069 28.6555 5.1103C28.0289 4.19246 27.8052 4.1358 26.8541 4.69104Z" fill="#616B7C" />
</svg>