<svg width="23" height="22" fill="none" xmlns="http://www.w3.org/2000/svg"><rect x=".926" y=".615" width="21.221" height="21.221" rx="10.611" fill="#00AF8F"/><path d="M9.373 6.91c-2.192 0-3.32 1.163-3.32 2.466 0 1.314.83 1.954 2.367 2.326l1.115.268c1.103.267 1.61.511 1.61 1.07 0 .779-.892 1.058-1.648 1.058-1.251 0-1.982-.512-2.44-1.21l-1.462.756c.78 1.35 2.217 1.896 3.68 1.896 1.56 0 3.592-.616 3.592-2.652 0-1.581-1.338-2.093-2.713-2.407l-.917-.21c-.929-.209-1.474-.465-1.474-.988 0-.872 1.14-.989 1.511-.989 1.376 0 1.834.803 2.07 1.187l1.437-.803C11.739 7.12 10.154 6.91 9.373 6.91zM15.872 7.043v5.382c0 .847-.05 1.52-1.31 1.52-.247 0-.42-.023-.864-.116v1.473c.481.105.802.105 1.013.105 2.508 0 2.767-1.415 2.767-2.61V7.043h-1.606z" fill="#fff"/></svg>