<svg width="23" height="22" viewBox="0 0 23 22" fill="none" xmlns="http://www.w3.org/2000/svg">
  <rect x="0.925781" y="0.614746" width="21.2209" height="21.2209" rx="10.6105" fill="#00AF8F" />
  <path d="M9.37338 6.91016C7.1806 6.91016 6.05325 8.07301 6.05325 9.3757C6.05325 10.69 6.8834 11.33 8.41982 11.7018L9.53469 11.9695C10.6376 12.2367 11.1451 12.4812 11.1451 13.0393C11.1451 13.8187 10.253 14.0979 9.49725 14.0979C8.24602 14.0979 7.51479 13.5857 7.05673 12.8883L5.59473 13.6441C6.37495 14.9931 7.81246 15.54 9.27446 15.54C10.8358 15.54 12.8673 14.9236 12.8673 12.8883C12.8673 11.3068 11.5292 10.7951 10.1541 10.4811L9.23748 10.2718C8.30842 10.0624 7.763 9.80636 7.763 9.28305C7.763 8.41059 8.90284 8.29435 9.27446 8.29435C10.6496 8.29435 11.1081 9.09689 11.3434 9.48079L12.7809 8.67825C11.7395 7.11991 10.1541 6.91016 9.37338 6.91016Z" fill="white" />
  <path d="M15.8718 7.04312V12.4255C15.8718 13.2722 15.8223 13.9452 14.5623 13.9452C14.315 13.9452 14.1421 13.922 13.6975 13.8294V15.3024C14.1791 15.407 14.5004 15.407 14.7107 15.407C17.2187 15.407 17.4784 13.9919 17.4784 12.7969V7.04312H15.8718Z" fill="white" />
</svg>