<svg width="24" height="24" viewBox="0 0 24 24" fill="none" xmlns="http://www.w3.org/2000/svg">
  <path d="M6.7041 11.2041L14.2041 3.7041C14.4154 3.49276 14.7021 3.37403 15.001 3.37403C15.2999 3.37403 15.5865 3.49276 15.7979 3.7041C16.0092 3.91545 16.1279 4.20209 16.1279 4.50098C16.1279 4.79986 16.0092 5.08651 15.7979 5.29785L9.09379 12L15.796 18.7041C15.9006 18.8088 15.9836 18.933 16.0403 19.0697C16.0969 19.2064 16.1261 19.353 16.1261 19.501C16.1261 19.649 16.0969 19.7955 16.0403 19.9322C15.9836 20.069 15.9006 20.1932 15.796 20.2979C15.6913 20.4025 15.5671 20.4855 15.4304 20.5421C15.2936 20.5988 15.1471 20.6279 14.9991 20.6279C14.8511 20.6279 14.7046 20.5988 14.5678 20.5421C14.4311 20.4855 14.3069 20.4025 14.2022 20.2979L6.70223 12.7979C6.59747 12.6932 6.5144 12.5689 6.45778 12.4321C6.40116 12.2953 6.37211 12.1487 6.37228 12.0006C6.37245 11.8525 6.40186 11.7059 6.4588 11.5693C6.51574 11.4326 6.5991 11.3085 6.7041 11.2041Z" fill="#EFF5FF" />
</svg>