<svg width="48" height="14" viewBox="0 0 48 14" fill="none" xmlns="http://www.w3.org/2000/svg">
  <g clip-path="url(#clip0_2019_429)">
    <path d="M0 0.622146H4.5024C4.9104 0.622146 6.1392 0.488813 6.6864 2.38405C7.0944 3.6031 7.6416 5.49834 8.4624 8.34119H8.736C9.552 5.36024 10.2336 3.33167 10.5072 2.38405C11.0544 0.488813 12.4176 0.622146 12.9648 0.622146H17.1936V13.6221H12.8256V5.90786H12.552L10.2336 13.6221H6.96L4.6416 5.90786H4.2336V13.6221H0M18.9696 0.622146H23.3376V8.33643H23.7456L26.6112 1.97453C27.1584 0.755479 28.3872 0.622146 28.3872 0.622146H32.4816V13.6221H28.1136V5.90786H27.84L24.9744 12.2698C24.4272 13.4888 23.064 13.6221 23.064 13.6221H18.9696M38.3472 9.69357V13.6221H34.2528V6.85072H47.6256C47.0784 8.47453 45.168 9.69357 42.984 9.69357" fill="#0F754E" />
    <path d="M47.8995 6.04209C48.4419 3.604 46.8051 0.623047 43.2579 0.623047H33.9795C34.2531 3.4659 36.7107 6.03733 39.3027 6.03733" fill="url(#paint0_linear_2019_429)" />
  </g>
  <defs>
    <linearGradient id="paint0_linear_2019_429" x1="46.2599" y1="3.33268" x2="35.3432" y2="3.33268" gradientUnits="userSpaceOnUse">
      <stop stop-color="#1F5CD7" />
      <stop offset="1" stop-color="#02AEFF" />
    </linearGradient>
    <clipPath id="clip0_2019_429">
      <rect width="48" height="13" fill="white" transform="translate(0 0.623047)" />
    </clipPath>
  </defs>
</svg>