<svg width="42" height="14" viewBox="0 0 42 14" fill="none" xmlns="http://www.w3.org/2000/svg">
  <g clip-path="url(#clip0_2019_436)">
    <path d="M15.7191 0.852459L10.3522 13.4258H6.85077L4.20627 3.39209C4.04637 2.77227 3.90697 2.54689 3.41907 2.2893C2.62367 1.86268 1.30757 1.46422 0.151367 1.21871L0.229267 0.852459H5.86677C6.58427 0.852459 7.23207 1.32336 7.39607 2.13233L8.79007 9.40509L12.2382 0.852459H15.7191ZM29.4418 9.32057C29.4541 6.00416 24.7678 5.81902 24.8006 4.33791C24.8088 3.88713 25.2475 3.40819 26.2069 3.28342C26.6825 3.22305 27.9904 3.17475 29.4746 3.84689L30.0568 1.18249C29.2532 0.896731 28.2282 0.623047 26.9531 0.623047C23.6772 0.623047 21.373 2.33357 21.3525 4.78063C21.332 6.59178 22.9966 7.60199 24.2512 8.20168C25.5427 8.81747 25.9773 9.2119 25.9691 9.7633C25.9609 10.6085 24.94 10.9788 23.9847 10.9949C22.3201 11.019 21.3525 10.5521 20.5817 10.202L19.9831 12.9549C20.758 13.3051 22.1848 13.6069 23.669 13.623C27.154 13.623 29.4295 11.9326 29.4418 9.32057ZM38.0887 13.4258H41.1514L38.4782 0.852459H35.6492C35.0137 0.852459 34.4766 1.21469 34.2388 1.77413L29.2655 13.4258H32.7464L33.4352 11.5463H37.6869L38.0887 13.4258ZM34.3905 8.97042L36.133 4.24936L37.1375 8.97042H34.3905ZM20.4505 0.852459L17.7117 13.4258H14.3989L17.1418 0.852459H20.4505Z" fill="#1434CB" />
  </g>
  <defs>
    <clipPath id="clip0_2019_436">
      <rect width="41" height="13" fill="white" transform="translate(0.151367 0.623047)" />
    </clipPath>
  </defs>
</svg>