<svg width="42" height="14" fill="none" xmlns="http://www.w3.org/2000/svg"><g clip-path="url(#a)"><path d="m15.72.852-5.368 12.574H6.851L4.206 3.392c-.16-.62-.299-.845-.787-1.103-.795-.426-2.111-.825-3.268-1.07L.23.852h5.638c.717 0 1.365.471 1.53 1.28L8.79 9.405 12.238.852h3.481zm13.722 8.469c.012-3.317-4.674-3.502-4.641-4.983.008-.45.447-.93 1.406-1.055.476-.06 1.783-.108 3.268.564l.582-2.665c-.804-.285-1.829-.559-3.104-.559-3.276 0-5.58 1.71-5.6 4.158-.021 1.81 1.644 2.821 2.898 3.42 1.292.616 1.726 1.01 1.718 1.562-.008.845-1.029 1.216-1.984 1.232-1.665.024-2.633-.443-3.403-.793l-.599 2.753c.775.35 2.202.652 3.686.668 3.485 0 5.76-1.69 5.773-4.302zm8.647 4.105h3.062L38.478.852H35.65c-.635 0-1.172.363-1.41.922l-4.973 11.652h3.48l.69-1.88h4.25l.403 1.88zM34.39 8.97l1.742-4.72 1.005 4.72H34.39zM20.45.852l-2.74 12.574H14.4L17.142.852h3.309z" fill="#1434CB"/></g><defs><clipPath id="a"><path fill="#fff" transform="translate(.151 .623)" d="M0 0h41v13H0z"/></clipPath></defs></svg>