<svg width="23" height="14" viewBox="0 0 23 14" fill="none" xmlns="http://www.w3.org/2000/svg">
  <path d="M14.4694 2.03809H8.68262V12.4367H14.4694V2.03809Z" fill="#FF5F00" />
  <path d="M9.05012 7.2359C9.05012 5.12578 10.0388 3.24679 11.5754 2.0355C10.4497 1.15165 9.03086 0.623047 7.48786 0.623047C3.83687 0.623047 0.875 3.58492 0.875 7.2359C0.875 10.889 3.83687 13.8488 7.48786 13.8488C9.03086 13.8488 10.4497 13.3202 11.5754 12.4342C10.0367 11.225 9.05012 9.34602 9.05012 7.2359Z" fill="#EB001B" />
  <path d="M22.2766 7.2359C22.2766 10.889 19.3147 13.8488 15.6637 13.8488C14.1207 13.8488 12.7019 13.3202 11.5762 12.4342C13.1149 11.2229 14.1015 9.34388 14.1015 7.23376C14.1015 5.12364 13.1128 3.24465 11.5762 2.03336C12.7019 1.15165 14.1207 0.623047 15.6637 0.623047C19.3147 0.623047 22.2766 3.58492 22.2766 7.2359Z" fill="#F79E1B" />
</svg>