<svg width="48" height="14" fill="none" xmlns="http://www.w3.org/2000/svg"><g clip-path="url(#a)"><path d="M0 .622h4.502C4.91.622 6.14.49 6.686 2.384c.408 1.22.956 3.114 1.776 5.957h.274c.816-2.98 1.498-5.01 1.771-5.957C11.054.49 12.417.622 12.965.622h4.229v13h-4.368V5.908h-.274l-2.318 7.714H6.96L4.642 5.908h-.408v7.714H0m18.97-13h4.368v7.714h.408l2.865-6.361C27.158.755 28.387.622 28.387.622h4.095v13h-4.368V5.908h-.274l-2.866 6.362c-.547 1.219-1.91 1.352-1.91 1.352H18.97m19.377-3.928v3.928h-4.094V6.851h13.373c-.548 1.624-2.458 2.843-4.642 2.843" fill="#0F754E"/><path d="M47.9 6.042c.542-2.438-1.095-5.419-4.642-5.419h-9.279c.274 2.843 2.732 5.414 5.324 5.414" fill="url(#b)"/></g><defs><linearGradient id="b" x1="46.26" y1="3.333" x2="35.343" y2="3.333" gradientUnits="userSpaceOnUse"><stop stop-color="#1F5CD7"/><stop offset="1" stop-color="#02AEFF"/></linearGradient><clipPath id="a"><path fill="#fff" transform="translate(0 .623)" d="M0 0h48v13H0z"/></clipPath></defs></svg>