<svg width="22" height="22" fill="none" xmlns="http://www.w3.org/2000/svg"><g clip-path="url(#a)"><rect x=".337" y=".496" width="21.458" height="21.458" rx="10.729" fill="#fff"/><path d="M.337 10.796c0-4.856 0-7.284 1.508-8.792C3.354.496 5.781.496 10.637.496h.858c4.856 0 7.284 0 8.792 1.508s1.508 3.936 1.508 8.792v.858c0 4.855 0 7.283-1.508 8.792-1.508 1.508-3.936 1.508-8.792 1.508h-.858c-4.856 0-7.283 0-8.792-1.508C.337 18.937.337 16.509.337 11.654v-.858z" fill="#07F"/><path d="M11.755 15.955c-4.891 0-7.68-3.353-7.797-8.932h2.45c.08 4.095 1.886 5.83 3.317 6.187V7.023h2.307v3.531c1.412-.152 2.896-1.761 3.397-3.531h2.307c-.384 2.181-1.994 3.79-3.138 4.452 1.144.537 2.977 1.94 3.675 4.48h-2.54c-.545-1.7-1.904-3.014-3.701-3.192v3.192h-.277z" fill="#fff"/></g><defs><clipPath id="a"><rect x=".337" y=".496" width="21.458" height="21.458" rx="10.729" fill="#fff"/></clipPath></defs></svg>