<svg width="22" height="22" viewBox="0 0 22 22" fill="none" xmlns="http://www.w3.org/2000/svg">
  <g clip-path="url(#clip0_2633_2606)">
    <rect x="0.336914" y="0.495605" width="21.4584" height="21.4584" rx="10.7292" fill="white" />
    <path d="M0.336914 10.7956C0.336914 5.94015 0.336914 3.51241 1.84532 2.00401C3.35372 0.495605 5.78146 0.495605 10.6369 0.495605H11.4953C16.3507 0.495605 18.7785 0.495605 20.2869 2.00401C21.7953 3.51241 21.7953 5.94015 21.7953 10.7956V11.654C21.7953 16.5094 21.7953 18.9372 20.2869 20.4456C18.7785 21.954 16.3507 21.954 11.4953 21.954H10.6369C5.78146 21.954 3.35372 21.954 1.84532 20.4456C0.336914 18.9372 0.336914 16.5094 0.336914 11.654V10.7956Z" fill="#0077FF" />
    <path d="M11.7546 15.9546C6.86384 15.9546 4.07428 12.6018 3.95805 7.02257H6.40787C6.48834 11.1175 8.29438 12.8521 9.72494 13.2097V7.02257H12.0318V10.5542C13.4445 10.4023 14.9285 8.79289 15.4292 7.02257H17.736C17.3516 9.20417 15.7422 10.8135 14.5977 11.4752C15.7422 12.0116 17.5752 13.4154 18.2726 15.9546H15.7333C15.1879 14.2558 13.8289 12.9415 12.0318 12.7627V15.9546H11.7546Z" fill="white" />
  </g>
  <defs>
    <clipPath id="clip0_2633_2606">
      <rect x="0.336914" y="0.495605" width="21.4584" height="21.4584" rx="10.7292" fill="white" />
    </clipPath>
  </defs>
</svg>