<svg width="22" height="22" fill="none" xmlns="http://www.w3.org/2000/svg"><rect x=".397" y=".615" width="21.221" height="21.221" rx="10.611" fill="#fff"/><path d="M11.292 16.056c.76-2.158 2.605-3.852 4.939-4.568.163-.05.244-.213.19-.351a.26.26 0 0 0-.19-.176c-2.347-.702-4.179-2.396-4.939-4.567a.305.305 0 0 0-.38-.176.26.26 0 0 0-.19.176c-.773 2.17-2.604 3.865-4.938 4.567-.163.05-.244.214-.19.352a.26.26 0 0 0 .19.175c2.333.703 4.165 2.397 4.939 4.568.054.15.23.226.38.176a.316.316 0 0 0 .19-.176z" fill="url(#a)"/><path opacity=".8" d="M5.784 11.489c2.334.702 4.165 2.396 4.939 4.567.054.15.23.226.38.176a.26.26 0 0 0 .19-.176c.76-2.158 2.605-3.852 4.938-4.567-1.112.339-2.985.602-5.223.602-2.239 0-4.125-.263-5.224-.602z" fill="url(#b)"/><defs><radialGradient id="a" cx="0" cy="0" r="1" gradientUnits="userSpaceOnUse" gradientTransform="matrix(12.1058 0 0 11.1961 16.123 5.994)"><stop offset=".228" stop-color="#00FFFE"/><stop offset=".305" stop-color="#11F3FE"/><stop offset=".457" stop-color="#3ED3FE"/><stop offset=".671" stop-color="#86A0FF"/><stop offset=".935" stop-color="#E95AFF"/><stop offset=".953" stop-color="#F055FF"/></radialGradient><radialGradient id="b" cx="0" cy="0" r="1" gradientUnits="userSpaceOnUse" gradientTransform="matrix(6.84111 0 0 6.32704 14.673 11.897)"><stop stop-color="#053BF2"/><stop offset=".091" stop-color="#0F3CF3" stop-opacity=".909"/><stop offset=".247" stop-color="#2B3FF4" stop-opacity=".753"/><stop offset=".449" stop-color="#5844F7" stop-opacity=".551"/><stop offset=".69" stop-color="#964BFA" stop-opacity=".31"/><stop offset=".961" stop-color="#E454FE" stop-opacity=".039"/><stop offset="1" stop-color="#F055FF" stop-opacity="0"/></radialGradient></defs></svg>