<svg width="22" height="22" viewBox="0 0 22 22" fill="none" xmlns="http://www.w3.org/2000/svg">
  <rect x="0.397461" y="0.614746" width="21.2209" height="21.2209" rx="10.6105" fill="white" />
  <path d="M11.2924 16.0559C12.0521 13.8976 13.8974 12.2036 16.231 11.4884C16.3938 11.4382 16.4752 11.2751 16.421 11.137C16.3938 11.0492 16.326 10.9864 16.231 10.9614C13.8838 10.2587 12.0521 8.56464 11.2924 6.3938C11.2381 6.24322 11.0617 6.16793 10.9125 6.21812C10.8175 6.24322 10.7496 6.30596 10.7225 6.3938C9.94914 8.56464 8.1175 10.2587 5.78384 10.9614C5.62103 11.0115 5.53962 11.1747 5.59389 11.3127C5.62103 11.4005 5.68887 11.4633 5.78384 11.4884C8.1175 12.1911 9.94914 13.8851 10.7225 16.0559C10.7768 16.2065 10.9532 16.2818 11.1024 16.2316C11.1838 16.2065 11.2516 16.1438 11.2924 16.0559Z" fill="url(#paint0_radial_2633_2598)" />
  <path opacity="0.8" d="M5.78418 11.4888C8.11783 12.1915 9.94948 13.8855 10.7228 16.0563C10.7771 16.2069 10.9535 16.2822 11.1027 16.232C11.1977 16.2069 11.2656 16.1442 11.2927 16.0563C12.0525 13.898 13.8977 12.204 16.2314 11.4888C15.1188 11.8276 13.2464 12.0911 11.0078 12.0911C8.76909 12.0911 6.88317 11.8276 5.78418 11.4888Z" fill="url(#paint1_radial_2633_2598)" />
  <defs>
    <radialGradient id="paint0_radial_2633_2598" cx="0" cy="0" r="1" gradientUnits="userSpaceOnUse" gradientTransform="translate(16.1226 5.99415) scale(12.1058 11.1961)">
      <stop offset="0.2281" stop-color="#00FFFE" />
      <stop offset="0.3047" stop-color="#11F3FE" />
      <stop offset="0.4569" stop-color="#3ED3FE" />
      <stop offset="0.6706" stop-color="#86A0FF" />
      <stop offset="0.9352" stop-color="#E95AFF" />
      <stop offset="0.9531" stop-color="#F055FF" />
    </radialGradient>
    <radialGradient id="paint1_radial_2633_2598" cx="0" cy="0" r="1" gradientUnits="userSpaceOnUse" gradientTransform="translate(14.6732 11.8967) scale(6.84111 6.32704)">
      <stop stop-color="#053BF2" />
      <stop offset="0.0908682" stop-color="#0F3CF3" stop-opacity="0.9091" />
      <stop offset="0.2469" stop-color="#2B3FF4" stop-opacity="0.7531" />
      <stop offset="0.4492" stop-color="#5844F7" stop-opacity="0.5508" />
      <stop offset="0.69" stop-color="#964BFA" stop-opacity="0.31" />
      <stop offset="0.9606" stop-color="#E454FE" stop-opacity="0.0393646" />
      <stop offset="1" stop-color="#F055FF" stop-opacity="0" />
    </radialGradient>
  </defs>
</svg>