<svg width="22" height="22" viewBox="0 0 22 22" fill="none" xmlns="http://www.w3.org/2000/svg">
  <rect x="0.339844" y="0.614746" width="21.2209" height="21.2209" rx="10.6105" fill="#F1BA36" />
  <path d="M6.90822 15.3911C6.66293 15.1119 6.64085 14.8695 6.84199 14.6638L7.54846 13.9364C7.75451 13.7209 8.02434 13.7625 8.35794 14.0613C8.59343 14.2719 8.89515 14.4825 9.2631 14.6931C9.63105 14.9037 10.1167 15.0091 10.7202 15.0091C11.2942 15.0091 11.7995 14.9037 12.2361 14.6931C12.6777 14.4825 12.8984 14.0687 12.8984 13.4515C12.8984 12.8344 12.7145 12.4083 12.3465 12.1732C11.9835 11.9381 11.5002 11.8205 10.8968 11.8205H9.6752C9.30725 11.8205 9.12328 11.6663 9.12328 11.3577V10.5642C9.12328 10.2459 9.30725 10.0867 9.6752 10.0867H10.5877C11.4168 10.0867 11.9663 9.9569 12.2361 9.69732C12.506 9.43773 12.6409 9.10223 12.6409 8.69081C12.6409 8.26469 12.4863 7.95123 12.1773 7.75042C11.8731 7.54471 11.3874 7.44185 10.7202 7.44185C10.205 7.44185 9.75369 7.52267 9.36612 7.6843C8.98346 7.84103 8.69646 8.00755 8.50512 8.18388C8.18623 8.47285 7.91395 8.49489 7.68828 8.25L7.07748 7.58144C6.8469 7.33165 6.87879 7.08676 7.17315 6.84676C7.69809 6.41575 8.25001 6.11943 8.82892 5.9578C9.41273 5.79127 10.0677 5.70801 10.7938 5.70801C12.1184 5.70801 13.1192 5.9627 13.7962 6.47207C14.4782 6.98145 14.8191 7.64756 14.8191 8.4704C14.8191 9.1757 14.6278 9.71691 14.2451 10.094C13.8674 10.4663 13.4013 10.721 12.8469 10.8581V10.8875C13.4602 10.9512 14.0047 11.2255 14.4806 11.7103C14.9565 12.1952 15.1944 12.8173 15.1944 13.5764C15.1944 14.5658 14.797 15.3421 14.0023 15.9054C13.2124 16.4637 12.1061 16.7429 10.6834 16.7429C9.67275 16.7429 8.88288 16.6253 8.31379 16.3902C7.7496 16.1503 7.28108 15.8172 6.90822 15.3911Z" fill="black" />
</svg>