<svg width="22" height="22" fill="none" xmlns="http://www.w3.org/2000/svg"><rect x=".34" y=".615" width="21.221" height="21.221" rx="10.611" fill="#F1BA36"/><path d="M6.908 15.391c-.245-.28-.267-.521-.066-.727l.706-.728c.207-.215.476-.174.81.125.235.21.537.421.905.632.368.21.854.316 1.457.316.574 0 1.08-.105 1.516-.316.442-.21.662-.624.662-1.242 0-.617-.184-1.043-.551-1.278-.364-.235-.847-.353-1.45-.353H9.675c-.368 0-.552-.154-.552-.462v-.794c0-.318.184-.477.552-.477h.913c.829 0 1.378-.13 1.648-.39s.405-.595.405-1.006c0-.426-.155-.74-.464-.94-.304-.206-.79-.31-1.457-.31-.515 0-.966.082-1.354.243-.383.157-.67.324-.86.5-.32.289-.592.31-.818.066l-.61-.669c-.231-.25-.2-.494.095-.734.525-.431 1.077-.728 1.656-.89a7.16 7.16 0 0 1 1.965-.249c1.324 0 2.325.255 3.002.764.682.51 1.023 1.176 1.023 1.998 0 .706-.191 1.247-.574 1.624a2.96 2.96 0 0 1-1.398.764v.03c.613.063 1.158.338 1.634.822.476.485.713 1.107.713 1.866 0 .99-.397 1.766-1.192 2.33-.79.558-1.896.837-3.319.837-1.01 0-1.8-.118-2.37-.353a3.822 3.822 0 0 1-1.405-.999z" fill="#000"/></svg>